<svg xmlns="http://www.w3.org/2000/svg" viewBox="0 0 323.26 463.11"><defs><style>.cls-1{fill:#fff;}.cls-2{fill:#f9f7f0;}.cls-3{fill:none;stroke:#000;stroke-linecap:round;stroke-linejoin:round;stroke-width:1.7px;}.cls-4{fill:#f2f2f2;}.cls-5{fill:#ffe3c8;}.cls-6{fill:#f596aa;}.cls-7{fill:#cdd9db;}.cls-8{fill:#150d00;}.cls-9{fill:#999;}.cls-10{font-size:28px;fill:#3b5066;font-family:MarkerFelt-Thin, Marker Felt;font-weight:200;}</style></defs><g id="Layer_2" data-name="Layer 2"><g id="layer"><path class="cls-1" d="M311.25,186a8.83,8.83,0,0,0-2.18,2.81V59.3a8.79,8.79,0,0,0,2.18,2.8,7.55,7.55,0,0,0,5.47,1.78V184.23A7.54,7.54,0,0,0,311.25,186Z"/><path class="cls-1" d="M306.69,195V53.13a11.21,11.21,0,0,0,1.51-1.72,15.09,15.09,0,0,0-.28,3.43,11.07,11.07,0,0,0,1.15,4.45h0V188.81a11.08,11.08,0,0,0-1.15,4.46,15.28,15.28,0,0,0,.28,3.44A10.83,10.83,0,0,0,306.69,195Z"/><path class="cls-1" d="M304.21,54.8a10,10,0,0,0,1-.55,9.57,9.57,0,0,0,1.46-1.12V195a9,9,0,0,0-1.46-1.12,8.38,8.38,0,0,0-1-.55V54.8Z"/><path class="cls-1" d="M306.69,208.05a6.94,6.94,0,0,0-1.5-.9,6.09,6.09,0,0,0-1-.36V204h.27a4.6,4.6,0,0,1,2.21.64Z"/><path class="cls-1" d="M304.21,188.35v5a6.73,6.73,0,0,0-4.82-.47,3.56,3.56,0,0,0-.67.25v-3.66c1.7,0,3-.5,3-1.08Z"/><path class="cls-1" d="M304.21,182.23v6.12h-2.44c0-.58-1.35-1-3-1.07v-4c1.7,0,3-.5,3-1.07Z"/><path class="cls-1" d="M304.21,176.11v6.12h-2.44c0-.58-1.35-1.06-3-1.08v-4c1.7,0,3-.5,3-1.07Z"/><path class="cls-1" d="M304.21,170v6.14h-2.44c0-.59-1.35-1.06-3-1.09v-4c1.7,0,3-.5,3-1.08Z"/><path class="cls-1" d="M304.21,163.85V170h-2.44c0-.57-1.35-1.05-3-1.08v-4c1.7,0,3-.5,3-1.07Z"/><path class="cls-1" d="M304.21,157.71v6.14h-2.44c0-.59-1.35-1-3-1.08v-4c1.7,0,3-.5,3-1.09Z"/><path class="cls-1" d="M304.21,151.59v6.12h-2.44c0-.57-1.35-1.05-3-1.07v-4c1.7,0,3-.49,3-1.07Z"/><path class="cls-1" d="M304.21,145.46v6.13h-2.44c0-.58-1.35-1.05-3-1.08v-4c1.7,0,3-.5,3-1.08Z"/><path class="cls-1" d="M304.21,139.34v6.12h-2.44c0-.58-1.35-1.05-3-1.08v-4c1.7,0,3-.48,3-1.06Z"/><path class="cls-1" d="M304.21,133.21v6.13h-2.44c0-.58-1.35-1.05-3-1.08v-4c1.7,0,3-.5,3-1.08Z"/><path class="cls-1" d="M304.21,127.08v6.13h-2.44c0-.58-1.35-1.06-3-1.08v-4c1.7,0,3-.5,3-1.08Z"/><path class="cls-1" d="M304.21,121v6.13h-2.44c0-.58-1.35-1-3-1.08v-4c1.7,0,3-.49,3-1.08Z"/><path class="cls-1" d="M304.21,114.83V121h-2.44c0-.57-1.35-1-3-1.08v-4c1.7,0,3-.51,3-1.08Z"/><path class="cls-1" d="M304.21,108.69v6.14h-2.44c0-.59-1.35-1-3-1.08v-4c1.7,0,3-.49,3-1.08Z"/><path class="cls-1" d="M304.21,102.57v6.12h-2.44c0-.57-1.35-1-3-1.06v-4c1.7,0,3-.5,3-1.08Z"/><path class="cls-1" d="M304.21,96.44v6.13h-2.44c0-.58-1.35-1-3-1.07v-4c1.7,0,3-.49,3-1.08Z"/><path class="cls-1" d="M304.21,90.32v6.12h-2.44c0-.57-1.35-1-3-1.07v-4c1.7,0,3-.51,3-1.08Z"/><path class="cls-1" d="M304.21,84.19v6.13h-2.44c0-.59-1.35-1-3-1.08v-4c1.7,0,3-.5,3-1.08Z"/><path class="cls-1" d="M304.21,78.06v6.13h-2.44c0-.58-1.35-1-3-1.07v-4c1.7,0,3-.5,3-1.08Z"/><path class="cls-1" d="M304.21,71.94v6.12h-2.44c0-.57-1.35-1-3-1.08V73c1.7,0,3-.5,3-1.07Z"/><path class="cls-1" d="M304.21,65.81v6.13h-2.44c0-.58-1.35-1-3-1.08v-4c1.7,0,3-.51,3-1.08Z"/><path class="cls-1" d="M304.21,59.68v6.13h-2.44c0-.58-1.35-1.06-3-1.08v-4c1.7,0,3-.49,3-1.07Z"/><path class="cls-1" d="M304.21,54.8v4.88h-2.44c0-.58-1.35-1-3-1.07V55a3.58,3.58,0,0,0,.67.26A6.73,6.73,0,0,0,304.21,54.8Z"/><path class="cls-1" d="M303.46,42.82a2.09,2.09,0,0,1,0,1.11,3.67,3.67,0,0,0,.71.13h.27a4.49,4.49,0,0,0,2.21-.64,3.1,3.1,0,0,0,.36-.21,7.29,7.29,0,0,0,2-2h0a7.18,7.18,0,0,0,1-2.12,7.49,7.49,0,0,0,.2-1,.72.72,0,0,0-1.18-.65.65.65,0,0,0-.15.18,8.68,8.68,0,0,1-2.23,2.48,7.85,7.85,0,0,1-1.5.9,8.87,8.87,0,0,1-1,.36,6.44,6.44,0,0,1-1.63.25A2.4,2.4,0,0,1,303.46,42.82Zm5.61-10.74a1.91,1.91,0,0,0-2.38-.8l-.14.07h0a1.64,1.64,0,0,1,.16.29h0a1.78,1.78,0,0,1,.17.49,2.15,2.15,0,0,1,0,.43,2.78,2.78,0,0,1-.21,1,3,3,0,0,1-.48.83,3.51,3.51,0,0,1-2,1.22,3.86,3.86,0,0,1-2-.07l.16.15a2.13,2.13,0,0,1,.43,1.82,4.55,4.55,0,0,0,1.46.23,5.23,5.23,0,0,0,2.48-.61,4.79,4.79,0,0,0,.92-.62,5.31,5.31,0,0,0,1.46-2.14,5.72,5.72,0,0,0,.25-.86A2,2,0,0,0,309.07,32.08Zm7.53,27a3.07,3.07,0,0,1-2.06-2.59,3.53,3.53,0,0,1,1.84-3.34,3.81,3.81,0,0,1,3.78.22,5,5,0,0,1,2.16,3.28,6.38,6.38,0,0,1-3,6.43l-.55.29a6.7,6.7,0,0,1-2,.54,7.55,7.55,0,0,1-5.47-1.78,8.79,8.79,0,0,1-2.18-2.8h0a11.07,11.07,0,0,1-1.15-4.45,15.09,15.09,0,0,1,.28-3.43h0a11.18,11.18,0,0,0,1.9-4.68l-2.51-.2c-.29.23-.58.46-.9.67a7.9,7.9,0,0,1-2.48,1.15h0a5.39,5.39,0,0,1-4-.47l-.21-.12a4.37,4.37,0,0,1-1.23-1.23,4,4,0,0,1-.71-2.09v-.12a3.54,3.54,0,0,1,.71-2.13,2.77,2.77,0,0,1,1.42-1.06l.21-.06a4,4,0,0,1-1.63-1.56,2.8,2.8,0,0,1-.27-.58,3.4,3.4,0,0,0-.18-.94v0a3.14,3.14,0,0,1,.45-1.75,2.36,2.36,0,0,1,.77-.8,2.27,2.27,0,0,1,1.24-.36,2.22,2.22,0,0,1,.45,0A4.4,4.4,0,0,1,299.44,32a4.63,4.63,0,0,1,.2-2,4.91,4.91,0,0,1,4.21-3.23,5.91,5.91,0,0,1,2.36.34h0a10.29,10.29,0,0,1,2.37,1.23c.37.24.73.5,1.08.76a19.7,19.7,0,0,1,2.61,2.31,10.1,10.1,0,0,1,1.49,2c1.52,2.73,1.55,6.1,1.06,9.21s-1.46,6.14-1.79,9.27a9.43,9.43,0,0,0,.38,4.39A4.15,4.15,0,0,0,316.54,59Z"/><path class="cls-1" d="M306.69,210.94a5.2,5.2,0,0,0-3.94-.39,2.14,2.14,0,0,1-.43,1.83l-.16.15a3.86,3.86,0,0,1,2-.07,3.55,3.55,0,0,1,2,1.21,2.91,2.91,0,0,1,.48.84,2.58,2.58,0,0,1,.17,1.45,1.78,1.78,0,0,1-.17.49h0a1.64,1.64,0,0,1-.16.29h0a1.91,1.91,0,0,0,2.52-.73,2,2,0,0,0,.25-1.47,6.22,6.22,0,0,0-.25-.87,5.35,5.35,0,0,0-1.46-2.13A4.37,4.37,0,0,0,306.69,210.94Zm7.85-19.29a3.07,3.07,0,0,1,2.06-2.59h-.06a4.17,4.17,0,0,0-3.13,2.74,9.39,9.39,0,0,0-.38,4.38c.33,3.13,1.29,6.17,1.79,9.27s.46,6.48-1.06,9.21a10.91,10.91,0,0,1-1.49,2,19.62,19.62,0,0,1-2.61,2.3c-.35.27-.71.53-1.08.77a10.7,10.7,0,0,1-2.37,1.23,5.75,5.75,0,0,1-2.36.35,4.94,4.94,0,0,1-4.21-3.23,4.65,4.65,0,0,1-.2-2,4.38,4.38,0,0,1,1.74-3.12h0a2.24,2.24,0,0,1-1.69-.31,2.3,2.3,0,0,1-.77-.81,3.11,3.11,0,0,1-.45-1.74h0a3.33,3.33,0,0,0,.18-.94,3.06,3.06,0,0,1,.27-.58,4.1,4.1,0,0,1,1.63-1.57l-.21-.05a2.83,2.83,0,0,1-1.42-1.06,3.55,3.55,0,0,1-.71-2.25,4,4,0,0,1,.71-2.09h0a4.33,4.33,0,0,1,1.23-1.22l.21-.12a5.44,5.44,0,0,1,4-.47h0a7.68,7.68,0,0,1,2.48,1.15,10,10,0,0,1,.9.67l2.51-.2a11.23,11.23,0,0,0-1.9-4.68,15.28,15.28,0,0,1-.28-3.44,11.08,11.08,0,0,1,1.15-4.46,8.83,8.83,0,0,1,2.18-2.81,7.54,7.54,0,0,1,5.47-1.77,6.17,6.17,0,0,1,2,.54,4.86,4.86,0,0,1,.55.29,6.37,6.37,0,0,1,3,6.42,5,5,0,0,1-2.16,3.29,3.84,3.84,0,0,1-3.78.21A3.51,3.51,0,0,1,314.54,191.65Zm-10.33,15.14a6.09,6.09,0,0,1,1,.36,6.94,6.94,0,0,1,1.5.9,8.55,8.55,0,0,1,2.23,2.48.61.61,0,0,0,.15.17.72.72,0,0,0,1.18-.65,6.94,6.94,0,0,0-.2-1,7.18,7.18,0,0,0-1-2.14,7,7,0,0,0-2-2,2.21,2.21,0,0,0-.36-.23,4.6,4.6,0,0,0-2.21-.64h-.27a3.71,3.71,0,0,0-.71.14,2.06,2.06,0,0,1,0,1.1,2.37,2.37,0,0,1-.88,1.25A6,6,0,0,1,304.21,206.79Z"/><path class="cls-1" d="M308.2,196.71a11.23,11.23,0,0,1,1.9,4.68l-2.51.2a7.45,7.45,0,0,0-.9-1.78,7.53,7.53,0,0,0-.81-1,5.66,5.66,0,0,0-1.67-1.15,4,4,0,0,0-1.77-.35,3.23,3.23,0,0,0-1.56.5,1.79,1.79,0,0,0-2.33-1.08l-2.62-.07a5,5,0,0,1,2.79-3.59,3.56,3.56,0,0,1,.67-.25,6.73,6.73,0,0,1,4.82.47,8.38,8.38,0,0,1,1,.55,9,9,0,0,1,1.46,1.12A10.83,10.83,0,0,1,308.2,196.71Z"/><path class="cls-1" d="M299.94,47.77a2.22,2.22,0,0,1,.95,2.46.43.43,0,0,1,0,.05,3.34,3.34,0,0,0,1.56.5,4,4,0,0,0,1.77-.36,5.48,5.48,0,0,0,1.67-1.15,6.39,6.39,0,0,0,.81-1,7.38,7.38,0,0,0,.9-1.77l2.51.2a11.18,11.18,0,0,1-1.9,4.68h0a11.21,11.21,0,0,1-1.51,1.72,9.57,9.57,0,0,1-1.46,1.12,10,10,0,0,1-1,.55,6.73,6.73,0,0,1-4.82.47,3.58,3.58,0,0,1-.67-.26,4.87,4.87,0,0,1-2.85-4.35A3.57,3.57,0,0,1,297.08,48a2.67,2.67,0,0,1,1.64-.6,2.34,2.34,0,0,1,1.1.26Z"/><path class="cls-1" d="M300.89,197.87a2.24,2.24,0,0,1-.95,2.47l-.12.07a2.13,2.13,0,0,1-1.1.26,2.72,2.72,0,0,1-1.64-.59,3.57,3.57,0,0,1-1.21-2.63,3.29,3.29,0,0,1,.06-.77l2.62.07a1.79,1.79,0,0,1,2.33,1.08Z"/><path class="cls-1" d="M310.26,222.91a2.34,2.34,0,0,0-1.21-3,2.1,2.1,0,0,0-.47-.14c.37-.24.73-.5,1.08-.77a19.62,19.62,0,0,0,2.61-2.3A13.39,13.39,0,0,1,309.54,229a12.35,12.35,0,0,1-11,3.9,18.42,18.42,0,0,0,2.3-3.85l.09-.22a2.31,2.31,0,0,0,1.29,1.46,2.2,2.2,0,0,0,2.92-1.26,2.34,2.34,0,0,0-1.22-3,2.16,2.16,0,0,0-2,.16,6.88,6.88,0,0,0,.09-3.46,5,5,0,0,0-3.32-3.59v-1.71a2.09,2.09,0,0,0,.17-.37,3.09,3.09,0,0,0,.22-.87,3.28,3.28,0,0,0-.39-1.83h0v-2.4a2.3,2.3,0,0,0,.77.81,2.24,2.24,0,0,0,1.69.31h0a4.38,4.38,0,0,0-1.74,3.12,4.65,4.65,0,0,0,.2,2,4.94,4.94,0,0,0,4.21,3.23,5.75,5.75,0,0,0,2.36-.35.89.89,0,0,0-.08.17,2.36,2.36,0,0,0,1.22,3A2.19,2.19,0,0,0,310.26,222.91Z"/><path class="cls-1" d="M298.72,36.22v-2.4a3.28,3.28,0,0,0,.39-1.83,3.07,3.07,0,0,0-.22-.88,4,4,0,0,0-.17-.37V29A5,5,0,0,0,302,25.45,6.92,6.92,0,0,0,302,22a2.16,2.16,0,0,0,2,.17,2.35,2.35,0,0,0,1.22-3,2.21,2.21,0,0,0-2.92-1.25A2.28,2.28,0,0,0,301,19.33l-.09-.22a18.17,18.17,0,0,0-2.3-3.85,12.35,12.35,0,0,1,11,3.9,13.38,13.38,0,0,1,2.73,12.28,19.7,19.7,0,0,0-2.61-2.31c-.35-.26-.71-.52-1.08-.76a2.79,2.79,0,0,0,.47-.14,2.35,2.35,0,0,0,1.21-3,2.22,2.22,0,0,0-2.91-1.26,2.37,2.37,0,0,0-1.22,3,.8.8,0,0,0,.08.16,5.91,5.91,0,0,0-2.36-.34A4.91,4.91,0,0,0,299.64,30a4.63,4.63,0,0,0-.2,2,4.4,4.4,0,0,0,1.74,3.12,2.22,2.22,0,0,0-.45,0,2.27,2.27,0,0,0-1.24.36A2.36,2.36,0,0,0,298.72,36.22Z"/><path class="cls-1" d="M298.89,31.11a3.07,3.07,0,0,1,.22.88,3.28,3.28,0,0,1-.39,1.83,3,3,0,0,1-1.43,1.31,2.94,2.94,0,0,1-3.88-1.68,3,3,0,0,1-.23-1.17A3.11,3.11,0,0,1,295,29.44a2.93,2.93,0,0,1,3.7,1.3A4,4,0,0,1,298.89,31.11Z"/><path class="cls-1" d="M298.89,217a2.09,2.09,0,0,1-.17.37,2.92,2.92,0,0,1-3.7,1.31,3.12,3.12,0,0,1-1.61-4,3,3,0,0,1,3.88-1.67,3.07,3.07,0,0,1,1.43,1.3h0a3.28,3.28,0,0,1,.39,1.83A3.09,3.09,0,0,1,298.89,217Z"/><path class="cls-1" d="M295.52,43.51a4.93,4.93,0,0,0,2.79-3.17,4.09,4.09,0,0,0,.15-1,3,3,0,0,0,0-.42,2.8,2.8,0,0,0,.27.58v2.68a3.54,3.54,0,0,0-.71,2.13v.12a4,4,0,0,0,.71,2.09v.9a2.67,2.67,0,0,0-1.64.6,3.57,3.57,0,0,0-1.21,2.63A4.87,4.87,0,0,0,298.72,55V193.09a5,5,0,0,0-2.79,3.59,3.29,3.29,0,0,0-.06.77,3.57,3.57,0,0,0,1.21,2.63,2.72,2.72,0,0,0,1.64.59v.9h0a4,4,0,0,0-.71,2.09,3.55,3.55,0,0,0,.71,2.25v2.68a3.06,3.06,0,0,0-.27.58,3,3,0,0,0,0-.42,4.09,4.09,0,0,0-.15-1,4.91,4.91,0,0,0-2.79-3.17c-2.08-.84-5.18.2-7.59,2.82V40.68a8.76,8.76,0,0,0,6,3.11A4.15,4.15,0,0,0,295.52,43.51Z"/><path class="cls-1" d="M298.45,38.93a3,3,0,0,1,0,.42,4.09,4.09,0,0,1-.15,1l-2.63-.47a1.89,1.89,0,0,1-2.44-1.26s0,0,0,0A2.33,2.33,0,0,1,294.48,36a2.64,2.64,0,0,1,2.87.51,3.54,3.54,0,0,1,.92,1.48v0A3.4,3.4,0,0,1,298.45,38.93Z"/><path class="cls-1" d="M289.34,214h0a1.41,1.41,0,0,1,.36-.24,2.2,2.2,0,0,1,2.7.87,2.44,2.44,0,0,1,.38,1.24,2.91,2.91,0,0,1-.44,1.77,3.4,3.4,0,0,1-1.56,1.32,3.84,3.84,0,0,1-.94.25h-.05a4.63,4.63,0,0,1-4.42-2.4,6.43,6.43,0,0,1-.05-5,12.26,12.26,0,0,1,2.19-3.89c.14-.17.27-.33.41-.48,2.41-2.62,5.51-3.66,7.59-2.82a4.91,4.91,0,0,1,2.79,3.17l-2.63.47a1.88,1.88,0,0,0-2.44,1.26s0,0,0,0a3.74,3.74,0,0,0-2.94,1.21A4,4,0,0,0,289.34,214Z"/><path class="cls-1" d="M298.27,210.12h0a3.54,3.54,0,0,1-.92,1.48,2.66,2.66,0,0,1-2.87.51,2.34,2.34,0,0,1-1.25-2.59s0,0,0,0a1.88,1.88,0,0,1,2.44-1.26l2.63-.47a4.09,4.09,0,0,1,.15,1,3,3,0,0,1,0,.42A3.33,3.33,0,0,1,298.27,210.12Z"/><path class="cls-1" d="M298.22,219l.5.11a5,5,0,0,1,3.32,3.59,6.88,6.88,0,0,1-.09,3.46,15.36,15.36,0,0,1-.69,2l-2.72-.19a2,2,0,0,0-.33-1.71l0,0a1.83,1.83,0,0,1-.69.48,2.59,2.59,0,0,1-2.29-.25,4,4,0,0,1-1.81-3.91h0a2.11,2.11,0,0,0,.28-1.07h0A4.33,4.33,0,0,1,298.22,219Z"/><path class="cls-1" d="M298.19,21.9l0,0a2,2,0,0,0,.32-1.75l2.73-.14a15.75,15.75,0,0,1,.69,2,6.92,6.92,0,0,1,.09,3.47A5,5,0,0,1,298.72,29a4.54,4.54,0,0,1-.5.12,4.32,4.32,0,0,1-4.55-2.5,2.15,2.15,0,0,0-.28-1.08h0a4.06,4.06,0,0,1,1.81-3.91,2.69,2.69,0,0,1,2.29-.25A2,2,0,0,1,298.19,21.9Z"/><path class="cls-1" d="M291.62,24.61a5.61,5.61,0,0,1,1.84-4.76,3.92,3.92,0,0,1,.32-.25h4.53a2.07,2.07,0,0,1-.1,2.27l0,0a2,2,0,0,0-.69-.49,2.69,2.69,0,0,0-2.29.25,4.06,4.06,0,0,0-1.81,3.91h0l-.1-.15s0,0,0,0A2,2,0,0,0,291.62,24.61Z"/><path class="cls-1" d="M290.79,219a2.74,2.74,0,0,1,2.28.83,2.52,2.52,0,0,1,.6,1.67h0a2.11,2.11,0,0,1-.28,1.07l0,.08a.67.67,0,0,0-.07.11,2,2,0,0,1-1.66.77,1.57,1.57,0,0,1-1.06-.43L288,222.9a2.76,2.76,0,0,0-.2-1.21,3.9,3.9,0,0,1,2-2.48h0A3.84,3.84,0,0,0,290.79,219Z"/><path class="cls-1" d="M290.78,29.16a3.3,3.3,0,0,1,1.57,1.31,3,3,0,0,1,.44,1.79,2.44,2.44,0,0,1-.38,1.23,2.2,2.2,0,0,1-2.7.87,2.25,2.25,0,0,1-.36-.24h0a4,4,0,0,0,1,3.24,3.77,3.77,0,0,0,2.94,1.21s0,0,0,0a1.89,1.89,0,0,0,2.44,1.26l2.63.47a4.93,4.93,0,0,1-2.79,3.17,4.15,4.15,0,0,1-1.55.28,8.76,8.76,0,0,1-6-3.11c-.14-.15-.27-.31-.41-.47a12.21,12.21,0,0,1-2.21-4,6.36,6.36,0,0,1,.07-4.94,4.6,4.6,0,0,1,4.42-2.4h.05A3.28,3.28,0,0,1,290.78,29.16Z"/><path class="cls-1" d="M293.07,219.78a2.74,2.74,0,0,0-2.28-.83,3.4,3.4,0,0,0,1.56-1.32,2.91,2.91,0,0,0,.44-1.77,2.44,2.44,0,0,0-.38-1.24,2.2,2.2,0,0,0-2.7-.87,1.41,1.41,0,0,0-.36.24h0a4,4,0,0,1,1-3.24,3.74,3.74,0,0,1,2.94-1.21,2.34,2.34,0,0,0,1.25,2.59,2.66,2.66,0,0,0,2.87-.51,3.54,3.54,0,0,0,.92-1.48,3.11,3.11,0,0,0,.45,1.74v2.4a3.07,3.07,0,0,0-1.43-1.3,3,3,0,0,0-3.88,1.67,3.12,3.12,0,0,0,1.61,4,2.92,2.92,0,0,0,3.7-1.31v1.71l-.5-.11a4.33,4.33,0,0,0-4.55,2.49A2.52,2.52,0,0,0,293.07,219.78Z"/><path class="cls-1" d="M290.47,228.42a9.23,9.23,0,0,0,2.24,1.37.75.75,0,0,1,.36,1.08H290a6.94,6.94,0,0,1-3-2c-.14-.16-.27-.32-.4-.49h3.84Z"/><path class="cls-2" d="M287.93,40.68V207.42c-.14.15-.27.31-.41.48a12.26,12.26,0,0,0-2.19,3.89H158.43a12.3,12.3,0,0,0-2.2-3.89,7.88,7.88,0,0,0-.72-.8V41a7.88,7.88,0,0,0,.72-.8,12.24,12.24,0,0,0,2.22-4H285.31a12.21,12.21,0,0,0,2.21,4C287.66,40.37,287.79,40.53,287.93,40.68Z"/><path class="cls-1" d="M290.56,19.61a7.89,7.89,0,0,0-1.73,1.91,7.22,7.22,0,0,0-1.06,2.54,2.32,2.32,0,0,0-1-1.13,2,2,0,0,0-1-.24,3.16,3.16,0,0,1,0-1,5.13,5.13,0,0,1,.94-2.07h3.87Z"/><path class="cls-1" d="M283.91,15.47l.08,2.59a6.68,6.68,0,0,0-2.93,1.24c-.13.09-.25.2-.38.31A4.91,4.91,0,0,0,279,22.52a3.73,3.73,0,0,0,.18,1.69,1.88,1.88,0,0,0-1.45,2.16l-2.8.7a5.49,5.49,0,0,1-.66-1.65,4.55,4.55,0,0,1-.1-.61,7.62,7.62,0,0,1,1.6-5.2,6.12,6.12,0,0,1,.45-.56,9.77,9.77,0,0,1,2.17-1.89h0a7.46,7.46,0,0,1,1.06-.61A10.23,10.23,0,0,1,283.91,15.47Z"/><path class="cls-1" d="M284,230.05l-.08,2.59a10.23,10.23,0,0,1-4.44-1.08,9.32,9.32,0,0,1-1.18-.69h0a9.52,9.52,0,0,1-2-1.81c-.18-.21-.35-.42-.51-.64a7.63,7.63,0,0,1-1.54-5.13,4,4,0,0,1,.12-.68A5.61,5.61,0,0,1,275,221l2.77.74a1.87,1.87,0,0,0,1.45,2.16,3.77,3.77,0,0,0-.18,1.7,4.83,4.83,0,0,0,1.58,2.83,5.71,5.71,0,0,0,.47.39A6.8,6.8,0,0,0,284,230.05Z"/><path class="cls-1" d="M279.19,223.89a1.87,1.87,0,0,1-1.45-2.16L275,221a4.33,4.33,0,0,1,3-2.11,3.25,3.25,0,0,1,2.71.75,2.76,2.76,0,0,1,.82,2.72,1,1,0,0,1,0,.16,2.12,2.12,0,0,1-2.16,1.39Z"/><path class="cls-1" d="M279.25,24.21a2.1,2.1,0,0,1,2.17,1.43.56.56,0,0,1,0,.12,2.76,2.76,0,0,1-.82,2.72,3.29,3.29,0,0,1-2.71.75,4.36,4.36,0,0,1-3-2.16l2.8-.7a1.88,1.88,0,0,1,1.45-2.16Z"/><path class="cls-1" d="M265.63,19.61h10.15a7.62,7.62,0,0,0-1.6,5.2,4.55,4.55,0,0,0,.1.61h-7.61c0-1.79-.47-3.22-1-3.22Z"/><path class="cls-1" d="M290.56,19.61a9.23,9.23,0,0,1,2.15-1.29.76.76,0,0,0,.32-1.16.65.65,0,0,0-.51-.28,6.79,6.79,0,0,0-1,0,5.91,5.91,0,0,0-1.25.26h0a7,7,0,0,0-3.22,2c-.11.13-.23.26-.34.4a5.13,5.13,0,0,0-.94,2.07,3.16,3.16,0,0,0,0,1,2,2,0,0,1,1,.24,2.32,2.32,0,0,1,1,1.13,7.22,7.22,0,0,1,1.06-2.54A7.89,7.89,0,0,1,290.56,19.61Zm-16.83-13v.06a4.26,4.26,0,0,0,2,3.68,8.59,8.59,0,0,0,4.09,1.18c3,.25,6.09-.2,9.13-.13s6.24.7,8.55,2.75a10,10,0,0,1,1.06,1.11,18.17,18.17,0,0,1,2.3,3.85l.09.22c.1.21.2.42.29.65l-2.73.14a2,2,0,0,0-.22-.52,1.9,1.9,0,0,0-1.69-1,5.22,5.22,0,0,0-2.84,1,3.92,3.92,0,0,0-.32.25,5.61,5.61,0,0,0-1.84,4.76,2,2,0,0,1,1.66.78s0,0,0,0l.1.15a2.15,2.15,0,0,1,.28,1.08,2.52,2.52,0,0,1-.6,1.67,2.72,2.72,0,0,1-2.29.84,3.28,3.28,0,0,0-.93-.25h0a3.92,3.92,0,0,1-2-2.49,1.21,1.21,0,0,1-.09.2,3.23,3.23,0,0,1-3.53,1.58,4.2,4.2,0,0,1-2.79-2.57l-.09-.24a6.06,6.06,0,0,1,.29-4.19,8,8,0,0,1,.93-1.59A10,10,0,0,1,284,18.06l-.08-2.59a10.23,10.23,0,0,0-4.44,1.08,13.72,13.72,0,0,1-3.32-.34,10.11,10.11,0,0,1-4-2,9.13,9.13,0,0,1-2.3-2.75A8.28,8.28,0,0,1,269,6.66,7.15,7.15,0,0,1,269.83,4c.06-.12.14-.23.21-.35a6,6,0,0,1,7-2.4A5,5,0,0,1,279.81,4a4.26,4.26,0,0,1-.49,3.89,3.31,3.31,0,0,1-3.5,1.27A3.07,3.07,0,0,1,273.73,6.61Z"/><path class="cls-1" d="M301,228.78l-.09.22a18.42,18.42,0,0,1-2.3,3.85,10,10,0,0,1-1.06,1.11c-2.31,2-5.51,2.69-8.55,2.75s-6.09-.38-9.13-.13a8.48,8.48,0,0,0-4.09,1.18,4.25,4.25,0,0,0-2,3.68v.06a3.06,3.06,0,0,1,2.09-2.56,3.33,3.33,0,0,1,3.5,1.26,4.26,4.26,0,0,1,.49,3.89,5,5,0,0,1-2.74,2.79,6,6,0,0,1-7-2.41,3.58,3.58,0,0,1-.25-.42,7.35,7.35,0,0,1-.83-2.68,8.35,8.35,0,0,1,.89-4.76,9,9,0,0,1,2.4-2.83h0a10.12,10.12,0,0,1,3.89-1.88,13.72,13.72,0,0,1,3.32-.34,10.23,10.23,0,0,0,4.44,1.08l.08-2.59a10,10,0,0,1-1.49-1.63,7.66,7.66,0,0,1-.87-1.52,6,6,0,0,1-.29-4.17,1,1,0,0,1,.08-.21,4.17,4.17,0,0,1,2.8-2.61,3.23,3.23,0,0,1,3.53,1.58,1.21,1.21,0,0,1,.09.2,2.76,2.76,0,0,1,.2,1.21l2.52.16a1.57,1.57,0,0,0,1.06.43,5.63,5.63,0,0,0,1.84,4.77l.21.16a5.07,5.07,0,0,0,2.95,1,1.9,1.9,0,0,0,1.74-1,2.78,2.78,0,0,0,.18-.48l2.72.19C301.17,228.36,301.07,228.57,301,228.78Zm-8.26,1a9.23,9.23,0,0,1-2.24-1.37h0a8.62,8.62,0,0,1-1.63-1.83,7.25,7.25,0,0,1-1.06-2.53,2.43,2.43,0,0,1-1,1.12,2,2,0,0,1-1,.25,3.06,3.06,0,0,0,0,1,5,5,0,0,0,.88,2c.13.17.26.33.4.49a6.94,6.94,0,0,0,3,2,6.41,6.41,0,0,0,1.49.33,5.66,5.66,0,0,0,1,0,.62.62,0,0,0,.55-.35A.75.75,0,0,0,292.71,229.79Z"/><path class="cls-1" d="M266.67,222.61h7.63a4,4,0,0,0-.12.68,7.63,7.63,0,0,0,1.54,5.13H265.63v-2.3c.58,0,1-1.48,1-3.31Z"/><path class="cls-1" d="M171.52,233.78H272.25a9,9,0,0,0-2.4,2.83,8.35,8.35,0,0,0-.89,4.76H174.8a8.27,8.27,0,0,0-.89-4.76A9,9,0,0,0,171.52,233.78Z"/><path class="cls-1" d="M174.79,6.66H269a8.28,8.28,0,0,0,.88,4.84,9.13,9.13,0,0,0,2.3,2.75H171.61a9,9,0,0,0,2.3-2.75A8.28,8.28,0,0,0,174.79,6.66Z"/><path class="cls-1" d="M265.63,226.12v2.3h-5.91v-2.3c.57,0,1-1.48,1-3.31a1.41,1.41,0,0,0,0-.2h3.85a1.41,1.41,0,0,0,0,.2C264.59,224.64,265.06,226.12,265.63,226.12Z"/><path class="cls-1" d="M265.63,19.61V22.2c-.56,0-1,1.43-1,3.22h-3.83c0-1.79-.48-3.22-1-3.22V19.61Z"/><path class="cls-1" d="M259.72,226.12v2.3h-5.93v-2.3c.58,0,1-1.48,1-3.31v-.2h3.85v.2C258.68,224.64,259.14,226.12,259.72,226.12Z"/><path class="cls-1" d="M259.72,19.61V22.2c-.57,0-1,1.43-1,3.22h-3.85c0-1.79-.46-3.22-1-3.22V19.61Z"/><path class="cls-1" d="M253.79,226.12v2.3h-5.91v-2.3c.57,0,1-1.48,1-3.31v-.2h3.84v.2C252.76,224.64,253.22,226.12,253.79,226.12Z"/><path class="cls-1" d="M253.79,19.61V22.2c-.56,0-1,1.43-1,3.22h-3.84c0-1.79-.48-3.22-1-3.22V19.61Z"/><path class="cls-1" d="M247.88,226.12v2.3H242v-2.3c.58,0,1-1.48,1-3.31a1.41,1.41,0,0,0,0-.2h3.85a1.41,1.41,0,0,0,0,.2C246.84,224.64,247.31,226.12,247.88,226.12Z"/><path class="cls-1" d="M247.88,19.61V22.2c-.57,0-1,1.43-1,3.22H243c0-1.79-.48-3.22-1-3.22V19.61Z"/><path class="cls-1" d="M242,226.12v2.3h-5.91v-2.3c.57,0,1-1.48,1-3.31v-.2h3.84v.2C240.92,224.64,241.39,226.12,242,226.12Z"/><path class="cls-1" d="M242,19.61V22.2c-.56,0-1,1.43-1,3.22h-3.84c0-1.79-.48-3.22-1-3.22V19.61Z"/><path class="cls-1" d="M236.05,226.12v2.3h-5.92v-2.3c.57,0,1-1.48,1-3.31v-.2H235a1.41,1.41,0,0,0,0,.2C235,224.64,235.47,226.12,236.05,226.12Z"/><path class="cls-1" d="M236.05,19.61V22.2c-.57,0-1,1.43-1.05,3.22h-3.83c0-1.79-.48-3.22-1-3.22V19.61Z"/><path class="cls-1" d="M230.13,226.12v2.3h-5.92v-2.3c.58,0,1-1.48,1-3.31v-.2h3.84v.2C229.09,224.64,229.56,226.12,230.13,226.12Z"/><path class="cls-1" d="M230.13,19.61V22.2c-.56,0-1,1.43-1,3.22h-3.84c0-1.79-.47-3.22-1-3.22V19.61Z"/><path class="cls-1" d="M224.21,226.12v2.3H218.3v-2.3c.57,0,1-1.48,1-3.31v-.2h3.84a1.41,1.41,0,0,0,0,.2C223.17,224.64,223.64,226.12,224.21,226.12Z"/><path class="cls-1" d="M224.21,19.61V22.2c-.56,0-1,1.43-1,3.22h-3.83c0-1.79-.48-3.22-1-3.22V19.61Z"/><path class="cls-1" d="M218.3,226.12v2.3h-5.92v-2.3c.58,0,1-1.48,1-3.31a1.41,1.41,0,0,0,0-.2h3.86a1.41,1.41,0,0,0,0,.2C217.26,224.64,217.72,226.12,218.3,226.12Z"/><path class="cls-1" d="M218.3,19.61V22.2c-.57,0-1,1.43-1,3.22h-3.84c0-1.79-.47-3.22-1-3.22V19.61Z"/><path class="cls-1" d="M212.38,226.12v2.3h-5.92v-2.3c.57,0,1-1.48,1-3.31v-.2h3.84v.2C211.34,224.64,211.81,226.12,212.38,226.12Z"/><path class="cls-1" d="M212.38,19.61V22.2c-.56,0-1,1.43-1,3.22H207.5c0-1.79-.48-3.22-1-3.22V19.61Z"/><path class="cls-1" d="M206.46,226.12v2.3h-5.92v-2.3c.58,0,1-1.48,1-3.31a1.41,1.41,0,0,0,0-.2h3.86a1.41,1.41,0,0,0,0,.2C205.42,224.64,205.88,226.12,206.46,226.12Z"/><path class="cls-1" d="M206.46,19.61V22.2c-.57,0-1,1.43-1,3.22h-3.84c0-1.79-.47-3.22-1-3.22V19.61Z"/><path class="cls-1" d="M200.54,226.12v2.3h-5.91v-2.3c.57,0,1-1.48,1-3.31a1.41,1.41,0,0,0,0-.2h3.85a1.41,1.41,0,0,0,0,.2C199.5,224.64,200,226.12,200.54,226.12Z"/><path class="cls-1" d="M200.54,19.61V22.2c-.56,0-1,1.43-1,3.22h-3.83c0-1.79-.48-3.22-1-3.22V19.61Z"/><path class="cls-1" d="M194.63,226.12v2.3H188.7v-2.3c.59,0,1.05-1.48,1.05-3.31v-.2h3.84v.2C193.59,224.64,194.05,226.12,194.63,226.12Z"/><path class="cls-1" d="M194.63,19.61V22.2c-.57,0-1,1.43-1,3.22h-3.84c0-1.79-.48-3.22-1.05-3.22V19.61Z"/><path class="cls-1" d="M188.7,226.12v2.3h-5.9v-2.3c.57,0,1-1.48,1-3.31v-.2h3.85a1.41,1.41,0,0,0,0,.2C187.67,224.64,188.14,226.12,188.7,226.12Z"/><path class="cls-1" d="M188.7,19.61V22.2c-.55,0-1,1.43-1,3.22h-3.84c0-1.79-.47-3.22-1-3.22V19.61Z"/><path class="cls-1" d="M182.8,226.12v2.3h-5.92v-2.3c.57,0,1-1.48,1-3.31v-.2h3.84v.2C181.76,224.64,182.23,226.12,182.8,226.12Z"/><path class="cls-1" d="M182.8,19.61V22.2c-.56,0-1,1.43-1,3.22h-3.84c0-1.79-.48-3.22-1-3.22V19.61Z"/><path class="cls-1" d="M176.88,226.12v2.3H168a7.68,7.68,0,0,0,1.54-5.13,4,4,0,0,0-.12-.68h6.38a1.41,1.41,0,0,0,0,.2C175.83,224.64,176.3,226.12,176.88,226.12Z"/><path class="cls-1" d="M175.83,25.42h-6.35c0-.21.08-.41.1-.61a7.67,7.67,0,0,0-1.6-5.2h8.9V22.2C176.31,22.2,175.85,23.63,175.83,25.42Z"/><path class="cls-1" d="M167.38,219.5a5.24,5.24,0,0,1,2.08,3.11,4,4,0,0,1,.12.68,7.68,7.68,0,0,1-1.54,5.13c-.15.22-.33.43-.5.64a9.81,9.81,0,0,1-2.06,1.81h0a8.55,8.55,0,0,1-1.17.69,10.21,10.21,0,0,1-4.46,1.08l-.08-2.59a6.65,6.65,0,0,0,2.93-1.24,4.22,4.22,0,0,0,.47-.39h0a4.76,4.76,0,0,0,1.57-2.83,3.64,3.64,0,0,0-.18-1.7,1.87,1.87,0,0,0,1.46-2.16Z"/><path class="cls-1" d="M276.23,229.06a9.52,9.52,0,0,0,2,1.81H165.48a9.81,9.81,0,0,0,2.06-1.81c.17-.21.35-.42.5-.64H275.72C275.88,228.64,276.05,228.85,276.23,229.06Z"/><path class="cls-1" d="M272.25,233.78H171.51a10.09,10.09,0,0,0-3.9-1.88,13.59,13.59,0,0,0-3.31-.34,8.55,8.55,0,0,0,1.17-.69H278.29a9.32,9.32,0,0,0,1.18.69,13.72,13.72,0,0,0-3.32.34,10.12,10.12,0,0,0-3.89,1.88Z"/><path class="cls-1" d="M276.15,16.21a13.72,13.72,0,0,0,3.32.34,7.46,7.46,0,0,0-1.06.61h-113a7.46,7.46,0,0,0-1.06-.61,13.59,13.59,0,0,0,3.31-.34,10.07,10.07,0,0,0,4-2H272.15A10.11,10.11,0,0,0,276.15,16.21Z"/><path class="cls-1" d="M164.56,24.21A1.88,1.88,0,0,1,166,26.37l1.38,2.23a3.85,3.85,0,0,1-1.57.63,3.31,3.31,0,0,1-2.72-.75,2.8,2.8,0,0,1-.82-2.72,3.45,3.45,0,0,1,.14-.34,2.09,2.09,0,0,1,2.08-1.21Z"/><path class="cls-1" d="M164.51,223.9a2.12,2.12,0,0,1-2.16-1.39l-.06-.16a2.81,2.81,0,0,1,.82-2.72,3.28,3.28,0,0,1,2.72-.75,3.81,3.81,0,0,1,1.55.62L166,221.73a1.87,1.87,0,0,1-1.46,2.16Z"/><path class="cls-1" d="M163.16,228.42a4.22,4.22,0,0,1-.47.39,6.65,6.65,0,0,1-2.93,1.24,10.08,10.08,0,0,0,1.5-1.63Z"/><path class="cls-1" d="M161.26,228.42a8.84,8.84,0,0,0,.88-1.52,6.06,6.06,0,0,0,.28-4.17c0-.08,0-.15-.08-.21h0a2.12,2.12,0,0,0,2.16,1.39h.05a3.64,3.64,0,0,1,.18,1.7,4.76,4.76,0,0,1-1.57,2.83h-1.91Z"/><path class="cls-1" d="M159.76,18.06l.08-2.59a10.66,10.66,0,0,1,4.46,1.08,7.46,7.46,0,0,1,1.06.61h0a10.24,10.24,0,0,1,2.17,1.89c.15.18.3.36.44.56a7.67,7.67,0,0,1,1.6,5.2c0,.2-.06.4-.1.61a5.31,5.31,0,0,1-2.08,3.18L166,26.37a1.88,1.88,0,0,0-1.46-2.16,3.6,3.6,0,0,0,.18-1.69,4.8,4.8,0,0,0-1.66-2.91,3.79,3.79,0,0,0-.39-.31A6.54,6.54,0,0,0,159.76,18.06Z"/><path class="cls-1" d="M158.91,33.59a8.7,8.7,0,0,1-.46,2.65,12.24,12.24,0,0,1-2.22,4,7.88,7.88,0,0,1-.72.8c-2.35,2.38-5.29,3.3-7.26,2.5A4.89,4.89,0,0,1,145.38,40l2.7-.15a1.89,1.89,0,0,0,2.44-1.26s0,0,0,0a3.77,3.77,0,0,0,2.94-1.21,4,4,0,0,0,.94-3.24,2,2,0,0,0,.47-2.45l1.29-2.41a4.85,4.85,0,0,1,2.21,2A4.67,4.67,0,0,1,158.91,33.59Z"/><path class="cls-1" d="M158.43,211.79a6.43,6.43,0,0,1-.05,5,4.87,4.87,0,0,1-2.22,2l-1.28-2.41a2,2,0,0,0-.47-2.45,4,4,0,0,0-.94-3.24,3.74,3.74,0,0,0-2.94-1.21.08.08,0,0,1,0,0,1.88,1.88,0,0,0-2.44-1.26l-2.7-.15a4.87,4.87,0,0,1,2.87-3.49,4.07,4.07,0,0,1,1.55-.28,8.47,8.47,0,0,1,5.71,2.78,7.88,7.88,0,0,1,.72.8A12.3,12.3,0,0,1,158.43,211.79Z"/><path class="cls-1" d="M154,28.9a4.06,4.06,0,0,1,2.2.36l-1.29,2.41a2,2,0,0,1-.47,2.45,1.88,1.88,0,0,1-.36.24,2.2,2.2,0,0,1-2.7-.87,2.66,2.66,0,0,1-.39-1.23,3.05,3.05,0,0,1,.45-1.79A3.35,3.35,0,0,1,153,29.16a3.5,3.5,0,0,1,.92-.25H154Z"/><path class="cls-1" d="M289.8,219.21h0a3.9,3.9,0,0,0-2,2.48,1.21,1.21,0,0,0-.09-.2,3.23,3.23,0,0,0-3.53-1.58,4.17,4.17,0,0,0-2.8,2.61h0a1,1,0,0,0,0-.16,2.76,2.76,0,0,0-.82-2.72,3.25,3.25,0,0,0-2.71-.75,4.33,4.33,0,0,0-3,2.11,5.61,5.61,0,0,0-.67,1.62H169.46a5.24,5.24,0,0,0-2.08-3.11,3.81,3.81,0,0,0-1.55-.62,3.28,3.28,0,0,0-2.72.75,2.81,2.81,0,0,0-.82,2.72l.06.16h0a4.15,4.15,0,0,0-2.8-2.61,3.22,3.22,0,0,0-3.53,1.58l-.1.2a3.92,3.92,0,0,0-2-2.49H154a4.14,4.14,0,0,0,2.19-.36,4.87,4.87,0,0,0,2.22-2,6.43,6.43,0,0,0,.05-5h126.9a6.43,6.43,0,0,0,.05,5A4.63,4.63,0,0,0,289.8,219.21Z"/><path class="cls-1" d="M162.29,25.76a2.8,2.8,0,0,0,.82,2.72,3.31,3.31,0,0,0,2.72.75,3.85,3.85,0,0,0,1.57-.63,5.31,5.31,0,0,0,2.08-3.18h104.8a5.49,5.49,0,0,0,.66,1.65,4.36,4.36,0,0,0,3,2.16,3.29,3.29,0,0,0,2.71-.75,2.76,2.76,0,0,0,.82-2.72.56.56,0,0,0,0-.12h0a4.2,4.2,0,0,0,2.79,2.57,3.23,3.23,0,0,0,3.53-1.58,1.21,1.21,0,0,0,.09-.2,3.92,3.92,0,0,0,2,2.49h-.05a4.6,4.6,0,0,0-4.42,2.4,6.36,6.36,0,0,0-.07,4.94H158.45a8.7,8.7,0,0,0,.46-2.65,4.67,4.67,0,0,0-.53-2.29,4.85,4.85,0,0,0-2.21-2,4.06,4.06,0,0,0-2.2-.36h-.06a3.91,3.91,0,0,0,2-2.49l.1.2a3.22,3.22,0,0,0,3.53,1.58,4.23,4.23,0,0,0,2.87-2.78h0A3.45,3.45,0,0,0,162.29,25.76Z"/><path class="cls-1" d="M152.14,223.49a2,2,0,0,1-1.66-.77.6.6,0,0,1-.06-.11.35.35,0,0,0,0-.08,2.11,2.11,0,0,1-.28-1.07h0a2.48,2.48,0,0,1,.61-1.67A2.72,2.72,0,0,1,153,219h0a4,4,0,0,0,.94.25,3.92,3.92,0,0,1,2,2.49,2.9,2.9,0,0,0-.19,1.21l-2.51.16A1.58,1.58,0,0,1,152.14,223.49Z"/><path class="cls-1" d="M155.72,25.2a2.8,2.8,0,0,0,.19,1.22,3.91,3.91,0,0,1-2,2.49h0a3.5,3.5,0,0,0-.92.25,2.71,2.71,0,0,1-2.28-.84,2.48,2.48,0,0,1-.61-1.67,2.15,2.15,0,0,1,.28-1.08.6.6,0,0,0,.09-.15l0,0a2,2,0,0,1,1.66-.78,1.67,1.67,0,0,1,1.07.43Z"/><path class="cls-1" d="M151.35,214.62a2.2,2.2,0,0,1,2.7-.87,1.26,1.26,0,0,1,.36.24,2,2,0,0,1,.47,2.45l1.28,2.41a4.14,4.14,0,0,1-2.19.36h-.05A4,4,0,0,1,153,219h0a3.39,3.39,0,0,1-1.56-1.32,3,3,0,0,1-.45-1.77A2.66,2.66,0,0,1,151.35,214.62Z"/><path class="cls-1" d="M150.57,32.28a3,3,0,0,1-.22,1.17A3,3,0,0,1,148,35.33a2.9,2.9,0,0,1-1.5-.2A3.1,3.1,0,0,1,144.73,33a3.3,3.3,0,0,1,0-1.5v0a4,4,0,0,1,.14-.41A3,3,0,0,1,147,29.28a2.88,2.88,0,0,1,1.78.16A3.09,3.09,0,0,1,150.57,32.28Z"/><path class="cls-1" d="M145.49,38a3.34,3.34,0,0,1,.93-1.47,2.84,2.84,0,0,1,1.6-.73,2.43,2.43,0,0,1,1.27.22,2.35,2.35,0,0,1,1.3,2.09,2.07,2.07,0,0,1-.06.5s0,0,0,0a1.89,1.89,0,0,1-2.44,1.26l-2.7.15a3.72,3.72,0,0,1-.08-.67,3.12,3.12,0,0,1,0-.43A4.51,4.51,0,0,1,145.49,38Z"/><path class="cls-1" d="M150.53,209.54a2.33,2.33,0,0,1-1.24,2.59,2.41,2.41,0,0,1-1.27.21,2.82,2.82,0,0,1-1.6-.72,3.37,3.37,0,0,1-.93-1.48h0a4.31,4.31,0,0,1-.18-.95,3,3,0,0,1,0-.42,3.72,3.72,0,0,1,.08-.67l2.7.15a1.88,1.88,0,0,1,2.44,1.26A.08.08,0,0,0,150.53,209.54Z"/><path class="cls-1" d="M148.74,218.67a3,3,0,0,1-1.78.15,3,3,0,0,1-2.09-1.83,2.83,2.83,0,0,1-.14-.41h0a3.3,3.3,0,0,1,0-1.5,3.08,3.08,0,0,1,1.75-2.09,2.91,2.91,0,0,1,1.5-.21,3,3,0,0,1,2.37,1.88,3.15,3.15,0,0,1-1.61,4Z"/><path class="cls-1" d="M146.68,200.08a2.64,2.64,0,0,1-2,.57,1.82,1.82,0,0,1-.78-.24.24.24,0,0,1-.11-.06,2.24,2.24,0,0,1-1-2.48s0,0,0,0a1.78,1.78,0,0,1,2.32-1.08l2.66.22a3.85,3.85,0,0,1,0,.48A3.54,3.54,0,0,1,146.68,200.08Z"/><path class="cls-1" d="M151,229.79a.74.74,0,0,0-.35,1.08.62.62,0,0,0,.55.35,5.66,5.66,0,0,0,1,0,6.3,6.3,0,0,0,1.49-.33,6.94,6.94,0,0,0,3-2c.14-.16.27-.32.4-.49a4.7,4.7,0,0,0,.88-2,3.06,3.06,0,0,0,0-1,2,2,0,0,1-1-.25,2.46,2.46,0,0,1-1-1.12,7.06,7.06,0,0,1-1.06,2.53,8.14,8.14,0,0,1-1.63,1.83h0A9,9,0,0,1,151,229.79Zm-5.63-1.37a1.89,1.89,0,0,0,1.74,1,5.06,5.06,0,0,0,2.94-1l.21-.16a5.63,5.63,0,0,0,1.84-4.77,1.58,1.58,0,0,0,1.07-.43l2.51-.16a2.9,2.9,0,0,1,.19-1.21l.1-.2a3.22,3.22,0,0,1,3.53-1.58,4.15,4.15,0,0,1,2.8,2.61c0,.06,0,.13.08.21a6.06,6.06,0,0,1-.28,4.17,8.84,8.84,0,0,1-.88,1.52,10.08,10.08,0,0,1-1.5,1.63l.08,2.59a10.21,10.21,0,0,0,4.46-1.08,13.59,13.59,0,0,1,3.31.34,10.09,10.09,0,0,1,3.9,1.88h0a9,9,0,0,1,2.39,2.83,8.27,8.27,0,0,1,.89,4.76,7.34,7.34,0,0,1-.82,2.68,3.74,3.74,0,0,1-.27.42,6,6,0,0,1-7,2.41,4.9,4.9,0,0,1-2.73-2.79,4.26,4.26,0,0,1,.48-3.89,3.32,3.32,0,0,1,3.51-1.26A3.11,3.11,0,0,1,170,241.5v-.06a4.26,4.26,0,0,0-2-3.68,8.44,8.44,0,0,0-4.08-1.18c-3-.25-6.09.19-9.14.13s-6.23-.71-8.54-2.75a10,10,0,0,1-1.06-1.11,18,18,0,0,1-2.29-3.85l-.1-.22,2.51-.59A1.63,1.63,0,0,0,145.41,228.42Z"/><path class="cls-1" d="M159.84,15.47l-.08,2.59a9.59,9.59,0,0,1,1.44,1.55,8.52,8.52,0,0,1,.94,1.59,6.12,6.12,0,0,1,.28,4.19,0,0,0,0,0,0,0,4.23,4.23,0,0,1-2.87,2.78A3.22,3.22,0,0,1,156,26.62l-.1-.2a2.8,2.8,0,0,1-.19-1.22L153.21,25a1.67,1.67,0,0,0-1.07-.43,5.61,5.61,0,0,0-1.84-4.76L150,19.6a5.27,5.27,0,0,0-2.84-1,1.91,1.91,0,0,0-1.7,1c0,.08-.08.16-.12.26l-2.54-.54c0-.08.07-.15.1-.22a17.72,17.72,0,0,1,2.29-3.85,10,10,0,0,1,1.06-1.11c2.31-2.05,5.5-2.69,8.54-2.75s6.09.38,9.14.13A8.55,8.55,0,0,0,168,10.35a4.28,4.28,0,0,0,2-3.68V6.61A3.12,3.12,0,0,1,168,9.17a3.31,3.31,0,0,1-3.51-1.27A4.26,4.26,0,0,1,164,4a4.88,4.88,0,0,1,2.73-2.78,6,6,0,0,1,7,2.4l.22.35a7.15,7.15,0,0,1,.86,2.68,8.28,8.28,0,0,1-.88,4.84,9,9,0,0,1-2.3,2.75h0a10.07,10.07,0,0,1-4,2,13.59,13.59,0,0,1-3.31.34A10.66,10.66,0,0,0,159.84,15.47ZM156,24.06a2.35,2.35,0,0,1,1-1.13,2,2,0,0,1,1-.24,3.16,3.16,0,0,0,0-1,4.87,4.87,0,0,0-.94-2.07c-.11-.14-.22-.27-.34-.4a7,7,0,0,0-3.23-2,6,6,0,0,0-1.25-.26,6.79,6.79,0,0,0-1,0,.61.61,0,0,0-.5.28.75.75,0,0,0,.3,1.16,9.15,9.15,0,0,1,2.17,1.29,8.28,8.28,0,0,1,1.72,1.91A7,7,0,0,1,156,24.06Z"/><path class="cls-1" d="M144.73,28.93a5.12,5.12,0,0,1-3-3.48,7,7,0,0,1,.11-3.47,14.76,14.76,0,0,1,1-2.65l2.54.54a2,2,0,0,0,.22,2l0,0a2.07,2.07,0,0,1,.69-.49,2.69,2.69,0,0,1,2.29.25,4.09,4.09,0,0,1,1.82,3.91,2.15,2.15,0,0,0-.28,1.08,4.27,4.27,0,0,1-3.16,2.47,4.05,4.05,0,0,1-1.39,0A4.88,4.88,0,0,1,144.73,28.93Z"/><path class="cls-1" d="M144.73,219.18v-2.6a2.83,2.83,0,0,0,.14.41,3,3,0,0,0,2.09,1.83,3,3,0,0,0,1.78-.15,3.15,3.15,0,0,0,1.61-4,3,3,0,0,0-2.37-1.88,2.91,2.91,0,0,0-1.5.21,3.08,3.08,0,0,0-1.75,2.09v-2.78a3,3,0,0,0,.76-2.15,3.37,3.37,0,0,0,.93,1.48,2.82,2.82,0,0,0,1.6.72,2.41,2.41,0,0,0,1.27-.21,2.33,2.33,0,0,0,1.24-2.59,3.74,3.74,0,0,1,2.94,1.21,4,4,0,0,1,.94,3.24,1.26,1.26,0,0,0-.36-.24,2.2,2.2,0,0,0-2.7.87,2.66,2.66,0,0,0-.39,1.24,3,3,0,0,0,.45,1.77A3.39,3.39,0,0,0,153,219a2.72,2.72,0,0,0-2.27.83,2.48,2.48,0,0,0-.61,1.67,4.29,4.29,0,0,0-4.55-2.49A4.88,4.88,0,0,0,144.73,219.18Z"/><path class="cls-1" d="M142.79,228.78a14.58,14.58,0,0,1-1-2.66,7,7,0,0,1-.11-3.46,5.09,5.09,0,0,1,3-3.48,4.88,4.88,0,0,1,.81-.22,4.29,4.29,0,0,1,4.55,2.49h0a2.11,2.11,0,0,0,.28,1.07,4.07,4.07,0,0,1-1.82,3.91,2.59,2.59,0,0,1-2.29.25,1.91,1.91,0,0,1-.69-.48l0,0a2,2,0,0,0-.25,2Z"/><path class="cls-1" d="M144.73,41.83V40a3.23,3.23,0,0,0,.58-1,3.12,3.12,0,0,0,0,.43,3.72,3.72,0,0,0,.08.67,4.89,4.89,0,0,0,2.87,3.49c2,.8,4.91-.12,7.26-2.5V207.1a8.47,8.47,0,0,0-5.71-2.78,4.07,4.07,0,0,0-1.55.28,4.87,4.87,0,0,0-2.87,3.49,3.72,3.72,0,0,0-.08.67,3,3,0,0,0,0,.42,3.47,3.47,0,0,0-.58-1v-1.87a3.57,3.57,0,0,0,1-2.61,4.06,4.06,0,0,0-1-2.5v-.51h0a2.64,2.64,0,0,0,2-.57,3.54,3.54,0,0,0,1.21-2.63,3.85,3.85,0,0,0,0-.48,5,5,0,0,0-3.14-4V55.15a4.92,4.92,0,0,0,3.16-4.49A3.54,3.54,0,0,0,146.68,48a2.65,2.65,0,0,0-2-.58v-.51a4.06,4.06,0,0,0,1-2.5A3.55,3.55,0,0,0,144.73,41.83Z"/><path class="cls-1" d="M144.37,192.84a6.88,6.88,0,0,0-5.13.62v-5.11h2.37c0,.59,1.39,1.06,3.12,1.08V193A2.17,2.17,0,0,0,144.37,192.84Z"/><path class="cls-1" d="M144.73,183.3v4c-1.73,0-3.12.49-3.12,1.07h-2.37v-6.12h2.37C141.61,182.81,143,183.29,144.73,183.3Z"/><path class="cls-1" d="M144.73,177.18v4c-1.73,0-3.12.5-3.12,1.08h-2.37v-6.12h2.37C141.61,176.69,143,177.16,144.73,177.18Z"/><path class="cls-1" d="M144.73,171.05v4c-1.73,0-3.12.5-3.12,1.09h-2.37V170h2.37C141.61,170.55,143,171,144.73,171.05Z"/><path class="cls-1" d="M144.73,164.92v4c-1.73,0-3.12.5-3.12,1.08h-2.37v-6.12h2.37C141.61,164.43,143,164.9,144.73,164.92Z"/><path class="cls-1" d="M144.73,158.8v4c-1.73,0-3.12.49-3.12,1.08h-2.37v-6.14h2.37C141.61,158.31,143,158.78,144.73,158.8Z"/><path class="cls-1" d="M144.73,152.66v4c-1.73,0-3.12.5-3.12,1.07h-2.37v-6.12h2.37C141.61,152.17,143,152.65,144.73,152.66Z"/><path class="cls-1" d="M144.73,146.54v4c-1.73,0-3.12.49-3.12,1.08h-2.37v-6.13h2.37C141.61,146.05,143,146.52,144.73,146.54Z"/><path class="cls-1" d="M144.73,140.4v4c-1.73,0-3.12.5-3.12,1.08h-2.37v-6.12h2.37C141.61,139.92,143,140.4,144.73,140.4Z"/><path class="cls-1" d="M144.73,134.29v4c-1.73,0-3.12.49-3.12,1.08h-2.37v-6.13h2.37C141.61,133.8,143,134.27,144.73,134.29Z"/><path class="cls-1" d="M144.73,128.16v4c-1.73,0-3.12.5-3.12,1.08h-2.37v-6.13h2.37C141.61,127.66,143,128.15,144.73,128.16Z"/><path class="cls-1" d="M144.73,122v4c-1.73,0-3.12.5-3.12,1.08h-2.37V121h2.37C141.61,121.54,143,122,144.73,122Z"/><path class="cls-1" d="M144.73,115.91v4c-1.73,0-3.12.5-3.12,1.08h-2.37v-6.12h2.37C141.61,115.41,143,115.89,144.73,115.91Z"/><path class="cls-1" d="M144.73,109.77v4c-1.73,0-3.12.49-3.12,1.08h-2.37v-6.14h2.37C141.61,109.29,143,109.76,144.73,109.77Z"/><path class="cls-1" d="M144.73,103.65v4c-1.73,0-3.12.48-3.12,1.06h-2.37v-6.12h2.37C141.61,103.15,143,103.64,144.73,103.65Z"/><path class="cls-1" d="M144.73,97.52v4c-1.73,0-3.12.48-3.12,1.07h-2.37V96.44h2.37C141.61,97,143,97.51,144.73,97.52Z"/><path class="cls-1" d="M144.73,91.4v4c-1.73,0-3.12.49-3.12,1.07h-2.37V90.32h2.37C141.61,90.9,143,91.38,144.73,91.4Z"/><path class="cls-1" d="M144.73,85.27v4c-1.73,0-3.12.49-3.12,1.08h-2.37V84.19h2.37C141.61,84.78,143,85.25,144.73,85.27Z"/><path class="cls-1" d="M144.73,79.14v4c-1.73,0-3.12.49-3.12,1.07h-2.37V78.06h2.37C141.61,78.64,143,79.13,144.73,79.14Z"/><path class="cls-1" d="M144.73,73v4c-1.73,0-3.12.5-3.12,1.08h-2.37V71.94h2.37C141.61,72.52,143,73,144.73,73Z"/><path class="cls-1" d="M144.73,66.89v4c-1.73,0-3.12.49-3.12,1.08h-2.37V65.81h2.37C141.61,66.39,143,66.87,144.73,66.89Z"/><path class="cls-1" d="M144.73,60.75v4c-1.73,0-3.12.5-3.12,1.08h-2.37V59.68h2.37C141.61,60.26,143,60.74,144.73,60.75Z"/><path class="cls-1" d="M144.73,55.15v3.46c-1.73,0-3.12.48-3.12,1.07h-2.37v-5a6.88,6.88,0,0,0,5.13.62C144.49,55.24,144.62,55.19,144.73,55.15Z"/><path class="cls-1" d="M141.59,35.58h0a2,2,0,0,1,1-.48,2.29,2.29,0,0,1,1.69.32,2.16,2.16,0,0,1,.46.39,3.11,3.11,0,0,1,.76,2.07V38a4.51,4.51,0,0,0-.18,1,3.23,3.23,0,0,1-.58,1,3.83,3.83,0,0,1-1.32,1.11,2.57,2.57,0,0,0-.55-.06,2.28,2.28,0,0,0-.45,0l-.8-2.49a1.72,1.72,0,0,1-.6-1,2.1,2.1,0,0,1,.44-1.82Z"/><path class="cls-1" d="M145.49,210.14a3,3,0,0,1-.76,2.15,2.21,2.21,0,0,1-.46.4,2.26,2.26,0,0,1-1.23.36,2.4,2.4,0,0,1-.46-.05,2,2,0,0,1-1-.47h0l-.14-.15A2.08,2.08,0,0,1,141,211a2.42,2.42,0,0,1,0-.47,1.78,1.78,0,0,1,.6-1L142,207a2.71,2.71,0,0,0,1.44.08,4,4,0,0,1,1.32,1.12,3.47,3.47,0,0,1,.58,1,4.31,4.31,0,0,0,.18.95Z"/><path class="cls-1" d="M139.8,22.15a2.33,2.33,0,0,1-1.21-3,2.2,2.2,0,0,1,2.91-1.25,2.26,2.26,0,0,1,1.29,1.46,14.76,14.76,0,0,0-1,2.65A2.19,2.19,0,0,1,139.8,22.15Z"/><path class="cls-1" d="M139.24,212.54a3.85,3.85,0,0,1,2.35,0h0a2,2,0,0,0,1,.47h0a4.58,4.58,0,0,1,1.53,5.08,4.92,4.92,0,0,1-4.2,3.23,5.68,5.68,0,0,1-2.35-.35,10.16,10.16,0,0,1-2.38-1.23c-.37-.24-.73-.5-1.08-.77s-.92-.71-1.36-1.09l2.38-1.35a1.91,1.91,0,0,0,1.63.4,1.72,1.72,0,0,0,.46-.17h0a2.11,2.11,0,0,1-.33-.79,2.9,2.9,0,0,1,.66-2.29A3.52,3.52,0,0,1,139.24,212.54Z"/><path class="cls-1" d="M139.24,35.57a3.47,3.47,0,0,1-1.68-1.14,2.86,2.86,0,0,1-.66-2.28,2,2,0,0,1,.33-.79h0a1.72,1.72,0,0,0-.46-.17,1.86,1.86,0,0,0-1.63.4l-2.38-1.36c.44-.38.9-.74,1.36-1.09s.71-.52,1.08-.76a10.6,10.6,0,0,1,2.38-1.24,6,6,0,0,1,2.35-.34,4.89,4.89,0,0,1,4.2,3.23,4.59,4.59,0,0,1-1.53,5.08,2,2,0,0,0-1,.48h0A3.93,3.93,0,0,1,139.24,35.57Z"/><path class="cls-1" d="M136.75,195.29V52.83a11,11,0,0,0,1.77,1.42c.23.14.47.27.72.4V193.46a7.28,7.28,0,0,0-.72.4,11,11,0,0,0-1.62,1.26Z"/><path class="cls-1" d="M139.24,212.54a3.52,3.52,0,0,0-1.68,1.13,2.9,2.9,0,0,0-.66,2.29,2.11,2.11,0,0,0,.33.79h0a1.72,1.72,0,0,1-.46.17v-5.81a5.37,5.37,0,0,1,2.49-.79v2.2Z"/><path class="cls-1" d="M134.38,188.23V59.87a10.79,10.79,0,0,0,1.46-5,14.55,14.55,0,0,0-.28-3.43,11.38,11.38,0,0,0,1.19,1.41h0V195.29a10.29,10.29,0,0,0-1.19,1.42,14.72,14.72,0,0,0,.28-3.44,10.76,10.76,0,0,0-1.46-5Z"/><path class="cls-1" d="M145.21,196.75a1.78,1.78,0,0,0-2.32,1.08,3.3,3.3,0,0,0-1.57-.5,4.08,4.08,0,0,0-2.08.5,6.06,6.06,0,0,0-1.35,1,6.8,6.8,0,0,0-1.14,1.48,7.38,7.38,0,0,0-.58,1.28l-2.51-.22a11.28,11.28,0,0,1,1.9-4.66,10.29,10.29,0,0,1,1.19-1.42l.15-.17a11,11,0,0,1,1.62-1.26,7.28,7.28,0,0,1,.72-.4,6.88,6.88,0,0,1,5.13-.62,2.17,2.17,0,0,1,.36.12,5,5,0,0,1,3.14,4Z"/><path class="cls-1" d="M139.24,37.77a4.66,4.66,0,0,0,1.77-.22,1.72,1.72,0,0,0,.6,1l.8,2.49a2.79,2.79,0,0,0-1.24.52,6.38,6.38,0,0,1-1.93-.35,4.32,4.32,0,0,1-.66-.26,7.67,7.67,0,0,1-1.82-1.15,8.76,8.76,0,0,1-1.92-2.23.73.73,0,0,0-.46-.34l-.15,0,1.32-1.3a7.18,7.18,0,0,0,.6.63,5.13,5.13,0,0,0,.6.44A5.24,5.24,0,0,0,139.24,37.77Z"/><path class="cls-1" d="M141.32,50.78a3.41,3.41,0,0,0,1.57-.5s0,0,0-.05a2.24,2.24,0,0,1,1-2.48l.11-.06a2.15,2.15,0,0,1,.78-.24,2.65,2.65,0,0,1,2,.58,3.54,3.54,0,0,1,1.21,2.63,4.92,4.92,0,0,1-3.16,4.49c-.11,0-.24.09-.36.12a6.88,6.88,0,0,1-5.13-.62c-.25-.13-.49-.26-.72-.4a11,11,0,0,1-1.77-1.42h0a11.38,11.38,0,0,1-1.19-1.41h0a11.23,11.23,0,0,1-1.9-4.66l2.51-.22a7.64,7.64,0,0,0,.58,1.27h0a6.74,6.74,0,0,0,1.14,1.47,5.5,5.5,0,0,0,1.35,1A4.09,4.09,0,0,0,141.32,50.78Z"/><path class="cls-1" d="M136.75,211.12a4.19,4.19,0,0,0-.6.44q-.32.3-.6.63l-1.33-1.31.16,0a.71.71,0,0,0,.46-.33,8.75,8.75,0,0,1,1.91-2.23,7.61,7.61,0,0,1,1.83-1.15,5.68,5.68,0,0,1,.66-.27,6.38,6.38,0,0,1,1.93-.35,2.91,2.91,0,0,0,.8.42l-.36,2.59a1.78,1.78,0,0,0-.6,1,5.15,5.15,0,0,0-4.26.57Z"/><path class="cls-1" d="M136.75,208.3a8.75,8.75,0,0,0-1.91,2.23.71.71,0,0,1-.46.33v-3.45a7.2,7.2,0,0,1,2.33-2.51l0,0Z"/><path class="cls-1" d="M134.38,59.87V188.23a8.88,8.88,0,0,0-1.86-2.23,7.55,7.55,0,0,0-5.79-1.74V63.84a7.55,7.55,0,0,0,5.79-1.74A8.88,8.88,0,0,0,134.38,59.87Z"/><path class="cls-1" d="M142.58,35.1A4.59,4.59,0,0,0,144.11,30a4.89,4.89,0,0,0-4.2-3.23,6,6,0,0,0-2.35.34l.07-.16a2.37,2.37,0,0,0-1.21-3,2.23,2.23,0,0,0-2.92,1.26,2.36,2.36,0,0,0,1.21,3,2.79,2.79,0,0,0,.47.14c-.37.24-.73.5-1.08.76s-.92.71-1.36,1.09a14.2,14.2,0,0,0-1.24,1.21,13.34,13.34,0,0,1,2.72-12.27,12.34,12.34,0,0,1,11-3.9,17.72,17.72,0,0,0-2.29,3.85c0,.07-.07.14-.1.22a2.26,2.26,0,0,0-1.29-1.46,2.2,2.2,0,0,0-2.91,1.25,2.33,2.33,0,0,0,1.21,3,2.19,2.19,0,0,0,2-.17,7,7,0,0,0-.11,3.47,5.12,5.12,0,0,0,3,3.48v2.61a3.3,3.3,0,0,0,0,1.5v2.77a2.16,2.16,0,0,0-.46-.39A2.29,2.29,0,0,0,142.58,35.1Z"/><path class="cls-1" d="M144.11,218.09a4.58,4.58,0,0,0-1.53-5.08h0a2.4,2.4,0,0,0,.46.05,2.26,2.26,0,0,0,1.23-.36,2.21,2.21,0,0,0,.46-.4v2.78a3.3,3.3,0,0,0,0,1.5h0v2.6a5.09,5.09,0,0,0-3,3.48,7,7,0,0,0,.11,3.46,2.18,2.18,0,0,0-2-.16,2.33,2.33,0,0,0-1.21,3,2.19,2.19,0,0,0,2.91,1.26,2.28,2.28,0,0,0,1.29-1.46l.1.22a18,18,0,0,0,2.29,3.85,12.34,12.34,0,0,1-11-3.9,13.36,13.36,0,0,1-2.72-12.28,12.89,12.89,0,0,0,1.24,1.21c.44.38.9.74,1.36,1.09s.71.53,1.08.77a2.1,2.1,0,0,0-.47.14,2.35,2.35,0,0,0-1.21,3,2.2,2.2,0,0,0,2.92,1.26,2.35,2.35,0,0,0,1.21-3c0-.06,0-.12-.07-.17a5.68,5.68,0,0,0,2.35.35A4.92,4.92,0,0,0,144.11,218.09Z"/><path class="cls-1" d="M126.73,184.26a7.55,7.55,0,0,1,5.79,1.74,8.88,8.88,0,0,1,1.86,2.23h0a10.76,10.76,0,0,1,1.46,5,14.72,14.72,0,0,1-.28,3.44,11.28,11.28,0,0,0-1.9,4.66l2.51.22c.19-.16.38-.31.58-.45a8.29,8.29,0,0,1,2.49-1.28l.36-.1a5.47,5.47,0,0,1,4,.47l.22.13a4.43,4.43,0,0,1,1.93,3.31,3.57,3.57,0,0,1-1,2.61,2.8,2.8,0,0,1-1.1.7l-.22.05A2.71,2.71,0,0,1,142,207a2.91,2.91,0,0,1-.8-.42,2.54,2.54,0,0,1-.88-1.25,2.28,2.28,0,0,1,0-1.1,3.15,3.15,0,0,0-1-.15h0a4.69,4.69,0,0,0-2.49.83l0,0a7.2,7.2,0,0,0-2.33,2.51,7.46,7.46,0,0,0-.67,1.63c-.08.33-.15.67-.2,1a.72.72,0,0,0,.71.83l1.33,1.31a5.76,5.76,0,0,0-1.11,2.37,2,2,0,0,0,.68,2l-2.38,1.35a12.89,12.89,0,0,1-1.24-1.21,10.07,10.07,0,0,1-1.49-2c-1.53-2.73-1.56-6.1-1.06-9.21s1.46-6.14,1.79-9.27a9.52,9.52,0,0,0-.39-4.38,4.17,4.17,0,0,0-3.13-2.74h0a3.06,3.06,0,0,1,2,2.59,3.5,3.5,0,0,1-1.84,3.33,3.84,3.84,0,0,1-3.78-.21,5,5,0,0,1-2.15-3.29,6.37,6.37,0,0,1,2.69-6.23,5.23,5.23,0,0,1,.87-.48A6.94,6.94,0,0,1,126.73,184.26Z"/><path class="cls-1" d="M129.22,56.46a3.06,3.06,0,0,1-2,2.59h0a4.15,4.15,0,0,0,3.13-2.73,9.56,9.56,0,0,0,.39-4.39c-.33-3.13-1.3-6.16-1.79-9.27s-.47-6.48,1.06-9.21a9.73,9.73,0,0,1,1.49-2h0a14.2,14.2,0,0,1,1.24-1.21l2.38,1.36a2,2,0,0,0-.68,2,5.76,5.76,0,0,0,1.11,2.37l-1.32,1.3a.72.72,0,0,0-.72.83c.05.35.12.68.2,1a7.59,7.59,0,0,0,.67,1.62,7.5,7.5,0,0,0,2.33,2.52l0,0a4.77,4.77,0,0,0,2.49.82h0a3.48,3.48,0,0,0,1-.14,2.32,2.32,0,0,1,0-1.11,2.59,2.59,0,0,1,.88-1.25,2.79,2.79,0,0,1,1.24-.52,2.28,2.28,0,0,1,.45,0,2.57,2.57,0,0,1,.55.06l.22.06a2.8,2.8,0,0,1,1.1.7,3.55,3.55,0,0,1,1,2.61,4.06,4.06,0,0,1-1,2.5,4.3,4.3,0,0,1-.9.8l-.22.14a5.42,5.42,0,0,1-4,.47l-.36-.1A8.29,8.29,0,0,1,136.75,47h0c-.2-.14-.39-.29-.58-.44l-2.51.22a11.23,11.23,0,0,0,1.9,4.66h0a14.55,14.55,0,0,1,.28,3.43,10.79,10.79,0,0,1-1.46,5,8.88,8.88,0,0,1-1.86,2.23,7.55,7.55,0,0,1-5.79,1.74,6.16,6.16,0,0,1-1.72-.5,5.27,5.27,0,0,1-.87-.49,6.35,6.35,0,0,1-2.69-6.23,5,5,0,0,1,2.15-3.28,3.81,3.81,0,0,1,3.78-.22A3.51,3.51,0,0,1,129.22,56.46Z"/><line class="cls-3" x1="316.72" y1="63.88" x2="316.72" y2="184.23"/><polyline class="cls-3" points="126.73 63.84 126.73 184.26 126.73 184.28"/><line class="cls-3" x1="174.8" y1="241.37" x2="268.96" y2="241.37"/><line class="cls-3" x1="174.79" y1="6.66" x2="268.96" y2="6.66"/><line class="cls-3" x1="134.38" y1="59.87" x2="134.38" y2="188.23"/><polyline class="cls-3" points="134.38 207.41 134.38 210.86 134.38 210.87"/><line class="cls-3" x1="134.38" y1="37.24" x2="134.38" y2="40.7"/><line class="cls-3" x1="309.07" y1="32.08" x2="309.07" y2="34.41"/><line class="cls-3" x1="309.07" y1="188.81" x2="309.07" y2="59.3"/><line class="cls-3" x1="309.07" y1="37.4" x2="309.07" y2="41.2"/><line class="cls-3" x1="309.07" y1="213.69" x2="309.07" y2="216.03"/><line class="cls-3" x1="309.07" y1="206.9" x2="309.07" y2="210.7"/><line class="cls-3" x1="272.15" y1="14.25" x2="171.61" y2="14.25"/><line class="cls-3" x1="171.52" y1="233.78" x2="272.25" y2="233.78"/><line class="cls-3" x1="136.75" y1="39.82" x2="136.75" y2="43.25"/><line class="cls-3" x1="150.74" y1="17.16" x2="153.5" y2="17.16"/><line class="cls-3" x1="136.75" y1="52.83" x2="136.75" y2="195.29"/><line class="cls-3" x1="136.75" y1="211.12" x2="136.75" y2="216.93"/><line class="cls-3" x1="290.02" y1="230.87" x2="293.07" y2="230.87"/><line class="cls-3" x1="278.28" y1="230.87" x2="165.48" y2="230.87"/><line class="cls-3" x1="306.69" y1="210.94" x2="306.69" y2="214.51"/><polyline class="cls-3" points="306.69 199.81 306.69 200.92 306.69 200.93"/><line class="cls-3" x1="165.37" y1="17.16" x2="278.4" y2="17.16"/><polyline class="cls-3" points="306.69 48.29 306.69 47.19 306.69 47.18"/><line class="cls-3" x1="306.69" y1="33.6" x2="306.69" y2="37.16"/><line class="cls-3" x1="306.69" y1="31.28" x2="306.69" y2="31.65"/><polyline class="cls-3" points="306.69 43.44 306.69 43.43 306.69 40.06"/><polyline class="cls-3" points="306.69 53.12 306.69 53.13 306.69 194.98"/><polyline class="cls-3" points="290.26 17.16 293.03 17.16 293.04 17.16"/><line class="cls-3" x1="306.69" y1="204.67" x2="306.69" y2="208.05"/><line class="cls-3" x1="306.69" y1="216.46" x2="306.69" y2="216.82"/><line class="cls-3" x1="153.74" y1="230.87" x2="150.69" y2="230.87"/><line class="cls-3" x1="136.75" y1="200.31" x2="136.75" y2="201.14"/><line class="cls-3" x1="136.75" y1="204.87" x2="136.75" y2="208.3"/><line class="cls-3" x1="136.75" y1="31.18" x2="136.75" y2="36.98"/><line class="cls-3" x1="136.75" y1="46.97" x2="136.75" y2="47.79"/><polyline class="cls-3" points="139.24 206.88 139.24 204.04 139.24 204.03"/><line class="cls-3" x1="139.24" y1="197.83" x2="139.24" y2="199.86"/><line class="cls-3" x1="161.26" y1="228.42" x2="163.16" y2="228.42"/><line class="cls-3" x1="150.09" y1="228.42" x2="145.41" y2="228.42"/><line class="cls-3" x1="157.12" y1="228.42" x2="153.3" y2="228.42"/><line class="cls-3" x1="280.59" y1="228.42" x2="282.5" y2="228.42"/><line class="cls-3" x1="293.67" y1="228.42" x2="298.36" y2="228.42"/><line class="cls-3" x1="280.68" y1="19.61" x2="282.56" y2="19.61"/><line class="cls-3" x1="293.78" y1="19.61" x2="298.3" y2="19.61"/><polyline class="cls-3" points="304.21 54.79 304.21 54.8 304.21 59.68 304.21 65.81 304.21 71.94 304.21 78.06 304.21 84.19 304.21 90.32 304.21 96.44 304.21 102.57 304.21 108.69 304.21 114.83 304.21 120.95 304.21 127.08 304.21 133.21 304.21 139.34 304.21 145.46 304.21 151.59 304.21 157.71 304.21 163.85 304.21 169.97 304.21 176.1 304.21 182.23 304.21 188.35 304.21 193.31"/><line class="cls-3" x1="304.21" y1="41.32" x2="304.21" y2="44.06"/><line class="cls-3" x1="304.21" y1="35.65" x2="304.21" y2="37.78"/><polyline class="cls-3" points="304.21 48.33 304.21 48.34 304.21 50.42"/><line class="cls-3" x1="286.7" y1="19.61" x2="290.56" y2="19.61"/><polyline class="cls-3" points="275.78 19.61 265.63 19.61 259.72 19.61 253.79 19.61 247.88 19.61 241.97 19.61 236.05 19.61 230.13 19.61 224.21 19.61 218.3 19.61 212.38 19.61 206.46 19.61 200.54 19.61 194.63 19.61 188.71 19.61 182.8 19.61 176.88 19.61 167.98 19.61"/><line class="cls-3" x1="304.21" y1="204.04" x2="304.21" y2="206.79"/><polyline class="cls-3" points="304.21 210.32 304.21 210.34 304.21 212.46"/><line class="cls-3" x1="304.21" y1="197.68" x2="304.21" y2="199.77"/><line class="cls-3" x1="290.46" y1="228.42" x2="286.63" y2="228.42"/><polyline class="cls-3" points="168.04 228.42 176.88 228.42 182.8 228.42 188.71 228.42 194.63 228.42 200.54 228.42 206.46 228.42 212.38 228.42 218.3 228.42 224.21 228.42 230.13 228.42 236.05 228.42 241.97 228.42 247.88 228.42 253.79 228.42 259.72 228.42 265.63 228.42 275.72 228.42"/><line class="cls-3" x1="139.24" y1="210.35" x2="139.24" y2="212.53"/><polyline class="cls-3" points="139.24 54.65 139.24 59.68 139.24 65.81 139.24 71.94 139.24 78.06 139.24 84.19 139.24 90.32 139.24 96.44 139.24 102.57 139.24 108.69 139.24 114.83 139.24 120.95 139.24 127.08 139.24 133.21 139.24 139.34 139.24 145.46 139.24 151.59 139.24 157.71 139.24 163.85 139.24 169.97 139.24 176.1 139.24 182.23 139.24 188.35 139.24 193.46"/><polyline class="cls-3" points="139.24 48.25 139.24 50.27 139.24 50.28"/><line class="cls-3" x1="139.24" y1="35.57" x2="139.24" y2="37.77"/><line class="cls-3" x1="153.21" y1="19.61" x2="157.06" y2="19.61"/><line class="cls-3" x1="161.2" y1="19.61" x2="163.08" y2="19.61"/><line class="cls-3" x1="145.45" y1="19.61" x2="149.99" y2="19.61"/><line class="cls-3" x1="139.24" y1="41.22" x2="139.24" y2="44.07"/><line class="cls-3" x1="144.73" y1="46.94" x2="144.73" y2="47.45"/><line class="cls-3" x1="162.41" y1="25.42" x2="162.43" y2="25.42"/><line class="cls-3" x1="144.73" y1="33.04" x2="144.73" y2="35.81"/><polyline class="cls-3" points="144.74 28.92 144.74 28.93 144.74 31.52"/><line class="cls-3" x1="144.73" y1="206.28" x2="144.73" y2="208.15"/><polyline class="cls-3" points="144.74 216.58 144.74 219.18 144.74 219.19"/><line class="cls-3" x1="144.73" y1="212.29" x2="144.73" y2="215.07"/><line class="cls-3" x1="144.73" y1="200.66" x2="144.73" y2="201.17"/><line class="cls-3" x1="298.72" y1="33.82" x2="298.72" y2="36.22"/><line class="cls-3" x1="298.72" y1="46.53" x2="298.72" y2="47.43"/><polyline class="cls-3" points="298.72 55.01 298.72 58.61 298.72 60.75 298.72 64.73 298.72 66.89 298.72 70.86 298.72 73.01 298.72 76.98 298.72 79.14 298.72 83.12 298.72 85.27 298.72 89.24 298.72 91.4 298.72 95.37 298.72 97.52 298.72 101.5 298.72 103.65 298.72 107.63 298.72 109.77 298.72 113.75 298.72 115.91 298.72 119.88 298.72 122.03 298.72 126 298.72 128.16 298.72 132.13 298.72 134.29 298.72 138.26 298.72 140.41 298.72 144.38 298.72 146.54 298.72 150.51 298.72 152.66 298.72 156.64 298.72 158.8 298.72 162.77 298.72 164.92 298.72 168.89 298.72 171.05 298.72 175.02 298.72 177.18 298.72 181.15 298.72 183.3 298.72 187.28 298.72 189.43 298.72 193.09 298.72 193.1"/><line class="cls-3" x1="298.72" y1="39.51" x2="298.72" y2="42.19"/><line class="cls-3" x1="298.72" y1="29.03" x2="298.72" y2="30.74"/><polyline class="cls-3" points="169.47 25.42 169.48 25.42 175.84 25.42 177.92 25.42 181.76 25.42 183.83 25.42 187.67 25.42 189.75 25.42 193.59 25.42 195.67 25.42 199.5 25.42 201.58 25.42 205.42 25.42 207.5 25.42 211.34 25.42 213.42 25.42 217.26 25.42 219.34 25.42 223.17 25.42 225.25 25.42 229.09 25.42 231.17 25.42 235 25.42 237.08 25.42 240.92 25.42 243 25.42 246.84 25.42 248.92 25.42 252.76 25.42 254.84 25.42 258.68 25.42 260.76 25.42 264.59 25.42 266.67 25.42 274.28 25.42"/><line class="cls-3" x1="298.72" y1="200.67" x2="298.72" y2="201.57"/><line class="cls-3" x1="298.72" y1="211.88" x2="298.72" y2="214.28"/><polyline class="cls-3" points="274.3 222.62 266.67 222.62 264.6 222.62 260.75 222.62 258.68 222.62 254.84 222.62 252.76 222.62 248.92 222.62 246.85 222.62 243 222.62 240.92 222.62 237.08 222.62 235.01 222.62 231.17 222.62 229.09 222.62 225.25 222.62 223.18 222.62 219.34 222.62 217.27 222.62 213.41 222.62 211.34 222.62 207.5 222.62 205.43 222.62 201.57 222.62 199.51 222.62 195.66 222.62 193.59 222.62 189.75 222.62 187.68 222.62 183.83 222.62 181.76 222.62 177.92 222.62 175.84 222.62 169.46 222.62"/><polyline class="cls-3" points="298.72 217.36 298.72 219.07 298.72 219.08"/><line class="cls-3" x1="298.72" y1="205.92" x2="298.72" y2="208.6"/><polyline class="cls-3" points="144.74 55.15 144.74 58.61 144.74 60.75 144.74 64.73 144.74 66.89 144.74 70.86 144.74 73.01 144.74 76.98 144.74 79.14 144.74 83.12 144.74 85.27 144.74 89.24 144.74 91.4 144.74 95.37 144.74 97.52 144.74 101.5 144.74 103.65 144.74 107.63 144.74 109.77 144.74 113.75 144.74 115.91 144.74 119.88 144.74 122.03 144.74 126 144.74 128.16 144.74 132.13 144.74 134.29 144.74 138.26 144.74 140.41 144.74 144.38 144.74 146.54 144.74 150.51 144.74 152.66 144.74 156.64 144.74 158.8 144.74 162.77 144.74 164.92 144.74 168.89 144.74 171.05 144.74 175.02 144.74 177.18 144.74 181.15 144.74 183.3 144.74 187.28 144.74 189.43 144.74 192.96"/><line class="cls-3" x1="144.73" y1="39.96" x2="144.73" y2="41.83"/><line class="cls-3" x1="155.51" y1="207.1" x2="155.51" y2="41.01"/><line class="cls-3" x1="287.93" y1="207.42" x2="287.93" y2="40.68"/><line class="cls-3" x1="285.31" y1="36.24" x2="158.45" y2="36.24"/><line class="cls-3" x1="158.43" y1="211.79" x2="285.33" y2="211.79"/><path class="cls-3" d="M146.78,223.56a1.4,1.4,0,0,0-1.71,1.22,1.78,1.78,0,0,0,.5,1.43,1.91,1.91,0,0,0,.69.48,2.59,2.59,0,0,0,2.29-.25,4.07,4.07,0,0,0,1.82-3.91"/><path class="cls-3" d="M150.09,221.45a4.29,4.29,0,0,0-4.55-2.49,4.88,4.88,0,0,0-.81.22,5.09,5.09,0,0,0-3,3.48,7,7,0,0,0,.11,3.46,14.58,14.58,0,0,0,1,2.66l.1.22a18,18,0,0,0,2.29,3.85,10,10,0,0,0,1.06,1.11c2.31,2,5.5,2.69,8.54,2.75s6.09-.38,9.14-.13a8.44,8.44,0,0,1,4.08,1.18,4.26,4.26,0,0,1,2,3.68v.06a2.38,2.38,0,0,1-1,1.85,1.42,1.42,0,0,1-1.93-.48c-.34-.67.21-1.68.94-1.58"/><path class="cls-3" d="M170,241.5a3.11,3.11,0,0,0-2.09-2.56,3.32,3.32,0,0,0-3.51,1.26,4.26,4.26,0,0,0-.48,3.89,4.9,4.9,0,0,0,2.73,2.79,6,6,0,0,0,7-2.41,3.74,3.74,0,0,0,.27-.42,7.34,7.34,0,0,0,.82-2.68,8.27,8.27,0,0,0-.89-4.76,9,9,0,0,0-2.39-2.83h0a10.09,10.09,0,0,0-3.9-1.88,13.59,13.59,0,0,0-3.31-.34"/><path class="cls-3" d="M153,219a2.72,2.72,0,0,0-2.27.83,2.48,2.48,0,0,0-.61,1.67h0a2.11,2.11,0,0,0,.28,1.07.35.35,0,0,1,0,.08.6.6,0,0,0,.06.11,2,2,0,0,0,1.66.77,1.58,1.58,0,0,0,1.07-.43"/><path class="cls-3" d="M155.91,221.69a3.92,3.92,0,0,0-2-2.49"/><path class="cls-3" d="M157.39,232.38a9.2,9.2,0,0,0,2.45.26,10.21,10.21,0,0,0,4.46-1.08,8.55,8.55,0,0,0,1.17-.69h0a9.81,9.81,0,0,0,2.06-1.81c.17-.21.35-.42.5-.64a7.68,7.68,0,0,0,1.54-5.13,4,4,0,0,0-.12-.68,5.24,5.24,0,0,0-2.08-3.11,3.81,3.81,0,0,0-1.55-.62,3.28,3.28,0,0,0-2.72.75,2.81,2.81,0,0,0-.82,2.72l.06.16a2.12,2.12,0,0,0,2.16,1.39h.05a1.87,1.87,0,0,0,1.46-2.16"/><path class="cls-3" d="M145.49,210.14a3.37,3.37,0,0,0,.93,1.48,2.82,2.82,0,0,0,1.6.72,2.41,2.41,0,0,0,1.27-.21,2.33,2.33,0,0,0,1.24-2.59.08.08,0,0,1,0,0,1.88,1.88,0,0,0-2.44-1.26"/><path class="cls-3" d="M154.88,216.44a2,2,0,0,0-.47-2.45,1.26,1.26,0,0,0-.36-.24,2.2,2.2,0,0,0-2.7.87,2.66,2.66,0,0,0-.39,1.24,3,3,0,0,0,.45,1.77A3.39,3.39,0,0,0,153,219h0a4,4,0,0,0,.94.25H154a4.14,4.14,0,0,0,2.19-.36,4.87,4.87,0,0,0,2.22-2,6.43,6.43,0,0,0,.05-5,12.3,12.3,0,0,0-2.2-3.89,7.88,7.88,0,0,0-.72-.8,8.47,8.47,0,0,0-5.71-2.78,4.07,4.07,0,0,0-1.55.28,4.87,4.87,0,0,0-2.87,3.49,3.72,3.72,0,0,0-.08.67,3,3,0,0,0,0,.42,4.31,4.31,0,0,0,.18.95"/><path class="cls-3" d="M154.41,214a4,4,0,0,0-.94-3.24,3.74,3.74,0,0,0-2.94-1.21"/><path class="cls-3" d="M145.57,226.21l0,0a2,2,0,0,0-.25,2,1.63,1.63,0,0,0,.11.23,1.89,1.89,0,0,0,1.74,1,5.06,5.06,0,0,0,2.94-1l.21-.16a5.63,5.63,0,0,0,1.84-4.77"/><path class="cls-3" d="M156,224.06a7.06,7.06,0,0,1-1.06,2.53,8.14,8.14,0,0,1-1.63,1.83h0a9,9,0,0,1-2.26,1.37.74.74,0,0,0-.35,1.08.62.62,0,0,0,.55.35,5.66,5.66,0,0,0,1,0,6.3,6.3,0,0,0,1.49-.33,6.94,6.94,0,0,0,3-2c.14-.16.27-.32.4-.49a4.7,4.7,0,0,0,.88-2,3.06,3.06,0,0,0,0-1"/><path class="cls-3" d="M164.56,223.89a3.64,3.64,0,0,1,.18,1.7,4.76,4.76,0,0,1-1.57,2.83h0a4.22,4.22,0,0,1-.47.39,6.65,6.65,0,0,1-2.93,1.24,10.08,10.08,0,0,0,1.5-1.63,8.84,8.84,0,0,0,.88-1.52,6.06,6.06,0,0,0,.28-4.17c0-.08,0-.15-.08-.21a4.15,4.15,0,0,0-2.8-2.61,3.22,3.22,0,0,0-3.53,1.58l-.1.2a3.16,3.16,0,0,0,.08,2.37,2.46,2.46,0,0,0,1,1.12,2,2,0,0,0,1,.25,1.6,1.6,0,0,0,.84-.31,1.27,1.27,0,0,0,.21-1.79"/><path class="cls-3" d="M141.59,212.53a3.85,3.85,0,0,0-2.35,0,3.52,3.52,0,0,0-1.68,1.13,2.9,2.9,0,0,0-.66,2.29,2.11,2.11,0,0,0,.33.79,1.78,1.78,0,0,0,1.27.78A1.45,1.45,0,0,0,140,216"/><path class="cls-3" d="M127,191.16a1.05,1.05,0,0,1-1.67.66,1.53,1.53,0,0,1-.11-2,2.24,2.24,0,0,1,2-.71h0a4.17,4.17,0,0,1,3.13,2.74,9.52,9.52,0,0,1,.39,4.38c-.33,3.13-1.3,6.17-1.79,9.27s-.47,6.48,1.06,9.21a10.07,10.07,0,0,0,1.49,2,12.89,12.89,0,0,0,1.24,1.21c.44.38.9.74,1.36,1.09s.71.53,1.08.77a10.16,10.16,0,0,0,2.38,1.23,5.68,5.68,0,0,0,2.35.35,4.92,4.92,0,0,0,4.2-3.23,4.58,4.58,0,0,0-1.53-5.08"/><path class="cls-3" d="M135.56,196.71a14.72,14.72,0,0,0,.28-3.44,10.76,10.76,0,0,0-1.46-5h0a8.88,8.88,0,0,0-1.86-2.23,7.55,7.55,0,0,0-5.79-1.74,6.94,6.94,0,0,0-1.72.51,5.23,5.23,0,0,0-.87.48,6.37,6.37,0,0,0-2.69,6.23,5,5,0,0,0,2.15,3.29,3.84,3.84,0,0,0,3.78.21,3.5,3.5,0,0,0,1.84-3.33,3.06,3.06,0,0,0-2-2.59"/><path class="cls-3" d="M145.31,209.18a3.47,3.47,0,0,0-.58-1,4,4,0,0,0-1.32-1.12"/><path class="cls-3" d="M141.61,209.54a1.78,1.78,0,0,0-.6,1,2.42,2.42,0,0,0,0,.47,2.08,2.08,0,0,0,.49,1.36l.14.15h0a2,2,0,0,0,1,.47,2.4,2.4,0,0,0,.46.05,2.26,2.26,0,0,0,1.23-.36,2.21,2.21,0,0,0,.46-.4,3,3,0,0,0,.76-2.15h0"/><path class="cls-3" d="M145.21,196.75a1.78,1.78,0,0,0-2.32,1.08s0,0,0,0a2.24,2.24,0,0,0,1,2.48.24.24,0,0,0,.11.06,1.82,1.82,0,0,0,.78.24,2.64,2.64,0,0,0,2-.57,3.54,3.54,0,0,0,1.21-2.63,3.85,3.85,0,0,0,0-.48,5,5,0,0,0-3.14-4,2.17,2.17,0,0,0-.36-.12,6.88,6.88,0,0,0-5.13.62,7.28,7.28,0,0,0-.72.4,11,11,0,0,0-1.62,1.26l-.15.17a10.29,10.29,0,0,0-1.19,1.42,11.28,11.28,0,0,0-1.9,4.66,11,11,0,0,0-.12,2.23"/><path class="cls-3" d="M141,210.55a5.15,5.15,0,0,0-4.26.57,4.19,4.19,0,0,0-.6.44q-.32.3-.6.63a5.76,5.76,0,0,0-1.11,2.37,2,2,0,0,0,.68,2,1.91,1.91,0,0,0,1.63.4,1.72,1.72,0,0,0,.46-.17h0"/><path class="cls-3" d="M140.25,204.18a3.15,3.15,0,0,0-1-.15h0a4.69,4.69,0,0,0-2.49.83l0,0a7.2,7.2,0,0,0-2.33,2.51,7.46,7.46,0,0,0-.67,1.63c-.08.33-.15.67-.2,1a.72.72,0,0,0,.71.83l.16,0a.71.71,0,0,0,.46-.33,8.75,8.75,0,0,1,1.91-2.23,7.61,7.61,0,0,1,1.83-1.15,5.68,5.68,0,0,1,.66-.27,6.38,6.38,0,0,1,1.93-.35"/><path class="cls-3" d="M142.43,203.5a1.17,1.17,0,0,0-1.74-.12,1.67,1.67,0,0,0-.44.8,2.28,2.28,0,0,0,0,1.1,2.54,2.54,0,0,0,.88,1.25,2.91,2.91,0,0,0,.8.42,2.71,2.71,0,0,0,1.44.08l.22-.05a2.8,2.8,0,0,0,1.1-.7,3.57,3.57,0,0,0,1-2.61,4.43,4.43,0,0,0-1.93-3.31l-.22-.13a5.47,5.47,0,0,0-4-.47l-.36.1a8.29,8.29,0,0,0-2.49,1.28c-.2.14-.39.29-.58.45a7.38,7.38,0,0,1,.58-1.28,6.8,6.8,0,0,1,1.14-1.48,6.06,6.06,0,0,1,1.35-1,4.08,4.08,0,0,1,2.08-.5,3.3,3.3,0,0,1,1.57.5"/><path class="cls-3" d="M144.73,216.58a2.83,2.83,0,0,0,.14.41,3,3,0,0,0,2.09,1.83,3,3,0,0,0,1.78-.15,3.15,3.15,0,0,0,1.61-4,3,3,0,0,0-2.37-1.88,2.91,2.91,0,0,0-1.5.21,3.08,3.08,0,0,0-1.75,2.09,3.3,3.3,0,0,0,0,1.5Z"/><path class="cls-3" d="M131.5,216.67A13.36,13.36,0,0,0,134.22,229a12.34,12.34,0,0,0,11,3.9"/><path class="cls-3" d="M135.18,219.74a2.1,2.1,0,0,0-.47.14,2.35,2.35,0,0,0-1.21,3,2.2,2.2,0,0,0,2.92,1.26,2.35,2.35,0,0,0,1.21-3c0-.06,0-.12-.07-.17"/><path class="cls-3" d="M141.82,226.12a2.18,2.18,0,0,0-2-.16,2.33,2.33,0,0,0-1.21,3,2.19,2.19,0,0,0,2.91,1.26,2.28,2.28,0,0,0,1.29-1.46"/><path class="cls-3" d="M150.37,25.57a4.09,4.09,0,0,0-1.82-3.91,2.69,2.69,0,0,0-2.29-.25,2.07,2.07,0,0,0-.69.49,1.78,1.78,0,0,0-.5,1.43,1.41,1.41,0,0,0,1.71,1.22"/><path class="cls-3" d="M168,6.82c-.73.1-1.28-.91-.94-1.58A1.41,1.41,0,0,1,169,4.75a2.4,2.4,0,0,1,1,1.86v.06a4.28,4.28,0,0,1-2,3.68,8.55,8.55,0,0,1-4.08,1.18c-3,.25-6.09-.2-9.14-.13s-6.23.7-8.54,2.75a10,10,0,0,0-1.06,1.11,17.72,17.72,0,0,0-2.29,3.85c0,.07-.07.14-.1.22a14.76,14.76,0,0,0-1,2.65,7,7,0,0,0-.11,3.47,5.12,5.12,0,0,0,3,3.48,4.88,4.88,0,0,0,.81.22,4.05,4.05,0,0,0,1.39,0,4.27,4.27,0,0,0,3.16-2.47"/><path class="cls-3" d="M164.3,16.55a13.59,13.59,0,0,0,3.31-.34,10.07,10.07,0,0,0,4-2h0a9,9,0,0,0,2.3-2.75,8.28,8.28,0,0,0,.88-4.84A7.15,7.15,0,0,0,173.93,4l-.22-.35a6,6,0,0,0-7-2.4A4.88,4.88,0,0,0,164,4a4.26,4.26,0,0,0,.48,3.89A3.31,3.31,0,0,0,168,9.17,3.12,3.12,0,0,0,170,6.61"/><path class="cls-3" d="M153.91,28.91a3.91,3.91,0,0,0,2-2.49"/><path class="cls-3" d="M153.21,25a1.67,1.67,0,0,0-1.07-.43,2,2,0,0,0-1.66.78l0,0a.6.6,0,0,1-.09.15,2.15,2.15,0,0,0-.28,1.08,2.48,2.48,0,0,0,.61,1.67,2.71,2.71,0,0,0,2.28.84"/><path class="cls-3" d="M166,26.37a1.88,1.88,0,0,0-1.46-2.16h-.05a2.09,2.09,0,0,0-2.08,1.21,3.45,3.45,0,0,0-.14.34,2.8,2.8,0,0,0,.82,2.72,3.31,3.31,0,0,0,2.72.75,3.85,3.85,0,0,0,1.57-.63,5.31,5.31,0,0,0,2.08-3.18c0-.21.08-.41.1-.61a7.67,7.67,0,0,0-1.6-5.2c-.14-.2-.29-.38-.44-.56a10.24,10.24,0,0,0-2.17-1.89h0a7.46,7.46,0,0,0-1.06-.61,10.66,10.66,0,0,0-4.46-1.08h-.15a9.84,9.84,0,0,0-2.3.27"/><path class="cls-3" d="M148.08,39.87a1.89,1.89,0,0,0,2.44-1.26s0,0,0,0a2.07,2.07,0,0,0,.06-.5,2.35,2.35,0,0,0-1.3-2.09,2.43,2.43,0,0,0-1.27-.22,2.84,2.84,0,0,0-1.6.73,3.34,3.34,0,0,0-.93,1.47,4.51,4.51,0,0,0-.18,1,3.12,3.12,0,0,0,0,.43,3.72,3.72,0,0,0,.08.67,4.89,4.89,0,0,0,2.87,3.49c2,.8,4.91-.12,7.26-2.5a7.88,7.88,0,0,0,.72-.8,12.24,12.24,0,0,0,2.22-4,8.7,8.7,0,0,0,.46-2.65,4.67,4.67,0,0,0-.53-2.29,4.85,4.85,0,0,0-2.21-2,4.06,4.06,0,0,0-2.2-.36h-.07a3.5,3.5,0,0,0-.92.25,3.35,3.35,0,0,0-1.57,1.31,3.05,3.05,0,0,0-.45,1.79,2.66,2.66,0,0,0,.39,1.23,2.2,2.2,0,0,0,2.7.87,1.88,1.88,0,0,0,.36-.24,2,2,0,0,0,.47-2.45"/><path class="cls-3" d="M150.53,38.57a3.77,3.77,0,0,0,2.94-1.21,4,4,0,0,0,.94-3.24"/><path class="cls-3" d="M152.14,24.61a5.61,5.61,0,0,0-1.84-4.76L150,19.6a5.27,5.27,0,0,0-2.84-1,1.91,1.91,0,0,0-1.7,1c0,.08-.08.16-.12.26a2,2,0,0,0,.22,2l0,0"/><path class="cls-3" d="M158.05,22.69a3.16,3.16,0,0,0,0-1,4.87,4.87,0,0,0-.94-2.07c-.11-.14-.22-.27-.34-.4a7,7,0,0,0-3.23-2,6,6,0,0,0-1.25-.26,6.79,6.79,0,0,0-1,0,.61.61,0,0,0-.5.28.75.75,0,0,0,.3,1.16,9.15,9.15,0,0,1,2.17,1.29,8.28,8.28,0,0,1,1.72,1.91A7,7,0,0,1,156,24.06"/><path class="cls-3" d="M159.1,24.77a1.27,1.27,0,0,0-.21-1.79,1.49,1.49,0,0,0-.84-.29,2,2,0,0,0-1,.24,2.35,2.35,0,0,0-1,1.13,3.13,3.13,0,0,0-.08,2.36l.1.2a3.22,3.22,0,0,0,3.53,1.58,4.23,4.23,0,0,0,2.87-2.78,0,0,0,0,1,0,0,6.12,6.12,0,0,0-.28-4.19,8.52,8.52,0,0,0-.94-1.59,9.59,9.59,0,0,0-1.44-1.55,6.54,6.54,0,0,1,2.93,1.24,3.79,3.79,0,0,1,.39.31,4.8,4.8,0,0,1,1.66,2.91,3.6,3.6,0,0,1-.18,1.69"/><path class="cls-3" d="M140,32.1a1.44,1.44,0,0,0-1.48-1.52,1.74,1.74,0,0,0-1.27.78,2,2,0,0,0-.33.79,2.86,2.86,0,0,0,.66,2.28,3.47,3.47,0,0,0,1.68,1.14,3.93,3.93,0,0,0,2.35,0"/><path class="cls-3" d="M131.5,31.44a9.73,9.73,0,0,0-1.49,2c-1.53,2.73-1.56,6.1-1.06,9.21s1.46,6.14,1.79,9.27a9.56,9.56,0,0,1-.39,4.39A4.15,4.15,0,0,1,127.22,59h-.32a2.16,2.16,0,0,1-1.68-.72,1.54,1.54,0,0,1,.11-2.06A1.05,1.05,0,0,1,127,57"/><path class="cls-3" d="M142.58,35.1A4.59,4.59,0,0,0,144.11,30a4.89,4.89,0,0,0-4.2-3.23,6,6,0,0,0-2.35.34,10.6,10.6,0,0,0-2.38,1.24c-.37.24-.73.5-1.08.76s-.92.71-1.36,1.09a14.2,14.2,0,0,0-1.24,1.21"/><path class="cls-3" d="M127.17,59.05a3.06,3.06,0,0,0,2-2.59,3.51,3.51,0,0,0-1.84-3.34,3.81,3.81,0,0,0-3.78.22,5,5,0,0,0-2.15,3.28,6.35,6.35,0,0,0,2.69,6.23,5.27,5.27,0,0,0,.87.49,6.16,6.16,0,0,0,1.72.5,7.55,7.55,0,0,0,5.79-1.74,8.88,8.88,0,0,0,1.86-2.23,10.79,10.79,0,0,0,1.46-5,14.55,14.55,0,0,0-.28-3.43"/><path class="cls-3" d="M145.49,38v-.11a3.11,3.11,0,0,0-.76-2.07,2.16,2.16,0,0,0-.46-.39,2.29,2.29,0,0,0-1.69-.32,2,2,0,0,0-1,.48h0l-.14.15a2.1,2.1,0,0,0-.44,1.82,1.72,1.72,0,0,0,.6,1"/><path class="cls-3" d="M143.41,41.07A3.83,3.83,0,0,0,144.73,40a3.23,3.23,0,0,0,.58-1"/><path class="cls-3" d="M133.54,44.51a11,11,0,0,0,.12,2.23,11.23,11.23,0,0,0,1.9,4.66h0a11.38,11.38,0,0,0,1.19,1.41h0a11,11,0,0,0,1.77,1.42c.23.14.47.27.72.4a6.88,6.88,0,0,0,5.13.62c.12,0,.25-.08.36-.12a4.92,4.92,0,0,0,3.16-4.49A3.54,3.54,0,0,0,146.68,48a2.65,2.65,0,0,0-2-.58,2.15,2.15,0,0,0-.78.24l-.11.06a2.24,2.24,0,0,0-1,2.48s0,0,0,.05a1.79,1.79,0,0,0,2.32,1.08"/><path class="cls-3" d="M137.23,31.36h0a1.72,1.72,0,0,0-.46-.17,1.86,1.86,0,0,0-1.63.4,2,2,0,0,0-.68,2,5.76,5.76,0,0,0,1.11,2.37,7.18,7.18,0,0,0,.6.63,5.13,5.13,0,0,0,.6.44,5.24,5.24,0,0,0,2.49.78,4.66,4.66,0,0,0,1.77-.22"/><path class="cls-3" d="M141.17,41.57a6.38,6.38,0,0,1-1.93-.35,4.32,4.32,0,0,1-.66-.26,7.67,7.67,0,0,1-1.82-1.15,8.76,8.76,0,0,1-1.92-2.23.73.73,0,0,0-.46-.34l-.15,0a.72.72,0,0,0-.72.83c.05.35.12.68.2,1a7.59,7.59,0,0,0,.67,1.62,7.5,7.5,0,0,0,2.33,2.52l0,0a4.77,4.77,0,0,0,2.49.82h0a3.48,3.48,0,0,0,1-.14"/><path class="cls-3" d="M142.89,50.28a3.41,3.41,0,0,1-1.57.5,4.09,4.09,0,0,1-2.08-.51,5.5,5.5,0,0,1-1.35-1,6.74,6.74,0,0,1-1.14-1.47h0a7.64,7.64,0,0,1-.58-1.27c.19.15.38.3.58.44h0a8.29,8.29,0,0,0,2.49,1.28l.36.1a5.42,5.42,0,0,0,4-.47l.22-.14a4.3,4.3,0,0,0,.9-.8,4.06,4.06,0,0,0,1-2.5,3.55,3.55,0,0,0-1-2.61,2.8,2.8,0,0,0-1.1-.7l-.22-.06a2.57,2.57,0,0,0-.55-.06,2.28,2.28,0,0,0-.45,0,2.79,2.79,0,0,0-1.24.52,2.59,2.59,0,0,0-.88,1.25,2.32,2.32,0,0,0,0,1.11,1.67,1.67,0,0,0,.44.8,1.18,1.18,0,0,0,1.74-.11"/><path class="cls-3" d="M144.73,33a3.1,3.1,0,0,0,1.75,2.09,2.9,2.9,0,0,0,1.5.2,3,3,0,0,0,2.37-1.88,3,3,0,0,0,.22-1.17,3.09,3.09,0,0,0-1.83-2.84,2.88,2.88,0,0,0-1.78-.16,3,3,0,0,0-2.09,1.83,4,4,0,0,0-.14.41v0A3.3,3.3,0,0,0,144.73,33Z"/><path class="cls-3" d="M145.18,15.26a12.34,12.34,0,0,0-11,3.9,13.34,13.34,0,0,0-2.72,12.27h0"/><path class="cls-3" d="M137.56,27.14h0l.07-.16a2.37,2.37,0,0,0-1.21-3,2.23,2.23,0,0,0-2.92,1.26,2.36,2.36,0,0,0,1.21,3,2.79,2.79,0,0,0,.47.14"/><path class="cls-3" d="M142.79,19.33a2.26,2.26,0,0,0-1.29-1.46,2.2,2.2,0,0,0-2.91,1.25,2.33,2.33,0,0,0,1.21,3,2.19,2.19,0,0,0,2-.17"/><path class="cls-3" d="M293.4,222.53a4,4,0,0,0,1.81,3.91,2.59,2.59,0,0,0,2.29.25,1.94,1.94,0,0,0,1.2-1.91,1.41,1.41,0,0,0-1.71-1.22"/><path class="cls-3" d="M275.75,241.29c.73-.1,1.28.91.94,1.58a1.41,1.41,0,0,1-1.92.48,2.3,2.3,0,0,1-1-1.85v-.06a4.25,4.25,0,0,1,2-3.68,8.48,8.48,0,0,1,4.09-1.18c3-.25,6.09.19,9.13.13s6.24-.71,8.55-2.75a10,10,0,0,0,1.06-1.11,18.42,18.42,0,0,0,2.3-3.85l.09-.22c.1-.21.2-.42.29-.65a15.36,15.36,0,0,0,.69-2,6.88,6.88,0,0,0,.09-3.46,5,5,0,0,0-3.32-3.59l-.5-.11a4.33,4.33,0,0,0-4.55,2.49"/><path class="cls-3" d="M279.47,231.56a13.72,13.72,0,0,0-3.32.34,10.12,10.12,0,0,0-3.89,1.88h0a9,9,0,0,0-2.4,2.83,8.35,8.35,0,0,0-.89,4.76,7.35,7.35,0,0,0,.83,2.68,3.58,3.58,0,0,0,.25.42,6,6,0,0,0,7,2.41,5,5,0,0,0,2.74-2.79,4.26,4.26,0,0,0-.49-3.89,3.33,3.33,0,0,0-3.5-1.26,3.06,3.06,0,0,0-2.09,2.56"/><path class="cls-3" d="M289.83,219.21a3.9,3.9,0,0,0-2,2.48"/><path class="cls-3" d="M290.56,223.06a1.57,1.57,0,0,0,1.06.43,2,2,0,0,0,1.66-.77.67.67,0,0,1,.07-.11l0-.08a2.11,2.11,0,0,0,.28-1.07h0a2.52,2.52,0,0,0-.6-1.67,2.74,2.74,0,0,0-2.28-.83"/><path class="cls-3" d="M277.74,221.73a1.87,1.87,0,0,0,1.45,2.16h.06a2.12,2.12,0,0,0,2.16-1.39,1,1,0,0,0,0-.16,2.76,2.76,0,0,0-.82-2.72,3.25,3.25,0,0,0-2.71-.75,4.33,4.33,0,0,0-3,2.11,5.61,5.61,0,0,0-.67,1.62,4,4,0,0,0-.12.68,7.63,7.63,0,0,0,1.54,5.13c.16.22.33.43.51.64a9.52,9.52,0,0,0,2,1.81h0a9.32,9.32,0,0,0,1.18.69,10.23,10.23,0,0,0,4.44,1.08h.17a10,10,0,0,0,2.29-.27"/><path class="cls-3" d="M298.27,210.12a3.33,3.33,0,0,0,.18-.94,3,3,0,0,0,0-.42,4.09,4.09,0,0,0-.15-1,4.91,4.91,0,0,0-2.79-3.17c-2.08-.84-5.18.2-7.59,2.82-.14.15-.27.31-.41.48a12.26,12.26,0,0,0-2.19,3.89,6.43,6.43,0,0,0,.05,5,4.63,4.63,0,0,0,4.42,2.4h.05a3.84,3.84,0,0,0,.94-.25,3.4,3.4,0,0,0,1.56-1.32,2.91,2.91,0,0,0,.44-1.77,2.44,2.44,0,0,0-.38-1.24,2.2,2.2,0,0,0-2.7-.87,1.41,1.41,0,0,0-.36.24h0a2,2,0,0,0-.46,2.45"/><path class="cls-3" d="M295.68,208.24a1.88,1.88,0,0,0-2.44,1.26s0,0,0,0a2.34,2.34,0,0,0,1.25,2.59,2.66,2.66,0,0,0,2.87-.51,3.54,3.54,0,0,0,.92-1.48"/><path class="cls-3" d="M293.23,209.54a3.74,3.74,0,0,0-2.94,1.21,4,4,0,0,0-1,3.24"/><path class="cls-3" d="M291.62,223.49a5.63,5.63,0,0,0,1.84,4.77l.21.16a5.07,5.07,0,0,0,2.95,1,1.9,1.9,0,0,0,1.74-1,2.78,2.78,0,0,0,.18-.48,2,2,0,0,0-.33-1.71l0,0"/><path class="cls-3" d="M285.71,225.43a3.06,3.06,0,0,0,0,1,5,5,0,0,0,.88,2c.13.17.26.33.4.49a6.94,6.94,0,0,0,3,2,6.41,6.41,0,0,0,1.49.33,5.66,5.66,0,0,0,1,0,.62.62,0,0,0,.55-.35.75.75,0,0,0-.36-1.08,9.23,9.23,0,0,1-2.24-1.37h0a8.62,8.62,0,0,1-1.63-1.83,7.25,7.25,0,0,1-1.06-2.53"/><path class="cls-3" d="M284.66,223.33a1.27,1.27,0,0,0,.21,1.79,1.63,1.63,0,0,0,.84.31,2,2,0,0,0,1-.25,2.43,2.43,0,0,0,1-1.12,2.9,2.9,0,0,0,.27-1.16,2.76,2.76,0,0,0-.2-1.21,1.21,1.21,0,0,0-.09-.2,3.23,3.23,0,0,0-3.53-1.58,4.17,4.17,0,0,0-2.8,2.61,1,1,0,0,0-.08.21,6,6,0,0,0,.29,4.17,7.66,7.66,0,0,0,.87,1.52,10,10,0,0,0,1.49,1.63,6.8,6.8,0,0,1-2.93-1.24,5.71,5.71,0,0,1-.47-.39,4.83,4.83,0,0,1-1.58-2.83,3.77,3.77,0,0,1,.18-1.7"/><path class="cls-3" d="M303.79,216a1.44,1.44,0,0,0,1.46,1.52,1.76,1.76,0,0,0,1.28-.78,1.64,1.64,0,0,0,.16-.29h0a1.78,1.78,0,0,0,.17-.49,2.58,2.58,0,0,0-.17-1.45,2.91,2.91,0,0,0-.48-.84,3.55,3.55,0,0,0-2-1.21,3.86,3.86,0,0,0-2,.07"/><path class="cls-3" d="M301.18,213a4.38,4.38,0,0,0-1.74,3.12,4.65,4.65,0,0,0,.2,2,4.94,4.94,0,0,0,4.21,3.23,5.75,5.75,0,0,0,2.36-.35,10.7,10.7,0,0,0,2.37-1.23c.37-.24.73-.5,1.08-.77a19.62,19.62,0,0,0,2.61-2.3,10.91,10.91,0,0,0,1.49-2c1.52-2.73,1.55-6.1,1.06-9.21s-1.46-6.14-1.79-9.27a9.39,9.39,0,0,1,.38-4.38,4.17,4.17,0,0,1,3.13-2.74h.31a2.17,2.17,0,0,1,1.69.72,1.54,1.54,0,0,1-.1,2,1.06,1.06,0,0,1-1.68-.66"/><path class="cls-3" d="M316.6,189.06a3.07,3.07,0,0,0-2.06,2.59,3.51,3.51,0,0,0,1.84,3.33,3.84,3.84,0,0,0,3.78-.21,5,5,0,0,0,2.16-3.29,6.37,6.37,0,0,0-3-6.42,4.86,4.86,0,0,0-.55-.29,6.17,6.17,0,0,0-2-.54,7.54,7.54,0,0,0-5.47,1.77,8.83,8.83,0,0,0-2.18,2.81,11.08,11.08,0,0,0-1.15,4.46,15.28,15.28,0,0,0,.28,3.44"/><path class="cls-3" d="M298.27,210.12h0a3.11,3.11,0,0,0,.45,1.74,2.3,2.3,0,0,0,.77.81,2.24,2.24,0,0,0,1.69.31,2,2,0,0,0,1-.47l.16-.15a2.14,2.14,0,0,0,.43-1.83,1.69,1.69,0,0,0-.61-1"/><path class="cls-3" d="M300.35,207a4.1,4.1,0,0,0-1.63,1.57,3.06,3.06,0,0,0-.27.58"/><path class="cls-3" d="M310.22,203.6a10.25,10.25,0,0,0-.12-2.21,11.23,11.23,0,0,0-1.9-4.68,10.83,10.83,0,0,0-1.51-1.73,9,9,0,0,0-1.46-1.12,8.38,8.38,0,0,0-1-.55,6.73,6.73,0,0,0-4.82-.47,3.56,3.56,0,0,0-.67.25,5,5,0,0,0-2.79,3.59,3.29,3.29,0,0,0-.06.77,3.57,3.57,0,0,0,1.21,2.63,2.72,2.72,0,0,0,1.64.59,2.13,2.13,0,0,0,1.1-.26l.12-.07a2.24,2.24,0,0,0,.95-2.47v0a1.79,1.79,0,0,0-2.33-1.08"/><path class="cls-3" d="M306.53,216.75h0a1.91,1.91,0,0,0,2.52-.73,2,2,0,0,0,.25-1.47,6.22,6.22,0,0,0-.25-.87,5.35,5.35,0,0,0-1.46-2.13,4.37,4.37,0,0,0-.92-.62,5.2,5.2,0,0,0-3.94-.39"/><path class="cls-3" d="M302.58,206.53a7,7,0,0,1,2.61.62,6.94,6.94,0,0,1,1.5.9,8.55,8.55,0,0,1,2.23,2.48.61.61,0,0,0,.15.17.72.72,0,0,0,1.18-.65,6.94,6.94,0,0,0-.2-1,7.18,7.18,0,0,0-1-2.14,7,7,0,0,0-2-2,2.21,2.21,0,0,0-.36-.23,4.6,4.6,0,0,0-2.21-.64h-.27a3.71,3.71,0,0,0-.71.14"/><path class="cls-3" d="M300.88,197.83a3.23,3.23,0,0,1,1.56-.5,4,4,0,0,1,1.77.35,5.66,5.66,0,0,1,1.67,1.15,7.53,7.53,0,0,1,.81,1,7.45,7.45,0,0,1,.9,1.78,10,10,0,0,0-.9-.67,7.68,7.68,0,0,0-2.48-1.15h0a5.44,5.44,0,0,0-4,.47l-.21.12a4.33,4.33,0,0,0-1.23,1.22h0a4,4,0,0,0-.71,2.09,3.55,3.55,0,0,0,.71,2.25,2.83,2.83,0,0,0,1.42,1.06l.21.05a2.75,2.75,0,0,0,2.23-.5,2.37,2.37,0,0,0,.88-1.25,2.06,2.06,0,0,0,0-1.1,1.57,1.57,0,0,0-.43-.8,1.17,1.17,0,0,0-1.74.12"/><path class="cls-3" d="M298.72,217.36a2.09,2.09,0,0,0,.17-.37,3.09,3.09,0,0,0,.22-.87,3.28,3.28,0,0,0-.39-1.83h0a3.07,3.07,0,0,0-1.43-1.3,3,3,0,0,0-3.88,1.67,3.12,3.12,0,0,0,1.61,4A2.92,2.92,0,0,0,298.72,217.36Z"/><path class="cls-3" d="M298.58,232.85a12.35,12.35,0,0,0,11-3.9,13.39,13.39,0,0,0,2.73-12.28"/><path class="cls-3" d="M306.21,221a.89.89,0,0,0-.08.17,2.36,2.36,0,0,0,1.22,3,2.19,2.19,0,0,0,2.91-1.26,2.34,2.34,0,0,0-1.21-3,2.1,2.1,0,0,0-.47-.14"/><path class="cls-3" d="M301,228.78a2.31,2.31,0,0,0,1.29,1.46,2.2,2.2,0,0,0,2.92-1.26,2.34,2.34,0,0,0-1.22-3,2.16,2.16,0,0,0-2,.16"/><path class="cls-3" d="M297,24.55a1.42,1.42,0,0,0,1.71-1.22,1.82,1.82,0,0,0-.51-1.43,2,2,0,0,0-.69-.49,2.69,2.69,0,0,0-2.29.25,4.06,4.06,0,0,0-1.81,3.91"/><path class="cls-3" d="M293.67,26.65a4.32,4.32,0,0,0,4.55,2.5,4.54,4.54,0,0,0,.5-.12A5,5,0,0,0,302,25.45,6.92,6.92,0,0,0,302,22a15.75,15.75,0,0,0-.69-2c-.09-.23-.19-.44-.29-.65l-.09-.22a18.17,18.17,0,0,0-2.3-3.85,10,10,0,0,0-1.06-1.11C295.21,12.1,292,11.46,289,11.4s-6.09.38-9.13.13a8.59,8.59,0,0,1-4.09-1.18,4.26,4.26,0,0,1-2-3.68V6.61a2.32,2.32,0,0,1,1-1.86,1.41,1.41,0,0,1,1.92.49c.34.67-.21,1.68-.94,1.58"/><path class="cls-3" d="M273.73,6.61a3.07,3.07,0,0,0,2.09,2.56,3.31,3.31,0,0,0,3.5-1.27A4.26,4.26,0,0,0,279.81,4a5,5,0,0,0-2.74-2.78,6,6,0,0,0-7,2.4c-.07.12-.15.23-.21.35A7.15,7.15,0,0,0,269,6.66a8.28,8.28,0,0,0,.88,4.84,9.13,9.13,0,0,0,2.3,2.75,10.11,10.11,0,0,0,4,2,13.72,13.72,0,0,0,3.32.34"/><path class="cls-3" d="M290.78,29.16a2.72,2.72,0,0,0,2.29-.84,2.52,2.52,0,0,0,.6-1.67,2.15,2.15,0,0,0-.28-1.08l-.1-.15s0,0,0,0a2,2,0,0,0-1.66-.78,1.67,1.67,0,0,0-1.06.43"/><path class="cls-3" d="M287.84,26.42a3.92,3.92,0,0,0,2,2.49"/><path class="cls-3" d="M286.37,15.73a9.28,9.28,0,0,0-2.46-.26,10.23,10.23,0,0,0-4.44,1.08,7.46,7.46,0,0,0-1.06.61h0a9.77,9.77,0,0,0-2.17,1.89,6.12,6.12,0,0,0-.45.56,7.62,7.62,0,0,0-1.6,5.2,4.55,4.55,0,0,0,.1.61,5.49,5.49,0,0,0,.66,1.65,4.36,4.36,0,0,0,3,2.16,3.29,3.29,0,0,0,2.71-.75,2.76,2.76,0,0,0,.82-2.72.56.56,0,0,0,0-.12,2.1,2.1,0,0,0-2.17-1.43h-.06a1.88,1.88,0,0,0-1.45,2.16"/><path class="cls-3" d="M298.27,38a3.54,3.54,0,0,0-.92-1.48,2.64,2.64,0,0,0-2.87-.51,2.33,2.33,0,0,0-1.25,2.59s0,0,0,0a1.89,1.89,0,0,0,2.44,1.26"/><path class="cls-3" d="M288.88,31.67a2,2,0,0,0,.46,2.45h0a2.25,2.25,0,0,0,.36.24,2.2,2.2,0,0,0,2.7-.87,2.44,2.44,0,0,0,.38-1.23,3,3,0,0,0-.44-1.79,3.51,3.51,0,0,0-2.5-1.56h-.05a4.6,4.6,0,0,0-4.42,2.4,6.36,6.36,0,0,0-.07,4.94,12.21,12.21,0,0,0,2.21,4c.14.16.27.32.41.47a8.76,8.76,0,0,0,6,3.11,4.15,4.15,0,0,0,1.55-.28,4.93,4.93,0,0,0,2.79-3.17,4.09,4.09,0,0,0,.15-1,3,3,0,0,0,0-.42,3.4,3.4,0,0,0-.18-.94"/><path class="cls-3" d="M289.34,34.12a4,4,0,0,0,1,3.24,3.77,3.77,0,0,0,2.94,1.21"/><path class="cls-3" d="M298.19,21.9l0,0a2.07,2.07,0,0,0,.1-2.27,1.9,1.9,0,0,0-1.69-1,5.22,5.22,0,0,0-2.84,1,3.92,3.92,0,0,0-.32.25,5.61,5.61,0,0,0-1.84,4.76"/><path class="cls-3" d="M287.77,24.06a7.22,7.22,0,0,1,1.06-2.54,7.89,7.89,0,0,1,1.73-1.91,9.23,9.23,0,0,1,2.15-1.29.76.76,0,0,0,.32-1.16.65.65,0,0,0-.51-.28,6.79,6.79,0,0,0-1,0,5.91,5.91,0,0,0-1.25.26h0a7,7,0,0,0-3.22,2c-.11.13-.23.26-.34.4a5.13,5.13,0,0,0-.94,2.07,3.16,3.16,0,0,0,0,1"/><path class="cls-3" d="M279.19,24.21a3.73,3.73,0,0,1-.18-1.69,4.91,4.91,0,0,1,1.67-2.91c.13-.11.25-.22.38-.31A6.68,6.68,0,0,1,284,18.06a10,10,0,0,0-1.43,1.55,8,8,0,0,0-.93,1.59,6.06,6.06,0,0,0-.29,4.19l.09.24a4.2,4.2,0,0,0,2.79,2.57,3.23,3.23,0,0,0,3.53-1.58,1.21,1.21,0,0,0,.09-.2,2.62,2.62,0,0,0,.21-1.07,3,3,0,0,0-.28-1.29,2.32,2.32,0,0,0-1-1.13,2,2,0,0,0-1-.24,1.52,1.52,0,0,0-.84.29,1.27,1.27,0,0,0-.21,1.79"/><path class="cls-3" d="M302.16,35.58a3.86,3.86,0,0,0,2,.07,3.51,3.51,0,0,0,2-1.22,3,3,0,0,0,.48-.83,2.78,2.78,0,0,0,.21-1,2.15,2.15,0,0,0,0-.43,1.78,1.78,0,0,0-.17-.49h0a1.64,1.64,0,0,0-.16-.29,1.73,1.73,0,0,0-1.28-.78,1.43,1.43,0,0,0-1.46,1.52"/><path class="cls-3" d="M306.21,27.13a5.91,5.91,0,0,0-2.36-.34A4.91,4.91,0,0,0,299.64,30a4.63,4.63,0,0,0-.2,2,4.4,4.4,0,0,0,1.74,3.12"/><path class="cls-3" d="M316.76,57a1.06,1.06,0,0,1,1.68-.68,1.55,1.55,0,0,1,.1,2.06,2.22,2.22,0,0,1-1.94.71h-.06a4.15,4.15,0,0,1-3.13-2.73,9.43,9.43,0,0,1-.38-4.39c.33-3.13,1.29-6.16,1.79-9.27s.46-6.48-1.06-9.21a10.1,10.1,0,0,0-1.49-2,19.7,19.7,0,0,0-2.61-2.31c-.35-.26-.71-.52-1.08-.76a10.29,10.29,0,0,0-2.37-1.23"/><path class="cls-3" d="M308.2,51.41a15.09,15.09,0,0,0-.28,3.43,11.07,11.07,0,0,0,1.15,4.45h0a8.79,8.79,0,0,0,2.18,2.8,7.55,7.55,0,0,0,5.47,1.78,6.7,6.7,0,0,0,2-.54l.55-.29a6.38,6.38,0,0,0,3-6.43,5,5,0,0,0-2.16-3.28,3.81,3.81,0,0,0-3.78-.22,3.53,3.53,0,0,0-1.84,3.34,3.07,3.07,0,0,0,2.06,2.59"/><path class="cls-3" d="M298.45,38.93a2.8,2.8,0,0,0,.27.58,4,4,0,0,0,1.63,1.56"/><path class="cls-3" d="M302.14,38.56a1.64,1.64,0,0,0,.61-1,2.13,2.13,0,0,0-.43-1.82l-.16-.15a2,2,0,0,0-1-.48,2.22,2.22,0,0,0-.45,0,2.27,2.27,0,0,0-1.24.36,2.36,2.36,0,0,0-.77.8,3.14,3.14,0,0,0-.45,1.75v0"/><path class="cls-3" d="M298.55,51.36a1.8,1.8,0,0,0,2.33-1.08.43.43,0,0,0,0-.05,2.22,2.22,0,0,0-.95-2.46l-.12-.08a2.34,2.34,0,0,0-1.1-.26,2.67,2.67,0,0,0-1.64.6,3.57,3.57,0,0,0-1.21,2.63A4.87,4.87,0,0,0,298.72,55a3.58,3.58,0,0,0,.67.26,6.73,6.73,0,0,0,4.82-.47,10,10,0,0,0,1-.55,9.57,9.57,0,0,0,1.46-1.12,11.21,11.21,0,0,0,1.51-1.72h0a11.18,11.18,0,0,0,1.9-4.68,10.22,10.22,0,0,0,.12-2.21"/><path class="cls-3" d="M302.75,37.55a4.55,4.55,0,0,0,1.46.23,5.23,5.23,0,0,0,2.48-.61,4.79,4.79,0,0,0,.92-.62,5.31,5.31,0,0,0,1.46-2.14,5.72,5.72,0,0,0,.25-.86,2,2,0,0,0-.25-1.47,1.91,1.91,0,0,0-2.38-.8l-.14.07h0"/><path class="cls-3" d="M303.5,43.93a3.67,3.67,0,0,0,.71.13h.27a4.49,4.49,0,0,0,2.21-.64,3.1,3.1,0,0,0,.36-.21,7.29,7.29,0,0,0,2-2h0a7.18,7.18,0,0,0,1-2.12,7.49,7.49,0,0,0,.2-1,.72.72,0,0,0-1.18-.65.65.65,0,0,0-.15.18,8.68,8.68,0,0,1-2.23,2.48,7.85,7.85,0,0,1-1.5.9,8.87,8.87,0,0,1-1,.36,6.44,6.44,0,0,1-1.63.25"/><path class="cls-3" d="M301.33,44.62a1.18,1.18,0,0,0,1.74.11,1.57,1.57,0,0,0,.43-.8,2.09,2.09,0,0,0,0-1.11,2.4,2.4,0,0,0-.88-1.25,2.79,2.79,0,0,0-2.23-.5l-.21.06a2.77,2.77,0,0,0-1.42,1.06,3.54,3.54,0,0,0-.71,2.13v.12a4,4,0,0,0,.71,2.09A4.37,4.37,0,0,0,300,47.76l.21.12a5.39,5.39,0,0,0,4,.47h0a7.9,7.9,0,0,0,2.48-1.15c.32-.21.61-.44.9-.67a7.38,7.38,0,0,1-.9,1.77,6.39,6.39,0,0,1-.81,1,5.48,5.48,0,0,1-1.67,1.15,4,4,0,0,1-1.77.36,3.34,3.34,0,0,1-1.56-.5"/><path class="cls-3" d="M298.72,30.74a2.93,2.93,0,0,0-3.7-1.3,3.11,3.11,0,0,0-1.84,2.84,3,3,0,0,0,.23,1.17,2.94,2.94,0,0,0,3.88,1.68,3,3,0,0,0,1.43-1.31,3.28,3.28,0,0,0,.39-1.83,3.07,3.07,0,0,0-.22-.88A4,4,0,0,0,298.72,30.74Z"/><path class="cls-3" d="M312.27,31.44a13.38,13.38,0,0,0-2.73-12.28,12.35,12.35,0,0,0-11-3.9"/><path class="cls-3" d="M308.58,28.37a2.79,2.79,0,0,0,.47-.14,2.35,2.35,0,0,0,1.21-3,2.22,2.22,0,0,0-2.91-1.26,2.37,2.37,0,0,0-1.22,3,.8.8,0,0,0,.08.16h0"/><path class="cls-3" d="M302,22a2.16,2.16,0,0,0,2,.17,2.35,2.35,0,0,0,1.22-3,2.21,2.21,0,0,0-2.92-1.25A2.28,2.28,0,0,0,301,19.33"/><path class="cls-3" d="M144.73,58.61c-1.73,0-3.12.48-3.12,1.07s1.39,1.06,3.12,1.07"/><path class="cls-3" d="M144.73,64.73c-1.73,0-3.12.5-3.12,1.08s1.39,1.06,3.12,1.08"/><path class="cls-3" d="M144.73,70.86c-1.73,0-3.12.49-3.12,1.08S143,73,144.73,73"/><path class="cls-3" d="M144.73,77c-1.73,0-3.12.5-3.12,1.08s1.39,1.07,3.12,1.08"/><path class="cls-3" d="M144.73,83.12c-1.73,0-3.12.49-3.12,1.07s1.39,1.06,3.12,1.08"/><path class="cls-3" d="M144.73,89.24c-1.73,0-3.12.49-3.12,1.08s1.39,1.06,3.12,1.08"/><path class="cls-3" d="M144.73,95.37c-1.73,0-3.12.49-3.12,1.07s1.39,1.07,3.12,1.08"/><path class="cls-3" d="M144.73,101.5c-1.73,0-3.12.48-3.12,1.07s1.39,1.07,3.12,1.08"/><path class="cls-3" d="M144.73,107.63c-1.73,0-3.12.48-3.12,1.06s1.39,1.07,3.12,1.08"/><path class="cls-3" d="M144.73,113.75c-1.73,0-3.12.49-3.12,1.08s1.39,1.06,3.12,1.08"/><path class="cls-3" d="M144.73,119.87c-1.73,0-3.12.5-3.12,1.08S143,122,144.73,122"/><path class="cls-3" d="M144.73,126c-1.73,0-3.12.5-3.12,1.08s1.39,1.07,3.12,1.08"/><path class="cls-3" d="M144.73,132.13c-1.73,0-3.12.5-3.12,1.08s1.39,1.06,3.12,1.08"/><path class="cls-3" d="M144.73,138.26c-1.73,0-3.12.49-3.12,1.08s1.39,1.06,3.12,1.06"/><path class="cls-3" d="M144.73,144.38c-1.73,0-3.12.5-3.12,1.08s1.39,1.06,3.12,1.08"/><path class="cls-3" d="M144.73,150.51c-1.73,0-3.12.49-3.12,1.08s1.39,1.06,3.12,1.07"/><path class="cls-3" d="M144.73,156.64c-1.73,0-3.12.5-3.12,1.07s1.39,1.07,3.12,1.09"/><path class="cls-3" d="M144.73,162.77c-1.73,0-3.12.49-3.12,1.08s1.39,1.05,3.12,1.07"/><path class="cls-3" d="M144.73,168.89c-1.73,0-3.12.5-3.12,1.08s1.39,1.07,3.12,1.08"/><path class="cls-3" d="M144.73,175c-1.73,0-3.12.5-3.12,1.09s1.39,1,3.12,1.07"/><path class="cls-3" d="M144.73,181.15c-1.73,0-3.12.5-3.12,1.08s1.39,1.06,3.12,1.07"/><path class="cls-3" d="M144.73,187.28c-1.73,0-3.12.49-3.12,1.07s1.39,1.06,3.12,1.08"/><path class="cls-3" d="M298.72,60.75c1.7,0,3-.49,3-1.07s-1.35-1-3-1.07"/><path class="cls-3" d="M298.72,66.89c1.7,0,3-.51,3-1.08s-1.35-1.06-3-1.08"/><path class="cls-3" d="M298.72,73c1.7,0,3-.5,3-1.07s-1.35-1-3-1.08"/><path class="cls-3" d="M298.72,79.14c1.7,0,3-.5,3-1.08s-1.35-1-3-1.08"/><path class="cls-3" d="M298.72,85.27c1.7,0,3-.5,3-1.08s-1.35-1-3-1.07"/><path class="cls-3" d="M298.72,91.4c1.7,0,3-.51,3-1.08s-1.35-1-3-1.08"/><path class="cls-3" d="M298.72,97.52c1.7,0,3-.49,3-1.08s-1.35-1-3-1.07"/><path class="cls-3" d="M298.72,103.65c1.7,0,3-.5,3-1.08s-1.35-1-3-1.07"/><path class="cls-3" d="M298.72,109.77c1.7,0,3-.49,3-1.08s-1.35-1-3-1.06"/><path class="cls-3" d="M298.72,115.91c1.7,0,3-.51,3-1.08s-1.35-1-3-1.08"/><path class="cls-3" d="M298.72,122c1.7,0,3-.49,3-1.08s-1.35-1-3-1.08"/><path class="cls-3" d="M298.72,128.16c1.7,0,3-.5,3-1.08s-1.35-1-3-1.08"/><path class="cls-3" d="M298.72,134.29c1.7,0,3-.5,3-1.08s-1.35-1.06-3-1.08"/><path class="cls-3" d="M298.72,140.4c1.7,0,3-.48,3-1.06s-1.35-1.05-3-1.08"/><path class="cls-3" d="M298.72,146.54c1.7,0,3-.5,3-1.08s-1.35-1.05-3-1.08"/><path class="cls-3" d="M298.72,152.66c1.7,0,3-.49,3-1.07s-1.35-1.05-3-1.08"/><path class="cls-3" d="M298.72,158.8c1.7,0,3-.5,3-1.09s-1.35-1.05-3-1.07"/><path class="cls-3" d="M298.72,164.92c1.7,0,3-.5,3-1.07s-1.35-1-3-1.08"/><path class="cls-3" d="M298.72,171.05c1.7,0,3-.5,3-1.08s-1.35-1.05-3-1.08"/><path class="cls-3" d="M298.72,177.18c1.7,0,3-.5,3-1.07s-1.35-1.06-3-1.09"/><path class="cls-3" d="M298.72,183.3c1.7,0,3-.5,3-1.07s-1.35-1.06-3-1.08"/><path class="cls-3" d="M298.72,189.43c1.7,0,3-.5,3-1.08s-1.35-1-3-1.07"/><path class="cls-3" d="M177.92,25.42c0-1.79-.48-3.22-1-3.22s-1,1.43-1,3.22"/><path class="cls-3" d="M183.83,25.42c0-1.79-.47-3.22-1-3.22s-1,1.43-1,3.22"/><path class="cls-3" d="M189.75,25.42c0-1.79-.48-3.22-1.05-3.22s-1,1.43-1,3.22"/><path class="cls-3" d="M195.67,25.42c0-1.79-.48-3.22-1-3.22s-1,1.43-1,3.22"/><path class="cls-3" d="M201.58,25.42c0-1.79-.47-3.22-1-3.22s-1,1.43-1,3.22"/><path class="cls-3" d="M207.5,25.42c0-1.79-.48-3.22-1-3.22s-1,1.43-1,3.22"/><path class="cls-3" d="M213.42,25.42c0-1.79-.47-3.22-1-3.22s-1,1.43-1,3.22"/><path class="cls-3" d="M219.34,25.42c0-1.79-.48-3.22-1-3.22s-1,1.43-1,3.22"/><path class="cls-3" d="M225.25,25.42c0-1.79-.47-3.22-1-3.22s-1,1.43-1,3.22"/><path class="cls-3" d="M231.17,25.42c0-1.79-.48-3.22-1-3.22s-1,1.43-1,3.22"/><path class="cls-3" d="M237.08,25.42c0-1.79-.48-3.22-1-3.22s-1,1.43-1.05,3.22"/><path class="cls-3" d="M243,25.42c0-1.79-.48-3.22-1-3.22s-1,1.43-1,3.22"/><path class="cls-3" d="M248.92,25.42c0-1.79-.48-3.22-1-3.22s-1,1.43-1,3.22"/><path class="cls-3" d="M254.83,25.42c0-1.79-.46-3.22-1-3.22s-1,1.43-1,3.22"/><path class="cls-3" d="M260.76,25.42c0-1.79-.48-3.22-1-3.22s-1,1.43-1,3.22"/><path class="cls-3" d="M266.67,25.42c0-1.79-.47-3.22-1-3.22s-1,1.43-1,3.22"/><path class="cls-3" d="M175.84,222.61a1.41,1.41,0,0,0,0,.2c0,1.83.47,3.31,1,3.31s1-1.48,1-3.31v-.2"/><path class="cls-3" d="M181.76,222.61v.2c0,1.83.47,3.31,1,3.31s1-1.48,1-3.31v-.2"/><path class="cls-3" d="M187.68,222.61a1.41,1.41,0,0,0,0,.2c0,1.83.47,3.31,1,3.31s1.05-1.48,1.05-3.31v-.2"/><path class="cls-3" d="M193.59,222.61v.2c0,1.83.46,3.31,1,3.31s1-1.48,1-3.31a1.41,1.41,0,0,0,0-.2"/><path class="cls-3" d="M199.51,222.61a1.41,1.41,0,0,0,0,.2c0,1.83.47,3.31,1,3.31s1-1.48,1-3.31a1.41,1.41,0,0,0,0-.2"/><path class="cls-3" d="M205.43,222.61a1.41,1.41,0,0,0,0,.2c0,1.83.46,3.31,1,3.31s1-1.48,1-3.31v-.2"/><path class="cls-3" d="M211.34,222.61v.2c0,1.83.47,3.31,1,3.31s1-1.48,1-3.31a1.41,1.41,0,0,0,0-.2"/><path class="cls-3" d="M217.27,222.61a1.41,1.41,0,0,0,0,.2c0,1.83.46,3.31,1,3.31s1-1.48,1-3.31v-.2"/><path class="cls-3" d="M223.18,222.61a1.41,1.41,0,0,0,0,.2c0,1.83.47,3.31,1,3.31s1-1.48,1-3.31v-.2"/><path class="cls-3" d="M229.09,222.61v.2c0,1.83.47,3.31,1,3.31s1-1.48,1-3.31v-.2"/><path class="cls-3" d="M235,222.61a1.41,1.41,0,0,0,0,.2c0,1.83.47,3.31,1.05,3.31s1-1.48,1-3.31v-.2"/><path class="cls-3" d="M240.92,222.61v.2c0,1.83.47,3.31,1,3.31s1-1.48,1-3.31a1.41,1.41,0,0,0,0-.2"/><path class="cls-3" d="M246.85,222.61a1.41,1.41,0,0,0,0,.2c0,1.83.47,3.31,1,3.31s1-1.48,1-3.31v-.2"/><path class="cls-3" d="M252.76,222.61v.2c0,1.83.46,3.31,1,3.31s1-1.48,1-3.31v-.2"/><path class="cls-3" d="M258.68,222.61v.2c0,1.83.46,3.31,1,3.31s1-1.48,1-3.31a1.41,1.41,0,0,0,0-.2"/><path class="cls-3" d="M264.6,222.61a1.41,1.41,0,0,0,0,.2c0,1.83.47,3.31,1,3.31s1-1.48,1-3.31v-.2"/><path d="M78.61,393.71c.11-.34,2.17-.3,4.08.06,2.94.13,9.79,1.81,10.4,2,2.77.64,4.17-.61,4.09-4.19-.13-6.06-.12-12.18-1-18.15-2.33-15.71-5.23-31.34-7.66-47-.85-5.49-1-11.09-1.54-16.62,0-.42-.81-1-1.3-1.08-3.62-.49-7.27-.83-10.9-1.28-3.24-.39-6.46-1-9.71-1.25-2.24-.2-2.76-1.32-2.59-3.36.35-4.21.59-8.44.78-12.66,0-.5-.68-1.51-1-1.48-8.79.8-17.22-1.54-25.81-2.59-4.54-.56-9.31.4-13.93,1.06-2,.28-1.4,2.68-1.87,4.11-.79,2.38-1.21,4.89-1.86,7.32-.32,1.23-.91,2.39-1.22,3.63-4.08,16.27-8.34,32.5-10.43,49.18-1,7.93-1.54,15.91-2.61,23.82-.67,4.88-2,9.67-2.95,14.52-.1.5-.05,1.42.23,1.56a40.32,40.32,0,0,0,6.48,3c2.57.8,3.19.26,3.65-2.48,3.17-18.58,6.36-37.15,9.42-55.74,1.3-7.88,2.31-15.81,3.45-23.71a3.13,3.13,0,0,1,.19-1.17A25,25,0,0,1,26.45,309l-.3,2.11c-1,6.88-1.88,13.77-2.94,20.64q-3.3,21.3-6.76,42.59c-.89,5.43-2,10.83-3.1,16.22-.43,2.11-1,4.18-1.57,6.25-.31,1.17-.53,2.38,1.06,2.61,3,.42,6.09.84,9.15,1a75.09,75.09,0,0,0,8.34-.31c7.05-.5,14.08-1.19,21.13-1.54a22.27,22.27,0,0,1,8.15.82,24.91,24.91,0,0,0,9.84,1.3,1.9,1.9,0,0,1,1.37.3c1.46,1.62,4.31,2.15,5.92.78a3.31,3.31,0,0,0,.67-2.34c-.39-13-.67-26-1.3-39-.53-10.92-1.48-21.83-2.21-32.75-.11-1.61,0-3.25,0-4.87H75c0,1.55-.09,3.11,0,4.65,1.13,17.77,2.39,35.54,3.39,53.32C78.67,385.05,78.64,389.38,78.61,393.71Zm0,0c0,2.29,0,4.6,0,6.9a2.18,2.18,0,0,1-2,2.5c-1.34.22-2.66.51-4,.71-.38.05-1,0-1.14-.18-1.77-2.68-4.53-1.41-6.87-1.84A21.12,21.12,0,0,1,60,400.61a14.6,14.6,0,0,0-3.76-1.05,15.72,15.72,0,0,0-5.11.11c-2.36.41-4.72.8-7.1,1.11a66.75,66.75,0,0,1-13.79.53,22.51,22.51,0,0,0-3.48.06,41.56,41.56,0,0,1-5.56.32,53.72,53.72,0,0,1-9.33-1.45,2.88,2.88,0,0,1-1.39-2.47c.32-1.79-.4-1.92-1.86-2.36A61.05,61.05,0,0,1,.55,392,1.72,1.72,0,0,1,0,390.38c3.21-8.09,3.53-16.68,4.37-25.17a302.34,302.34,0,0,1,7.12-43.47c2.1-8.46,4.81-16.77,7-25.21.12-.43.23-.86.34-1.29a22.54,22.54,0,0,0,.6-9.47c-1.76-9.14-.8-18.31-.9-27.46,0-3.59.09-7.19.2-10.78.21-7.1.56-14.2.67-21.3.18-11.64.21-23.29.33-34.93a23.53,23.53,0,0,1,.39-3l.78.08c0,.48,0,1,0,1.45s0,.95-.05,1.43c-.15,8.38-.31,16.76-.43,25.14-.2,13.05-.41,26.09-.54,39.14-.09,8.54,0,17.08,0,25.62a7.46,7.46,0,0,0,.05.95c.43,3.71.74,4.11,4.27,3.29,6.55-1.52,12.92-.65,19.4.55a126,126,0,0,0,15.65,1.65c4.13.24,4.27-.15,4.61-4.16.63-7.32,1.5-14.62,1.91-21.94.19-3.23-.46-6.51-.83-9.75,0-.25-.94-.62-1.38-.55-4.6.65-5.77-.43-6.36-5-.91-7,.26-13.9,1.49-20.7,1.93-10.71,2.89-21.52,4.1-32.31.32-2.82,1-5.59,1.51-8.39l.58,0a3.72,3.72,0,0,1,.29,1.17c-1.1,9.42-2.12,18.85-3.38,28.25-1,7.67-2.53,15.27-3.45,22.95a51.93,51.93,0,0,0,.26,10.49c.18,2.14,1.68,3,3.78,2.47a19.31,19.31,0,0,0,4.6-1.92c6.74-3.92,12.31-9.3,17.82-14.73,3.4-3.35,6.85-6.66,10.16-10.1a4.25,4.25,0,0,0,.92-2.73c-.06-4.54-.28-9.09-.45-13.63A7.63,7.63,0,0,0,95.3,206l.43-.09a66.7,66.7,0,0,1,1.19,8.69c-.21.16-.38.26-.47.32l.49-.14c.09,1.16.15,2.35.17,3.56,0,.7,0,1.39,0,2.07a13.2,13.2,0,0,1-.93,3.51c-.56,1.31-1.91,3.88-11.49,11.29-5.76,5.16-9.85,8.68-12.67,11s-4.37,3.31-5.06,3.52c-.17.06-1.07.3-1.33,1s.31,1.51.62,2a28.59,28.59,0,0,1,1.28,5c.91,4.3-2.38,28.14-3.5,42-.18,2.23-.27,3.47.16,4.22s1.73,1.09,4.31,1.41c9.95,1.24,19.91,2.48,29.89,3.29,3.24.26,6.61-.7,9.87-1.35,2.7-.54,5.34-1.44,8-2.23a5.27,5.27,0,0,0,1.26-.85,4.42,4.42,0,0,0-1.41-.47c-6.11.39-12.22,1-18.34,1.18a51.54,51.54,0,0,1-11.11-.64,57.88,57.88,0,0,0-16.39-1c-1.32.12-2.6.64-3.92.85a3.79,3.79,0,0,1-1.41-.35c.34-.36.63-.94,1-1a18.67,18.67,0,0,1,4.48-.66c5,.18,10.08,0,15,.94a48.53,48.53,0,0,0,14.92.51c5.13-.61,10.32-.8,15.49-.93,2,0,2.2-.63,1.9-2.36a191,191,0,0,0-9-32.51c-4.44-12.1-6.27-24.72-8-37.39-.41-3.08-.92-6.15-1.27-9.25-.14-1.22,0-5.94.08-7.95l.06-.06a4.41,4.41,0,0,0,.5-.66l.18,4.54,0,4.41c.41,2.73,1,6.67,1.86,11.38,2.84,16,4.24,25.1,8,35.92,3.57,10.3,5.88,21,8.7,31.6a10.85,10.85,0,0,1,.26,2.85c0,1.87-.93,2.86-2.87,3.16a22.71,22.71,0,0,0-5.72,1.48c-6.13,2.65-12.44,2.23-18.82,1.62-3.56-.35-4.23.31-3.7,4,1.33,9.16,2.82,18.31,4.21,27.46,2,13.1,4.09,26.18,5.82,39.31.57,4.31.18,8.76.11,13.15,0,2.41-1.4,3.59-3.84,3.57a61.19,61.19,0,0,1-6-1.35C86.48,395.36,78.61,394.29,78.61,393.73Z"/><path class="cls-4" d="M117.72,300.28c.3,1.73.07,2.32-1.9,2.36-5.17.13-10.36.32-15.49.93a48.53,48.53,0,0,1-14.92-.51c-4.88-.91-10-.76-15-.94a18.67,18.67,0,0,0-4.48.66c-.4.08-.69.66-1,1l-.74.17c-.43-.75-.34-2-.16-4.22,1.12-13.85,4.41-37.69,3.5-42a28.59,28.59,0,0,0-1.28-5c-.31-.51-.89-1.31-.62-2s1.16-.93,1.33-1c.69-.21,2.24-1.25,5.06-3.52s6.91-5.8,12.67-11c9.58-7.41,10.93-10,11.49-11.29a13.2,13.2,0,0,0,.93-3.51c0-.68,0-1.37,0-2.07,0-1.21-.08-2.4-.17-3.56a6.06,6.06,0,0,0,2.61-1.63c0,2-.22,6.73-.08,7.95.35,3.1.86,6.17,1.27,9.25,1.69,12.67,3.52,25.29,8,37.39A191,191,0,0,1,117.72,300.28Z"/><path class="cls-4" d="M117.52,304.24a5.27,5.27,0,0,1-1.26.85c-2.65.79-5.29,1.69-8,2.23-3.26.65-6.63,1.61-9.87,1.35-10-.81-19.94-2.05-29.89-3.29-2.58-.32-3.8-.53-4.31-1.41l.74-.17a3.79,3.79,0,0,0,1.41.35c1.32-.21,2.6-.73,3.92-.85a57.88,57.88,0,0,1,16.39,1,51.54,51.54,0,0,0,11.11.64c6.12-.2,12.23-.79,18.34-1.18A4.42,4.42,0,0,1,117.52,304.24Z"/><path d="M100.92,206.91a7.64,7.64,0,0,1-.81,5.55c0-.09,0-.19,0-.28l-.54.39c0,.15,0,.36,0,.61a6.06,6.06,0,0,1-2.61,1.63.55.55,0,0,0,0-.18,7.53,7.53,0,0,0,3.07-4.8,7.06,7.06,0,0,0-.44-3.58,9.63,9.63,0,0,0-5-5.19q.65,2.35,1.16,4.88l-.43.09c0-.12,0-.23-.08-.35-1-4.17-2.66-4.93-6.16-2.63-1.86,1.22-3.48,2.8-5.31,4.06a2.82,2.82,0,0,1-2.34.46c-.55-.29-.73-1.42-.9-2.21a4,4,0,0,1,.12-1.67c1.68-8,3.53-16.06,5-24.14a133,133,0,0,0,1.9-15.4,7.68,7.68,0,0,0-5.23-8,14,14,0,0,1-1.84-1.79,4.63,4.63,0,0,0,.39-.5l2,1.26c2.68,1.68,5.13,3.65,5.68,6.88,1.5,8.95,2.82,17.93,4.11,26.91a68.63,68.63,0,0,1,.43,7.17,4.32,4.32,0,0,0,2.38,4.1,10,10,0,0,1,2,1.32,10.46,10.46,0,0,1,1.84,1.83A8.65,8.65,0,0,1,100.92,206.91Zm-9.36-18.45q-.82-5.49-1.66-11l-.5.08q.8,5.49,1.61,11Zm1.58,11.8c-2.34-1.93-4.52-1.2-5.32,1.78Zm-4.94-1c3-1.21,2.72-3.31,2.16-5.71-.18-.77-.16-1.59-.27-2.37q-1-7.06-2-14.11h-.44a8.45,8.45,0,0,0-.39,1.06q-2.76,12.84-5.5,25.68a8.56,8.56,0,0,0-.15,1.43c-.08,1.52.6,1.73,1.67.86,1.3-1.07,2.83-1.87,3-4A3.88,3.88,0,0,1,88.2,199.21Z"/><path d="M100.1,212.18c0,.09,0,.19,0,.28a4.41,4.41,0,0,1-.5.66l-.06.06c0-.25,0-.46,0-.61Z"/><path class="cls-5" d="M99.55,206.25a7.06,7.06,0,0,1,.44,3.58,7.53,7.53,0,0,1-3.07,4.8,66.7,66.7,0,0,0-1.19-8.69q-.51-2.52-1.16-4.88A9.63,9.63,0,0,1,99.55,206.25Z"/><path class="cls-6" d="M97.18,391.53c.08,3.58-1.32,4.83-4.09,4.19-.61-.14-7.46-1.82-10.4-2-1.91-.36-4-.4-4.08-.06,0-4.33.06-8.66-.18-13-1-17.78-2.26-35.55-3.39-53.32-.1-1.54,0-3.1,0-4.65H73.88c0,1.62-.09,3.26,0,4.87.73,10.92,1.68,21.83,2.21,32.75.63,13,.91,26,1.3,39a3.31,3.31,0,0,1-.67,2.34c-1.61,1.37-4.46.84-5.92-.78a1.9,1.9,0,0,0-1.37-.3,24.91,24.91,0,0,1-9.84-1.3,22.27,22.27,0,0,0-8.15-.82c-7.05.35-14.08,1-21.13,1.54a75.09,75.09,0,0,1-8.34.31c-3.06-.12-6.12-.54-9.15-1-1.59-.23-1.37-1.44-1.06-2.61.54-2.07,1.14-4.14,1.57-6.25,1.09-5.39,2.21-10.79,3.1-16.22q3.48-21.28,6.76-42.59c1.06-6.87,2-13.76,2.94-20.64l.3-2.11A25,25,0,0,0,25,311.11a3.13,3.13,0,0,0-.19,1.17c-1.14,7.9-2.15,15.83-3.45,23.71-3.06,18.59-6.25,37.16-9.42,55.74-.46,2.74-1.08,3.28-3.65,2.48a40.32,40.32,0,0,1-6.48-3c-.28-.14-.33-1.06-.23-1.56,1-4.85,2.28-9.64,3-14.52,1.07-7.91,1.62-15.89,2.61-23.82,2.09-16.68,6.35-32.91,10.43-49.18.31-1.24.9-2.4,1.22-3.63.65-2.43,1.07-4.94,1.86-7.32.47-1.43-.12-3.83,1.87-4.11,4.62-.66,9.39-1.62,13.93-1.06,8.59,1.05,17,3.39,25.81,2.59.3,0,1,1,1,1.48-.19,4.22-.43,8.45-.78,12.66-.17,2,.35,3.16,2.59,3.36,3.25.29,6.47.86,9.71,1.25,3.63.45,7.28.79,10.9,1.28.49.06,1.26.66,1.3,1.08.55,5.53.69,11.13,1.54,16.62,2.43,15.7,5.33,31.33,7.66,47C97.06,379.35,97.05,385.47,97.18,391.53Zm-55.94-3.18a7,7,0,0,0,.09-.91c-.07-6.93-.23-13.86-.23-20.79,0-7.58.17-15.17.19-22.75a5.78,5.78,0,0,0-.75-2,5.72,5.72,0,0,0-.9,2c0,1.16.48,2.32.49,3.48,0,4.47,0,8.94-.05,13.41C40,369.21,40,377.58,40,386a12.37,12.37,0,0,0,.56,2.56Z"/><path d="M96.92,214.63a.55.55,0,0,1,0,.18l-.49.14C96.54,214.89,96.71,214.79,96.92,214.63Z"/><path class="cls-7" d="M95.88,220.73a4.25,4.25,0,0,1-.92,2.73c-3.31,3.44-6.76,6.75-10.16,10.1C79.29,239,73.72,244.37,67,248.29a19.31,19.31,0,0,1-4.6,1.92c-2.1.57-3.6-.33-3.78-2.47a51.93,51.93,0,0,1-.26-10.49c.92-7.68,2.42-15.28,3.45-22.95,1.26-9.4,2.28-18.83,3.38-28.25a3.72,3.72,0,0,0-.29-1.17l-.58,0c-.51,2.8-1.19,5.57-1.51,8.39-1.21,10.79-2.17,21.6-4.1,32.31-1.23,6.8-2.4,13.67-1.49,20.7.59,4.53,1.76,5.61,6.36,5,.44-.07,1.35.3,1.38.55.37,3.24,1,6.52.83,9.75-.41,7.32-1.28,14.62-1.91,21.94-.34,4-.48,4.4-4.61,4.16A126,126,0,0,1,43.6,286c-6.48-1.2-12.85-2.07-19.4-.55-3.53.82-3.84.42-4.27-3.29a7.46,7.46,0,0,1-.05-.95c0-8.54-.05-17.08,0-25.62.13-13.05.34-26.09.54-39.14.12-8.38.28-16.76.43-25.14,0-.48,0-1,.05-1.43s0-1,0-1.45l-.78-.08a23.53,23.53,0,0,0-.39,3c-.12,11.64-.15,23.29-.33,34.93-.11,7.1-.46,14.2-.67,21.3-.11,3.59-.23,7.19-.2,10.78.1,9.15-.86,18.32.9,27.46a22.54,22.54,0,0,1-.6,9.47c-.11.43-.22.86-.34,1.29l-1.16-.3c-.42-2.6-.87-5.19-1.28-7.79-.91-5.83-2.34-11.63-2.62-17.48-.63-12.83-.68-25.68-.94-38.53,0-1.35.21-2.7.31-4.05.62-7.7,1.5-15.4,1.77-23.11.31-8.86.25-17.73,0-26.59-.23-9.18,3.75-15.93,11.11-21,1.9-1.3,5.78-3.32,8.15-4.76-.14,2.41.54,4.19,2.74,5.27a35,35,0,0,0,3.23,1.5c2.79,1,5.13,2.51,6.35,5.4,1,2.32,2.89,3.26,5.33,3.37a20.3,20.3,0,0,0,17.07-7.58c2.45-2.93,4.79-5,8.77-4.7a4.6,4.6,0,0,0,2.51-1.34h0l.1-.09c.17-.16.32-.31.46-.46a14,14,0,0,0,1.84,1.79,7.68,7.68,0,0,1,5.23,8,133,133,0,0,1-1.9,15.4c-1.49,8.08-3.34,16.1-5,24.14a4,4,0,0,0-.12,1.67c.17.79.35,1.92.9,2.21a2.82,2.82,0,0,0,2.34-.46c1.83-1.26,3.45-2.84,5.31-4.06,3.5-2.3,5.18-1.54,6.16,2.63,0,.12,0,.23.08.35a7.63,7.63,0,0,1,.13,1.07C95.6,211.64,95.82,216.19,95.88,220.73Z"/><path d="M89.9,177.48q.82,5.49,1.66,11l-.55.08q-.81-5.49-1.61-11Z"/><path class="cls-5" d="M87.82,202c.8-3,3-3.71,5.32-1.78Z"/><path d="M81,153.35a1,1,0,0,1-.17.47l-.15-.1A1.45,1.45,0,0,1,81,153.35Z"/><path d="M80.72,153.72l.15.1a4.63,4.63,0,0,1-.39.5l-.08-.09Z"/><path d="M81,153.35a1.45,1.45,0,0,0-.32.37l-.29-.17A1.69,1.69,0,0,1,81,153.35Z"/><path d="M80.46,151.28a20.42,20.42,0,0,1,.58,2.07,1.69,1.69,0,0,0-.61.2c-.54-.3-.59-.22-.44.22l-.4.21c-.32-1.2-.1-2.08-.29-2.55-2.12-5.31-2.41-10.81-2-16.47.63-9.61.58-19.23-3.25-28.3-2.1-5-4.1-10.22-9.52-12.69-3.28-1.5-6.67-2-10,.07a2.05,2.05,0,0,1-1.5.37c-3.24-1.21-5.67.2-7.5,2.58a38.94,38.94,0,0,0-7.33,17.24c-1.9,10.64-2.33,21.4-2.46,32.19,0,1.75-.3,3.5-.5,5.24,0,.28-.06.54-.08.8l-.38,0a3.56,3.56,0,0,0-.82,0c.51-8.46.65-16.94,1.43-25.37.75-8.24,1.34-16.61,5.27-24.19a54.82,54.82,0,0,1,3.75-6.37,8.3,8.3,0,0,1,8.5-3.67,2.38,2.38,0,0,0,1.33-.11c6.08-3.22,13.57.5,16.36,4.84a48.42,48.42,0,0,1,8,26.67c0,4.14-.09,8.3-.31,12.44A34.08,34.08,0,0,0,80.46,151.28Z"/><path d="M80.72,153.72l-.32.51-.41-.46.44-.22Z"/><path d="M80.4,154.23l.08.09c-.14.15-.29.3-.46.46A4.58,4.58,0,0,0,80.4,154.23Z"/><path d="M80.43,153.55l-.44.22C79.84,153.33,79.89,153.25,80.43,153.55Z"/><path d="M80.4,154.23a4.58,4.58,0,0,1-.38.55l-.1.09h0a5.36,5.36,0,0,1-.31-.9l.4-.21Z"/><path d="M79.59,154a5.36,5.36,0,0,0,.31.9,4.6,4.6,0,0,1-2.51,1.34c-4-.28-6.32,1.77-8.77,4.7a20.3,20.3,0,0,1-17.07,7.58c-2.44-.11-4.34-1.05-5.33-3.37-1.22-2.89-3.56-4.38-6.35-5.4a35,35,0,0,1-3.23-1.5c-2.2-1.08-2.88-2.86-2.74-5.27.31-.19.59-.36.84-.53l.38,0c-.26,3.26.59,4.57,4,5.74,3.78,1.3,6.79,3.22,8.62,7,.51,1,2.4,1.9,3.73,2,6.78.54,12.29-2.31,16.6-7.35,2.46-2.89,4.68-5.76,9-4.89a2,2,0,0,0,.48,0A7.74,7.74,0,0,0,79.59,154Z"/><path class="cls-8" d="M79.59,154a7.74,7.74,0,0,1-2,1,2,2,0,0,1-.48,0c-4.37-.87-6.59,2-9,4.89-4.31,5-9.82,7.89-16.6,7.35-1.33-.11-3.22-1-3.73-2-1.83-3.79-4.84-5.71-8.62-7-3.39-1.17-4.24-2.48-4-5.74,0-.26.05-.52.08-.8.2-1.74.47-3.49.5-5.24.13-10.79.56-21.55,2.46-32.19A38.94,38.94,0,0,1,45.49,97c1.83-2.38,4.26-3.79,7.5-2.58a2.05,2.05,0,0,0,1.5-.37c3.33-2.07,6.72-1.57,10-.07,5.42,2.47,7.42,7.72,9.52,12.69,3.83,9.07,3.88,18.69,3.25,28.3-.37,5.66-.08,11.16,2,16.47C79.49,151.9,79.27,152.78,79.59,154Z"/><path d="M66.55,439.7c2-.05,4.45,2,4.27,3.89a31.26,31.26,0,0,1-1.42,6.25,3.66,3.66,0,0,1-1.75,1.83c-.75.4-1.52.75-2.3,1.1a2.61,2.61,0,0,0-.27-.31c0,.12,0,.25,0,.41a30,30,0,0,0-3.17,1.55,13.27,13.27,0,0,1-9.64,1.67c-.87-.17-2.11-.65-2.08,1,0,1.29-.83,3.2,1.38,3.49,4.18.55,8.31.25,12-2,.74-.44,1-1.78,1.33-2.76a13.23,13.23,0,0,0,.16-3l.25-.1c1.59,2,1.25,5.35-.55,6.49-4.39,2.78-9.26,3.21-14.25,2.18a2.56,2.56,0,0,1-1.47-1.85c-.46-4.12-.83-8.26-1-12.4a31.84,31.84,0,0,1,.65-4.69,8.92,8.92,0,0,0,0-2.58c-.93-5.33-1.93-10.65-2.87-16S44,413.26,43,407.65c-.31.75-.66,1.45-.9,2.19-2.7,8.36-5.41,16.71-8,25.09a17.43,17.43,0,0,0-.64,4.67c0,.4.87,1.07,1.43,1.2,1.77.4,3.62.46,5.37.91a2.67,2.67,0,0,1,2,3.7c-1.26,3.68-2.86,7.2-7.16,8.23-2.12.51-3.2,1.43-3.17,3.9A5,5,0,0,1,27,463c-3.79.26-7.62.14-11.43,0a2.55,2.55,0,0,1-2.71-3.16c.65-4.81,1.21-9.64,2.16-14.39.33-1.62,2-2.92,2.59-4.55,1.74-5.11,3.83-10.13,5.52-15.2,2.12-6.34,2.49-13.26,3.57-19.94a29.94,29.94,0,0,0,.2-3.16l.68,0a10,10,0,0,1,.29,1.85c-.42,9.36-1.54,18.53-6,27.07-1.51,2.92-2.1,6.32-3,9.53-.06.19.58.85.88.84,3.56-.18,6.7.53,9.39,3.19,1.32,1.31,2.77.63,2.75-1.05-.08-7.33,2.77-13.95,4.88-20.76,1.46-4.72,2.87-9.47,4.43-14.17a60.55,60.55,0,0,1,2.47-5.68c.12-.25.42-.41.64-.61.16.31.48.63.46.92-.75,9.09,1.81,17.73,3.54,26.49.67,3.44,1.14,6.91,1.69,10.37.16,1,.31,1.91,1.77,1.39A16.9,16.9,0,0,1,63,442a7.6,7.6,0,0,0,1.8.14,6.58,6.58,0,0,0-.23-1.8c-2.34-5.49-4.85-10.91-7-16.45-.7-1.79-.65-3.9-.82-5.88q-.63-7.28-1.13-14.57a7.16,7.16,0,0,1,.43-1.92,5.9,5.9,0,0,1,.9,1.86c.47,6.2.85,12.41,1.29,18.62a6,6,0,0,0,.55,1.81C61,429.23,63.4,434.6,65.62,440c-.18.09-.29.16-.28.22s.16.06.39.05a2.29,2.29,0,0,1,.1.23c.35.84,0,2,0,3a11.84,11.84,0,0,1-2.68-.23c-4.16-1.37-8.29-1.56-12.33.28a2.92,2.92,0,0,0-1.5,1.95,35.68,35.68,0,0,0-.21,6.93,3.29,3.29,0,0,0,2,2.14c4.22,1.41,8.12.51,11.76-2a41.65,41.65,0,0,1,3.81-1.8,4.82,4.82,0,0,0,1.88-1.63,10,10,0,0,0,1.24-4.89c-.07-.42-.48-3-2.23-3.74a4.09,4.09,0,0,0-1.75-.2c0-.09-.07-.18-.11-.27A9,9,0,0,1,66.55,439.7ZM37.18,450.23c2-.66,4.42-3.79,4-5.74-.52-2.44-2.82-2.09-4.61-2.44a11.71,11.71,0,0,1-1.19-.06c-2.11-.68-2.36.44-2.34,2.17,0,2.4-.69,3-3,2.48a4,4,0,0,1-2.1-1A8,8,0,0,0,21,443c-4.23,0-4.42.08-5.27,3.73-.54,2.33-.94,4.69-1.39,7-.34,1.75.41,2.74,2.16,2.41,3.42-.66,6.84-1.35,10.17-2.33C30.22,452.84,33.66,451.41,37.18,450.23Zm.13,1.39L37,450.9c-2.08.81-4.21,1.55-6.25,2.46-4.59,2.06-9.17,4.09-14.35,4.05C15.29,457.41,14,457,14,459s.44,2.95,2.45,2.95c2.93,0,5.87.12,8.81,0,4.21-.14,5.51-1.44,5.63-5.69A3.15,3.15,0,0,1,33.39,453C34.72,452.6,36,452.09,37.31,451.62Z"/><path d="M69.71,444.23a10,10,0,0,1-1.24,4.89,4.82,4.82,0,0,1-1.88,1.63,41.65,41.65,0,0,0-3.81,1.8c-3.64,2.52-7.54,3.42-11.76,2a3.29,3.29,0,0,1-2-2.14,35.68,35.68,0,0,1,.21-6.93,2.92,2.92,0,0,1,1.5-1.95c4-1.84,8.17-1.65,12.33-.28a11.84,11.84,0,0,0,2.68.23c0-1,.4-2.13,0-3a2.29,2.29,0,0,0-.1-.23,4.09,4.09,0,0,1,1.75.2C69.23,441.2,69.64,443.81,69.71,444.23Z"/><path d="M65.62,440c0,.09.08.18.11.27-.23,0-.38,0-.39-.05S65.44,440.11,65.62,440Z"/><path d="M65.08,452.46a2.61,2.61,0,0,1,.27.31l-.25.1C65.1,452.71,65.09,452.58,65.08,452.46Z"/><path class="cls-9" d="M65.1,452.87a13.23,13.23,0,0,1-.16,3c-.31,1-.59,2.32-1.33,2.76-3.71,2.2-7.84,2.5-12,2-2.21-.29-1.36-2.2-1.38-3.49,0-1.61,1.21-1.13,2.08-1a13.27,13.27,0,0,0,9.64-1.67A30,30,0,0,1,65.1,452.87Z"/><path class="cls-5" d="M64.55,440.37a6.58,6.58,0,0,1,.23,1.8A7.6,7.6,0,0,1,63,442a16.9,16.9,0,0,0-11.23-.12c-1.46.52-1.61-.36-1.77-1.39-.55-3.46-1-6.93-1.69-10.37-1.73-8.76-4.29-17.4-3.54-26.49,0-.29-.3-.61-.46-.92l-.24-2c2.38-.31,4.74-.7,7.1-1.11a15.72,15.72,0,0,1,5.11-.11l-.27,2a7.16,7.16,0,0,0-.43,1.92q.49,7.29,1.13,14.57c.17,2,.12,4.09.82,5.88C59.7,429.46,62.21,434.88,64.55,440.37Z"/><path class="cls-5" d="M44.05,400.78l.24,2c-.22.2-.52.36-.64.61A60.55,60.55,0,0,0,41.18,409c-1.56,4.7-3,9.45-4.43,14.17-2.11,6.81-5,13.43-4.88,20.76,0,1.68-1.43,2.36-2.75,1.05-2.69-2.66-5.83-3.37-9.39-3.19-.3,0-.94-.65-.88-.84.93-3.21,1.52-6.61,3-9.53,4.43-8.54,5.55-17.71,6-27.07a10,10,0,0,0-.29-1.85l-.68,0-.1-1.2a22.51,22.51,0,0,1,3.48-.06A66.75,66.75,0,0,0,44.05,400.78Z"/><path d="M41.33,387.44a7,7,0,0,1-.09.91l-.67.16A12.37,12.37,0,0,1,40,386c0-8.37,0-16.74.07-25.11,0-4.47.09-8.94.05-13.41,0-1.16-.5-2.32-.49-3.48a5.72,5.72,0,0,1,.9-2,5.78,5.78,0,0,1,.75,2c0,7.58-.19,15.17-.19,22.75C41.1,373.58,41.26,380.51,41.33,387.44Z"/><path d="M41.18,444.49c.42,1.95-2,5.08-4,5.74-3.52,1.18-7,2.61-10.52,3.65-3.33,1-6.75,1.67-10.17,2.33-1.75.33-2.5-.66-2.16-2.41.45-2.35.85-4.71,1.39-7,.85-3.65,1-3.75,5.27-3.73a8,8,0,0,1,6.91,2.6,4,4,0,0,0,2.1,1c2.35.48,3.08-.08,3-2.48,0-1.73.23-2.85,2.34-2.17a11.71,11.71,0,0,0,1.19.06C38.36,442.4,40.66,442.05,41.18,444.49Z"/><path class="cls-9" d="M37,450.9l.27.72c-1.3.47-2.59,1-3.92,1.39a3.15,3.15,0,0,0-2.52,3.27c-.12,4.25-1.42,5.55-5.63,5.69-2.94.1-5.88,0-8.81,0-2,0-2.49-1.11-2.45-2.95s1.31-1.59,2.46-1.59c5.18,0,9.76-2,14.35-4.05C32.83,452.45,35,451.71,37,450.9Z"/><path d="M33.92,152.48a3.56,3.56,0,0,1,.82,0c-.25.17-.53.34-.84.53v-.05C33.91,152.77,33.92,152.62,33.92,152.48Z"/><path d="M33.92,152.48c0,.14,0,.29,0,.43V153c-2.37,1.44-6.25,3.46-8.15,4.76-7.36,5-11.34,11.78-11.11,21,.22,8.86.28,17.73,0,26.59-.27,7.71-1.15,15.41-1.77,23.11-.1,1.35-.33,2.7-.31,4.05.26,12.85.31,25.7.94,38.53.28,5.85,1.71,11.65,2.62,17.48.41,2.6.86,5.19,1.28,7.79l-.92.14c-.84-4-1.75-8-2.49-12.07-3.28-17.79-2.7-35.77-2.52-53.72,0-2.93.78-5.85,1.09-8.79.4-3.8.94-7.61,1-11.42q.21-16.55,0-33.07c-.1-7.83,3.42-13.79,9-18.72a49.74,49.74,0,0,1,6.19-4.48A18.62,18.62,0,0,1,33.92,152.48Z"/><text class="cls-10" transform="translate(195.67 113.75)">404</text><text class="cls-10" transform="translate(167.98 144.39)">Not Found</text></g></g></svg>