<svg xmlns="http://www.w3.org/2000/svg" viewBox="0 0 102.01 261.05"><defs><style>.cls-1{fill:#fff;}.cls-2{fill:#f9f7f0;}.cls-3{fill:none;stroke:#000;stroke-linecap:round;stroke-linejoin:round;stroke-width:0.75px;}.cls-4{fill:#ffe3c8;}.cls-5{fill:#cdd9db;}.cls-6{fill:#2eb8fd;}.cls-7{fill:#999;}.cls-8{fill:#f596aa;}</style></defs><g id="Layer_2" data-name="Layer 2"><g id="People"><path class="cls-1" d="M93.45,22.3a3.36,3.36,0,0,1-1.06.55h0a2.1,2.1,0,0,1-1.71-.22l-.08-.06A2.06,2.06,0,0,1,90,22a2.17,2.17,0,0,1-.31-1V21a1.75,1.75,0,0,1,.31-1,1.16,1.16,0,0,1,.6-.5l.1,0a1.85,1.85,0,0,1-.7-.74,1,1,0,0,1-.11-.27,2.23,2.23,0,0,0-.08-.45h0a1.59,1.59,0,0,1,.19-.83,1.1,1.1,0,0,1,.33-.38.9.9,0,0,1,.53-.17l.19,0a2.12,2.12,0,0,1-.74-1.47,2.4,2.4,0,0,1,.08-.93,2.15,2.15,0,0,1,1.8-1.53,2.33,2.33,0,0,1,1,.16h0a4.51,4.51,0,0,1,1,.59,5.19,5.19,0,0,1,.46.36,8.23,8.23,0,0,1,1.12,1.09,4.75,4.75,0,0,1,.63,1,7.4,7.4,0,0,1,.45,4.36c-.21,1.47-.62,2.9-.76,4.38a5,5,0,0,0,.16,2.08,1.83,1.83,0,0,0,1.34,1.29h0a1.44,1.44,0,0,1-.87-1.23,1.7,1.7,0,0,1,.78-1.58,1.51,1.51,0,0,1,1.62.1,2.43,2.43,0,0,1,.92,1.56,3.14,3.14,0,0,1-1.29,3L98.6,30a2.71,2.71,0,0,1-.87.25,3,3,0,0,1-2.34-.84A4.08,4.08,0,0,1,94.46,28h0A5.62,5.62,0,0,1,94,25.92a7.93,7.93,0,0,1,.12-1.62h0a5.82,5.82,0,0,0,.81-2.21L93.83,22Zm-.08-7.49s0,.09.08.14h0a2.17,2.17,0,0,1,.07.24,1.27,1.27,0,0,1,0,.2,1.51,1.51,0,0,1-.08.48,1.9,1.9,0,0,1-.21.4,1.51,1.51,0,0,1-.85.57,1.47,1.47,0,0,1-.88,0,.46.46,0,0,0,.07.07,1.09,1.09,0,0,1,.18.86,1.9,1.9,0,0,0,.63.11,2.14,2.14,0,0,0,1.06-.29,2.19,2.19,0,0,0,.39-.29,2.6,2.6,0,0,0,.62-1c0-.13.08-.27.11-.41a1,1,0,0,0-.11-.7.77.77,0,0,0-1-.38l-.07,0Zm-1.68,4.84a1.12,1.12,0,0,1,.39,1.11,1.55,1.55,0,0,0,.31.06h.11a1.79,1.79,0,0,0,1-.31l.15-.1a3.27,3.27,0,0,0,.86-1h0a3.6,3.6,0,0,0,.42-1c0-.15.06-.32.09-.48,0-.34-.31-.5-.51-.3a.12.12,0,0,0-.06.08,4.21,4.21,0,0,1-1,1.17,3.82,3.82,0,0,1-1.06.6A2.85,2.85,0,0,1,91.69,19.65Z"/><path class="cls-1" d="M92.08,96.59a1.14,1.14,0,0,1,0,.52,1.19,1.19,0,0,1-.38.59,2.85,2.85,0,0,1,.7.12,2.13,2.13,0,0,1,.41.18,3,3,0,0,1,.65.42,4.21,4.21,0,0,1,1,1.17.12.12,0,0,0,.06.08c.2.2.54,0,.51-.3,0-.16,0-.33-.09-.48a3.6,3.6,0,0,0-.42-1,3.27,3.27,0,0,0-.86-.95l-.15-.11a1.86,1.86,0,0,0-1-.3h-.11A1.55,1.55,0,0,0,92.08,96.59Zm2.82-1.32a5.87,5.87,0,0,0-.81-2.22A8,8,0,0,1,94,91.43a5.53,5.53,0,0,1,.49-2.11A4.08,4.08,0,0,1,95.39,88a3,3,0,0,1,2.34-.84,2.48,2.48,0,0,1,.87.25l.23.14a3.14,3.14,0,0,1,1.29,3,2.43,2.43,0,0,1-.92,1.56,1.53,1.53,0,0,1-1.62.1,1.7,1.7,0,0,1-.78-1.58,1.41,1.41,0,0,1,.87-1.22h0a1.83,1.83,0,0,0-1.34,1.29,5,5,0,0,0-.16,2.08c.14,1.48.55,2.91.76,4.38a7.41,7.41,0,0,1-.45,4.36,4.75,4.75,0,0,1-.63,1,8.23,8.23,0,0,1-1.12,1.09,5.19,5.19,0,0,1-.46.36,4.51,4.51,0,0,1-1,.59,2.33,2.33,0,0,1-1,.16,2.15,2.15,0,0,1-1.8-1.53,2.42,2.42,0,0,1-.08-.93,2.12,2.12,0,0,1,.74-1.47h0a.93.93,0,0,1-.72-.15,1.1,1.1,0,0,1-.33-.38,1.59,1.59,0,0,1-.19-.83h0a2.11,2.11,0,0,0,.08-.45,1,1,0,0,1,.11-.27,1.85,1.85,0,0,1,.7-.74l-.1,0a1.28,1.28,0,0,1-.6-.51,1.78,1.78,0,0,1-.31-1.06,2.1,2.1,0,0,1,.31-1h0a2,2,0,0,1,.53-.58l.08-.06a2.1,2.1,0,0,1,1.71-.22h0a3.36,3.36,0,0,1,1.06.55l.38.31ZM91.76,99.6a1.1,1.1,0,0,1-.18.87.46.46,0,0,0-.07.07,1.47,1.47,0,0,1,.88,0,1.51,1.51,0,0,1,.85.57,1.69,1.69,0,0,1,.21.4,1.57,1.57,0,0,1,.07.68,2.17,2.17,0,0,1-.07.24h0s0,.1-.08.14h0a.78.78,0,0,0,1.08-.34,1,1,0,0,0,.11-.7c0-.14-.07-.28-.11-.41a2.6,2.6,0,0,0-.62-1,1.8,1.8,0,0,0-.39-.29,2.14,2.14,0,0,0-1.06-.29A2.19,2.19,0,0,0,91.76,99.6Z"/><path class="cls-1" d="M97.73,30.2v57a3,3,0,0,0-2.34.84,4.08,4.08,0,0,0-.93,1.33V28a4.08,4.08,0,0,0,.93,1.33A3,3,0,0,0,97.73,30.2Z"/><path class="cls-1" d="M94.66,9a6.85,6.85,0,0,1,1.17,5.81,8.23,8.23,0,0,0-1.12-1.09,5.19,5.19,0,0,0-.46-.36l.2-.07A1.16,1.16,0,0,0,95,11.89a.92.92,0,0,0-1.25-.59,1.17,1.17,0,0,0-.52,1.43.2.2,0,0,0,0,.08,2.33,2.33,0,0,0-1-.16,2.15,2.15,0,0,0-1.8,1.53,2.4,2.4,0,0,0-.08.93,2.12,2.12,0,0,0,.74,1.47l-.19,0a.9.9,0,0,0-.53.17,1.1,1.1,0,0,0-.33.38V16a1.55,1.55,0,0,0,.16-.86,1.58,1.58,0,0,0-.09-.42s0-.11-.07-.17v-.81A2.3,2.3,0,0,0,91.46,12a3.74,3.74,0,0,0,0-1.63.85.85,0,0,0,.86.07A1.16,1.16,0,0,0,92.8,9a.92.92,0,0,0-1.25-.59,1.07,1.07,0,0,0-.55.69A1,1,0,0,0,91,9a8.66,8.66,0,0,0-1-1.83A5,5,0,0,1,94.66,9Z"/><path class="cls-1" d="M95.83,102.5a6.85,6.85,0,0,1-1.17,5.81A5,5,0,0,1,90,110.16a9.09,9.09,0,0,0,1-1.82s0-.08,0-.11a1.07,1.07,0,0,0,.55.69.91.91,0,0,0,1.25-.59,1.16,1.16,0,0,0-.52-1.43.85.85,0,0,0-.86.07,3.74,3.74,0,0,0,0-1.63,2.3,2.3,0,0,0-1.42-1.7v-.81h0a.67.67,0,0,0,.07-.17,1.43,1.43,0,0,0,.09-.41,1.55,1.55,0,0,0-.16-.86h0v-1.13a1.1,1.1,0,0,0,.33.38.93.93,0,0,0,.72.15h0a2.12,2.12,0,0,0-.74,1.47,2.42,2.42,0,0,0,.08.93,2.15,2.15,0,0,0,1.8,1.53,2.33,2.33,0,0,0,1-.16.2.2,0,0,0,0,.08,1.17,1.17,0,0,0,.52,1.43.92.92,0,0,0,1.25-.6,1.16,1.16,0,0,0-.52-1.43l-.2-.07a5.19,5.19,0,0,0,.46-.36A8.23,8.23,0,0,0,95.83,102.5Z"/><path class="cls-1" d="M92.39,25.9a2.69,2.69,0,0,1-2.07.23A1.75,1.75,0,0,1,90,26a2.32,2.32,0,0,1-1.22-2.06,1.8,1.8,0,0,1,.52-1.24,1.12,1.12,0,0,1,.7-.29.9.9,0,0,1,.47.13l0,0a1.08,1.08,0,0,1,.4,1.16v0a1.3,1.3,0,0,0,.67.24,1.59,1.59,0,0,0,.76-.17,2.43,2.43,0,0,0,.71-.54,4.42,4.42,0,0,0,.35-.47,3.47,3.47,0,0,0,.38-.83l1.07.09a5.82,5.82,0,0,1-.81,2.21h0a5.07,5.07,0,0,1-.64.81,3.93,3.93,0,0,1-.63.53A2.73,2.73,0,0,1,92.39,25.9Z"/><path class="cls-1" d="M90,91.34a1.69,1.69,0,0,1,.28-.12,2.64,2.64,0,0,1,2.07.23,2.73,2.73,0,0,1,.43.26,3.93,3.93,0,0,1,.63.53,5.07,5.07,0,0,1,.64.81,5.87,5.87,0,0,1,.81,2.22l-1.07.09a3.3,3.3,0,0,0-.38-.83,4.42,4.42,0,0,0-.35-.47,2.27,2.27,0,0,0-.71-.54,1.48,1.48,0,0,0-.76-.17,1.22,1.22,0,0,0-.67.24.75.75,0,0,0-1-.52l-1.12,0A2.33,2.33,0,0,1,90,91.34Z"/><path class="cls-1" d="M94.46,28V89.32A5.53,5.53,0,0,0,94,91.43a8,8,0,0,0,.12,1.62,5.07,5.07,0,0,0-.64-.81V25.11a5.07,5.07,0,0,0,.64-.81A7.93,7.93,0,0,0,94,25.92,5.62,5.62,0,0,0,94.46,28Z"/><path class="cls-1" d="M93.45,96.82v1.6A3,3,0,0,0,92.8,98a2.13,2.13,0,0,0-.41-.18v-1.3h.11A1.86,1.86,0,0,1,93.45,96.82Z"/><path class="cls-1" d="M93.45,25.11V92.24a3.93,3.93,0,0,0-.63-.53,2.73,2.73,0,0,0-.43-.26V25.9a2.73,2.73,0,0,0,.43-.26A3.93,3.93,0,0,0,93.45,25.11Z"/><path class="cls-1" d="M92.39,89.1v2.35a2.64,2.64,0,0,0-2.07-.23,1.69,1.69,0,0,0-.28.12V89.61c.73,0,1.3-.24,1.3-.51Z"/><path class="cls-1" d="M92.39,86.2v2.9h-1c0-.28-.57-.49-1.3-.51V86.71c.73,0,1.3-.24,1.3-.51Z"/><path class="cls-1" d="M92.39,83.3v2.9h-1c0-.27-.57-.49-1.3-.51V83.82c.73,0,1.3-.24,1.3-.52Z"/><path class="cls-1" d="M92.39,80.4v2.9h-1c0-.27-.57-.5-1.3-.51V80.91c.73,0,1.3-.23,1.3-.51Z"/><path class="cls-1" d="M92.39,77.5v2.9h-1c0-.27-.57-.49-1.3-.51V78c.73,0,1.3-.23,1.3-.51Z"/><path class="cls-1" d="M92.39,74.61V77.5h-1c0-.27-.57-.49-1.3-.51V75.12c.73,0,1.3-.24,1.3-.51Z"/><path class="cls-1" d="M92.39,71.7v2.91h-1c0-.28-.57-.5-1.3-.51V72.21c.73,0,1.3-.23,1.3-.51Z"/><path class="cls-1" d="M92.39,68.8v2.9h-1c0-.27-.57-.49-1.3-.51V69.31c.73,0,1.3-.23,1.3-.51Z"/><path class="cls-1" d="M92.39,65.91V68.8h-1c0-.27-.57-.49-1.3-.5V66.42c.73,0,1.3-.24,1.3-.51Z"/><path class="cls-1" d="M92.39,63v2.9h-1c0-.28-.57-.5-1.3-.51V63.52c.73,0,1.3-.24,1.3-.51Z"/><path class="cls-1" d="M92.39,60.11V63h-1c0-.28-.57-.5-1.3-.51V60.62c.73,0,1.3-.24,1.3-.51Z"/><path class="cls-1" d="M92.39,57.21v2.9h-1c0-.28-.57-.5-1.3-.51V57.72c.73,0,1.3-.24,1.3-.51Z"/><path class="cls-1" d="M92.39,54.31v2.9h-1c0-.27-.57-.5-1.3-.51V54.82c.73,0,1.3-.24,1.3-.51Z"/><path class="cls-1" d="M92.39,51.41v2.9h-1c0-.28-.57-.5-1.3-.51V51.92c.73,0,1.3-.24,1.3-.51Z"/><path class="cls-1" d="M92.39,48.51v2.9h-1c0-.28-.57-.5-1.3-.51V49c.73,0,1.3-.24,1.3-.51Z"/><path class="cls-1" d="M92.39,45.61v2.9h-1c0-.27-.57-.5-1.3-.51V46.12c.73,0,1.3-.23,1.3-.51Z"/><path class="cls-1" d="M92.39,42.71v2.9h-1c0-.27-.57-.5-1.3-.51V43.22c.73,0,1.3-.23,1.3-.51Z"/><path class="cls-1" d="M92.39,39.81v2.9h-1c0-.27-.57-.49-1.3-.51V40.32c.73,0,1.3-.24,1.3-.51Z"/><path class="cls-1" d="M92.39,36.91v2.9h-1c0-.27-.57-.5-1.3-.51V37.42c.73,0,1.3-.23,1.3-.51Z"/><path class="cls-1" d="M92.39,34v2.9h-1c0-.27-.57-.5-1.3-.51V34.52c.73,0,1.3-.24,1.3-.51Z"/><path class="cls-1" d="M92.39,31.11V34h-1c0-.27-.57-.49-1.3-.51V31.62c.73,0,1.3-.23,1.3-.51Z"/><path class="cls-1" d="M92.39,28.21v2.9h-1c0-.27-.57-.49-1.3-.51V28.72c.73,0,1.3-.23,1.3-.51Z"/><path class="cls-1" d="M92.39,25.9v2.31h-1c0-.27-.57-.49-1.3-.5V26a1.75,1.75,0,0,0,.28.13A2.69,2.69,0,0,0,92.39,25.9Z"/><path class="cls-1" d="M89.81,10.34v0A1,1,0,0,0,90,9.49l1.16-.06a7.5,7.5,0,0,1,.3,1,3.74,3.74,0,0,1,0,1.63A2.3,2.3,0,0,1,90,13.71l-.21.06a1.82,1.82,0,0,1-2-1.18,1.14,1.14,0,0,0-.12-.52h0a2,2,0,0,1,.77-1.85,1.08,1.08,0,0,1,1-.12A.83.83,0,0,1,89.81,10.34Z"/><path class="cls-1" d="M89.81,107a.71.71,0,0,1-.29.23,1,1,0,0,1-1-.12,2,2,0,0,1-.77-1.85h0a1.1,1.1,0,0,0,.12-.51h0a1.83,1.83,0,0,1,2-1.18l.21.06a2.3,2.3,0,0,1,1.42,1.7,3.74,3.74,0,0,1,0,1.63,7.65,7.65,0,0,1-.3,1l-1.16-.1a1,1,0,0,0-.14-.81Z"/><path class="cls-1" d="M87.61,8.09A.3.3,0,0,0,87.39,8H87a2.4,2.4,0,0,0-.53.12h0a3,3,0,0,0-1.37,1l-.15.19a2.57,2.57,0,0,0-.4,1,1.91,1.91,0,0,0,0,.48.76.76,0,0,1,.44.11,1.07,1.07,0,0,1,.44.54,3.7,3.7,0,0,1,.46-1.21,4,4,0,0,1,.73-.9,4.2,4.2,0,0,1,.92-.61A.38.38,0,0,0,87.61,8.09Zm-3.9-.8a4.11,4.11,0,0,0-1.89.51,4.84,4.84,0,0,1-1.42-.16,4.2,4.2,0,0,1-1.71-.92,4.37,4.37,0,0,1-1-1.3,4.4,4.4,0,0,1-.38-2.3,3.67,3.67,0,0,1,.37-1.26l.09-.17a2.43,2.43,0,0,1,3-1.14A2.26,2.26,0,0,1,82,1.87a2.19,2.19,0,0,1-.21,1.84,1.34,1.34,0,0,1-1.49.6,1.44,1.44,0,0,1-.9-1.21v0a2.08,2.08,0,0,0,.87,1.74A3.42,3.42,0,0,0,82,5.43c1.29.12,2.6-.09,3.89-.06a5.25,5.25,0,0,1,3.66,1.3,5.59,5.59,0,0,1,.45.52A8.66,8.66,0,0,1,91,9a1,1,0,0,1,0,.1,2.85,2.85,0,0,1,.12.31L90,9.49a.82.82,0,0,0-.1-.24.78.78,0,0,0-.72-.45,2.1,2.1,0,0,0-1.21.45l-.14.12A2.81,2.81,0,0,0,87,11.62a.85.85,0,0,1,.71.36v0a.25.25,0,0,1,0,.07,1.14,1.14,0,0,1,.12.52,1.2,1.2,0,0,1-.26.78,1.06,1.06,0,0,1-1,.4,1.42,1.42,0,0,0-.4-.12h0a1.82,1.82,0,0,1-.86-1.17l0,.09a1.33,1.33,0,0,1-1.51.74,1.86,1.86,0,0,1-1.2-1.21l0-.12a3.1,3.1,0,0,1,.12-2,3.68,3.68,0,0,1,.4-.76,4.3,4.3,0,0,1,.61-.73Z"/><path class="cls-1" d="M84.48,106.64a1.93,1.93,0,0,0,0,.48,2.28,2.28,0,0,0,.38.94,2,2,0,0,0,.17.23,3,3,0,0,0,1.27.93,2.38,2.38,0,0,0,.64.15,2.06,2.06,0,0,0,.43,0,.28.28,0,0,0,.24-.16.37.37,0,0,0-.16-.51,4.28,4.28,0,0,1-1-.65h0a3.84,3.84,0,0,1-.69-.86,3.7,3.7,0,0,1-.46-1.21,1.07,1.07,0,0,1-.44.54A.76.76,0,0,1,84.48,106.64Zm-5.12,7.61a1.44,1.44,0,0,1,.9-1.21,1.34,1.34,0,0,1,1.49.6,2.19,2.19,0,0,1,.21,1.84,2.26,2.26,0,0,1-1.17,1.32,2.43,2.43,0,0,1-3-1.14l-.11-.2a3.69,3.69,0,0,1-.35-1.27,4.15,4.15,0,0,1,1.4-3.6h0a4.24,4.24,0,0,1,1.66-.88,4.84,4.84,0,0,1,1.42-.16,4.11,4.11,0,0,0,1.89.51l0-1.23a4.29,4.29,0,0,1-.64-.77,3.77,3.77,0,0,1-.37-.72,3.1,3.1,0,0,1-.12-2l0-.1a1.81,1.81,0,0,1,1.2-1.23,1.33,1.33,0,0,1,1.51.74l0,.09a1.44,1.44,0,0,1,.09.58l1.07.07a.66.66,0,0,0,.46.21,2.82,2.82,0,0,0,.78,2.25l.09.08a2,2,0,0,0,1.26.49.81.81,0,0,0,.74-.49.63.63,0,0,0,.08-.23l1.16.1c0,.1-.08.2-.12.3s0,.07,0,.11a9.09,9.09,0,0,1-1,1.82,5.59,5.59,0,0,1-.45.52,5.25,5.25,0,0,1-3.66,1.3c-1.29,0-2.6-.17-3.89-.06a3.33,3.33,0,0,0-1.75.56,2.07,2.07,0,0,0-.87,1.74Z"/><path class="cls-1" d="M91,93.61a1.09,1.09,0,0,1-.4,1.16l0,0a.81.81,0,0,1-.47.12,1.05,1.05,0,0,1-.7-.28,1.8,1.8,0,0,1-.52-1.24,1.5,1.5,0,0,1,0-.37l1.12,0a.75.75,0,0,1,1,.52Z"/><path class="cls-1" d="M90.2,15.11A1.55,1.55,0,0,1,90,16a1.27,1.27,0,0,1-.61.62,1.21,1.21,0,0,1-1.66-.79,1.52,1.52,0,0,1-.1-.55,1.47,1.47,0,0,1,.79-1.34,1.18,1.18,0,0,1,1.58.61c0,.06,0,.12.07.17A1.58,1.58,0,0,1,90.2,15.11Z"/><path class="cls-1" d="M90,101.38a1.55,1.55,0,0,1,.16.86,1.43,1.43,0,0,1-.09.41.67.67,0,0,1-.07.17h0a1.19,1.19,0,0,1-1.58.61,1.48,1.48,0,0,1-.79-1.33,1.63,1.63,0,0,1,.1-.57,1.22,1.22,0,0,1,1.66-.78,1.29,1.29,0,0,1,.61.61Z"/><path class="cls-1" d="M90,102.83v.81l-.21-.06a1.83,1.83,0,0,0-2,1.18,1.21,1.21,0,0,0-.26-.79,1.08,1.08,0,0,0-1-.39,1.52,1.52,0,0,0,.86-1.47,1.26,1.26,0,0,0-.16-.58.9.9,0,0,0-1.16-.41.83.83,0,0,0-.15.11h0a2.09,2.09,0,0,1,.41-1.53,1.51,1.51,0,0,1,1.25-.57,1.14,1.14,0,0,0,.54,1.22,1,1,0,0,0,1.22-.24,1.57,1.57,0,0,0,.4-.7,1.59,1.59,0,0,0,.19.83v1.13a1.29,1.29,0,0,0-.61-.61,1.22,1.22,0,0,0-1.66.78,1.63,1.63,0,0,0-.1.57,1.48,1.48,0,0,0,.79,1.33A1.19,1.19,0,0,0,90,102.83Z"/><path class="cls-1" d="M90,97.41v1.27a1,1,0,0,0-.11.27v-.19a1.92,1.92,0,0,0-.07-.48,2.21,2.21,0,0,0-1.19-1.49c-.88-.4-2.21.1-3.24,1.33V19.22A3.62,3.62,0,0,0,88,20.69a1.59,1.59,0,0,0,.66-.13,2.21,2.21,0,0,0,1.19-1.49,1.92,1.92,0,0,0,.07-.48V18.4a1,1,0,0,0,.11.27v1.27a1.75,1.75,0,0,0-.31,1V21A2.17,2.17,0,0,0,90,22v.41a1.12,1.12,0,0,0-.7.29,1.8,1.8,0,0,0-.52,1.24A2.32,2.32,0,0,0,90,26V91.34A2.33,2.33,0,0,0,88.85,93a1.5,1.5,0,0,0,0,.37,1.8,1.8,0,0,0,.52,1.24,1.05,1.05,0,0,0,.7.28v.43h0a2.1,2.1,0,0,0-.31,1A1.78,1.78,0,0,0,90,97.41Z"/><path class="cls-1" d="M90,9.49a1,1,0,0,1-.14.83v0a.83.83,0,0,0-.29-.24,1.08,1.08,0,0,0-1,.12,2,2,0,0,0-.77,1.85h0a.25.25,0,0,0,0-.07v0a.85.85,0,0,0-.71-.36,2.81,2.81,0,0,1,.78-2.25l.14-.12h1.93A.82.82,0,0,1,90,9.49Z"/><path class="cls-1" d="M89.93,98.76V99a2.11,2.11,0,0,1-.08.45h0a1.57,1.57,0,0,1-.4.7,1,1,0,0,1-1.22.24,1.14,1.14,0,0,1-.54-1.22v0a.79.79,0,0,1,1-.6l1.12-.23A1.92,1.92,0,0,1,89.93,98.76Z"/><path class="cls-1" d="M89.93,18.4v.19a1.92,1.92,0,0,1-.07.48l-1.12-.23a.79.79,0,0,1-1-.6s0,0,0,0A1.13,1.13,0,0,1,88.23,17a1,1,0,0,1,1.22.24,1.57,1.57,0,0,1,.4.7h0A2.23,2.23,0,0,1,89.93,18.4Z"/><path class="cls-1" d="M86,16.12a2.1,2.1,0,0,0,.41,1.53,1.54,1.54,0,0,0,1.25.57s0,0,0,0a.79.79,0,0,0,1,.6l1.12.23a2.21,2.21,0,0,1-1.19,1.49,1.59,1.59,0,0,1-.66.13,3.62,3.62,0,0,1-2.58-1.47,1.84,1.84,0,0,1-.17-.22,6.13,6.13,0,0,1-1-1.87,3.39,3.39,0,0,1,0-2.35,1.91,1.91,0,0,1,1.89-1.13h0a1.42,1.42,0,0,1,.4.12,1.54,1.54,0,0,1,.67.62,1.56,1.56,0,0,1,.19.85,1.26,1.26,0,0,1-.16.58.9.9,0,0,1-1.16.41.83.83,0,0,1-.15-.11Z"/><path class="cls-1" d="M86,101.23h0a.83.83,0,0,1,.15-.11.9.9,0,0,1,1.16.41,1.26,1.26,0,0,1,.16.58,1.52,1.52,0,0,1-.86,1.47,1.42,1.42,0,0,1-.4.12h0a1.94,1.94,0,0,1-1.89-1.13,3.37,3.37,0,0,1,0-2.38,5.84,5.84,0,0,1,.94-1.84c0-.08.11-.15.17-.23,1-1.23,2.36-1.73,3.24-1.33a2.21,2.21,0,0,1,1.19,1.49l-1.12.23a.79.79,0,0,0-1,.6v0a1.51,1.51,0,0,0-1.25.57A2.09,2.09,0,0,0,86,101.23Z"/><path class="cls-1" d="M87.88,104.76h0a1.1,1.1,0,0,1-.12.51.05.05,0,0,1,0,0,.17.17,0,0,0,0,0,.84.84,0,0,1-.71.37.66.66,0,0,1-.46-.21l-1.07-.07a1.44,1.44,0,0,0-.09-.58,1.89,1.89,0,0,1,.85-1.17h0a1.42,1.42,0,0,0,.4-.12,1.08,1.08,0,0,1,1,.39A1.21,1.21,0,0,1,87.88,104.76Z"/><path class="cls-1" d="M87.47,108.71a.37.37,0,0,1,.16.51H86.32a3,3,0,0,1-1.27-.93,2,2,0,0,1-.17-.23h1.63A4.28,4.28,0,0,0,87.47,108.71Z"/><path class="cls-1" d="M84.91,9.25h1.64a4,4,0,0,0-.73.9,3.7,3.7,0,0,0-.46,1.21,1.07,1.07,0,0,0-.44-.54.76.76,0,0,0-.44-.11,1.91,1.91,0,0,1,0-.48,2.57,2.57,0,0,1,.4-1Z"/><path class="cls-1" d="M86.25,13.65h0a1.91,1.91,0,0,0-1.89,1.13,3.39,3.39,0,0,0,0,2.35H30.13a4.49,4.49,0,0,0,.19-1.26,2.44,2.44,0,0,0-.22-1.09,2.24,2.24,0,0,0-.94-1,1.65,1.65,0,0,0-.95-.17h0A1.8,1.8,0,0,0,29,12.48l.05.09a1.31,1.31,0,0,0,1.5.74A1.89,1.89,0,0,0,31.82,12h0l-.06.16a1.41,1.41,0,0,0,.35,1.29,1.33,1.33,0,0,0,1.16.36A1.75,1.75,0,0,0,34,13.5a2.52,2.52,0,0,0,.88-1.5H79.6a2.9,2.9,0,0,0,.28.78,1.92,1.92,0,0,0,1.28,1,1.33,1.33,0,0,0,1.16-.36,1.41,1.41,0,0,0,.35-1.29s0,0,0-.06h0a1.86,1.86,0,0,0,1.2,1.21,1.33,1.33,0,0,0,1.51-.74l0-.09A1.82,1.82,0,0,0,86.25,13.65Z"/><path class="cls-1" d="M86.23,103.7h0a1.89,1.89,0,0,0-.85,1.17l0-.09a1.33,1.33,0,0,0-1.51-.74,1.81,1.81,0,0,0-1.2,1.23h0a.19.19,0,0,1,0-.08,1.41,1.41,0,0,0-.35-1.29,1.33,1.33,0,0,0-1.16-.36,1.88,1.88,0,0,0-1.26,1,2.49,2.49,0,0,0-.29.76H34.83a2.49,2.49,0,0,0-.89-1.47,1.65,1.65,0,0,0-.66-.3,1.33,1.33,0,0,0-1.16.36,1.41,1.41,0,0,0-.35,1.29.19.19,0,0,1,0,.08h0a1.81,1.81,0,0,0-1.2-1.23,1.31,1.31,0,0,0-1.5.74l-.05.09a1.8,1.8,0,0,0-.85-1.17h0a1.62,1.62,0,0,0,.94-.17,2.26,2.26,0,0,0,1-1,3.37,3.37,0,0,0,0-2.38h54.2a3.37,3.37,0,0,0,0,2.38A1.94,1.94,0,0,0,86.23,103.7Z"/><path class="cls-2" d="M85.43,19.22v78.9c-.06.08-.12.15-.17.23a5.84,5.84,0,0,0-.94,1.84H30.12a5.84,5.84,0,0,0-.94-1.84c-.1-.13-.2-.26-.31-.38V19.38a3.93,3.93,0,0,0,.31-.38,5.91,5.91,0,0,0,.95-1.87H84.31a6.13,6.13,0,0,0,1,1.87A1.84,1.84,0,0,0,85.43,19.22Z"/><path class="cls-1" d="M83.71,7.29l0,1.23a2.68,2.68,0,0,0-1.25.59l-.17.14a2.42,2.42,0,0,0-.71,1.38,2,2,0,0,0,.08.8.88.88,0,0,0-.62,1l-1.2.33a2.71,2.71,0,0,1-.32-1.07,3.9,3.9,0,0,1,.68-2.46L80.43,9a4.4,4.4,0,0,1,.93-.9h0c.15-.1.3-.2.46-.29A4.11,4.11,0,0,1,83.71,7.29Z"/><path class="cls-1" d="M83.75,108.83l0,1.23a4.11,4.11,0,0,1-1.89-.51,4.45,4.45,0,0,1-.51-.33h0a4.21,4.21,0,0,1-.88-.86c-.07-.1-.15-.2-.21-.3a3.84,3.84,0,0,1-.66-2.43,1.77,1.77,0,0,1,0-.32,2.49,2.49,0,0,1,.29-.76l1.18.34a.89.89,0,0,0,.62,1,2,2,0,0,0-.08.8,2.37,2.37,0,0,0,.68,1.34,1.12,1.12,0,0,0,.2.18A2.68,2.68,0,0,0,83.75,108.83Z"/><path class="cls-1" d="M82.67,12.16a1.41,1.41,0,0,1-.35,1.29,1.33,1.33,0,0,1-1.16.36,1.92,1.92,0,0,1-1.28-1l1.2-.33a.88.88,0,0,1,.62-1h0a.92.92,0,0,1,.93.67S82.66,12.14,82.67,12.16Z"/><path class="cls-1" d="M82.32,103.9a1.41,1.41,0,0,1,.35,1.29.19.19,0,0,0,0,.08.91.91,0,0,1-.93.65h0a.89.89,0,0,1-.62-1l-1.18-.34a1.88,1.88,0,0,1,1.26-1A1.33,1.33,0,0,1,82.32,103.9Z"/><path class="cls-1" d="M80.4,7.64a4.84,4.84,0,0,0,1.42.16c-.16.09-.31.19-.46.29H33.08l-.45-.29A4.81,4.81,0,0,0,34,7.64a4.2,4.2,0,0,0,1.71-.92H78.69A4.2,4.2,0,0,0,80.4,7.64Z"/><path class="cls-1" d="M81.82,109.55a4.84,4.84,0,0,0-1.42.16,4.24,4.24,0,0,0-1.66.88h-43a4.24,4.24,0,0,0-1.66-.88,4.81,4.81,0,0,0-1.41-.16,5.39,5.39,0,0,0,.5-.33H81.31A4.45,4.45,0,0,0,81.82,109.55Z"/><path class="cls-1" d="M81.31,109.22H33.13a4.21,4.21,0,0,0,.88-.86l.22-.3h46c.06.1.14.2.21.3A4.21,4.21,0,0,0,81.31,109.22Z"/><path class="cls-1" d="M75.91,9.25h4.33a3.9,3.9,0,0,0-.68,2.46,2.89,2.89,0,0,0,0,.29H76.35c0-.84-.2-1.52-.44-1.52Z"/><path class="cls-1" d="M80.22,108.06H75.91V107c.24,0,.44-.7.44-1.57v-.09h3.26a1.77,1.77,0,0,0,0,.32A3.84,3.84,0,0,0,80.22,108.06Z"/><path class="cls-1" d="M35.71,110.59h43a4.15,4.15,0,0,0-1.4,3.6H37.11a4.15,4.15,0,0,0-1.4-3.6Z"/><path class="cls-1" d="M78.69,6.72H35.75a4.21,4.21,0,0,0,1-1.3,4.3,4.3,0,0,0,.38-2.3H77.33a4.4,4.4,0,0,0,.38,2.3A4.37,4.37,0,0,0,78.69,6.72Z"/><path class="cls-1" d="M75.91,107v1.09H73.38V107c.25,0,.45-.7.45-1.57a.28.28,0,0,0,0-.09h1.65a.28.28,0,0,0,0,.09C75.46,106.27,75.66,107,75.91,107Z"/><path class="cls-1" d="M75.91,9.25v1.23c-.24,0-.44.68-.45,1.52H73.83c0-.84-.21-1.52-.45-1.52V9.25Z"/><path class="cls-1" d="M73.38,107v1.09H70.85V107c.25,0,.45-.7.45-1.57v-.09h1.64v.09C72.94,106.27,73.14,107,73.38,107Z"/><path class="cls-1" d="M73.38,9.25v1.23c-.24,0-.44.68-.44,1.52H71.3c0-.84-.2-1.52-.45-1.52V9.25Z"/><path class="cls-1" d="M70.85,107v1.09H68.32V107c.25,0,.45-.7.45-1.57v-.09h1.64v.09C70.41,106.27,70.61,107,70.85,107Z"/><path class="cls-1" d="M70.85,9.25v1.23c-.24,0-.44.68-.44,1.52H68.77c0-.84-.2-1.52-.45-1.52V9.25Z"/><path class="cls-1" d="M68.32,107v1.09H65.8V107c.24,0,.44-.7.44-1.57v-.09h1.64v.09C67.88,106.27,68.08,107,68.32,107Z"/><path class="cls-1" d="M68.32,9.25v1.23c-.24,0-.43.68-.44,1.52H66.24c0-.84-.2-1.52-.44-1.52V9.25Z"/><path class="cls-1" d="M65.8,107v1.09H63.27V107c.25,0,.44-.7.44-1.57v-.09h1.64v.09C65.35,106.27,65.55,107,65.8,107Z"/><path class="cls-1" d="M65.8,9.25v1.23c-.24,0-.44.68-.45,1.52H63.71c0-.84-.2-1.52-.44-1.52V9.25Z"/><path class="cls-1" d="M63.27,107v1.09H60.74V107c.25,0,.45-.7.45-1.57v-.09h1.64a.28.28,0,0,0,0,.09C62.82,106.27,63,107,63.27,107Z"/><path class="cls-1" d="M63.27,9.25v1.23c-.24,0-.44.68-.45,1.52H61.19c0-.84-.21-1.52-.45-1.52V9.25Z"/><path class="cls-1" d="M60.74,107v1.09H58.22V107c.25,0,.44-.7.44-1.57v-.09H60.3v.09C60.3,106.27,60.5,107,60.74,107Z"/><path class="cls-1" d="M60.74,9.25v1.23c-.23,0-.43.68-.44,1.52H58.66c0-.84-.2-1.52-.44-1.52V9.25Z"/><path class="cls-1" d="M58.22,107v1.09H55.69V107c.24,0,.44-.7.44-1.57v-.09h1.65a.28.28,0,0,0,0,.09C57.77,106.27,58,107,58.22,107Z"/><path class="cls-1" d="M58.22,9.25v1.23c-.25,0-.44.68-.45,1.52H56.13c0-.84-.2-1.52-.44-1.52V9.25Z"/><path class="cls-1" d="M55.69,107v1.09H53.16V107c.25,0,.45-.7.45-1.57a.28.28,0,0,0,0-.09h1.65v.09C55.25,106.27,55.44,107,55.69,107Z"/><path class="cls-1" d="M55.69,9.25v1.23c-.24,0-.44.68-.44,1.52H53.61c0-.84-.21-1.52-.45-1.52V9.25Z"/><path class="cls-1" d="M53.16,107v1.09H50.63V107c.25,0,.45-.7.45-1.57v-.09h1.64v.09C52.72,106.27,52.92,107,53.16,107Z"/><path class="cls-1" d="M53.16,9.25v1.23c-.24,0-.44.68-.44,1.52H51.08c0-.84-.21-1.52-.45-1.52V9.25Z"/><path class="cls-1" d="M50.63,107v1.09H48.11V107c.24,0,.44-.7.44-1.57v-.09h1.64v.09C50.19,106.27,50.39,107,50.63,107Z"/><path class="cls-1" d="M50.63,9.25v1.23c-.24,0-.43.68-.44,1.52H48.55c0-.84-.2-1.52-.44-1.52V9.25Z"/><path class="cls-1" d="M48.11,107v1.09H45.58V107c.25,0,.45-.7.45-1.57a.28.28,0,0,0,0-.09h1.65a.28.28,0,0,0,0,.09C47.66,106.27,47.86,107,48.11,107Z"/><path class="cls-1" d="M48.11,9.25v1.23c-.24,0-.44.68-.45,1.52H46c0-.84-.21-1.52-.45-1.52V9.25Z"/><path class="cls-1" d="M45.58,107v1.09H43.05V107c.25,0,.45-.7.45-1.57v-.09h1.64v.09C45.14,106.27,45.34,107,45.58,107Z"/><path class="cls-1" d="M45.58,9.25v1.23c-.24,0-.44.68-.44,1.52H43.5c0-.84-.21-1.52-.45-1.52V9.25Z"/><path class="cls-1" d="M43.05,107v1.09H40.53V107c.24,0,.44-.7.44-1.57v-.09h1.64v.09C42.61,106.27,42.81,107,43.05,107Z"/><path class="cls-1" d="M43.05,9.25v1.23c-.24,0-.44.68-.44,1.52H41c0-.84-.2-1.52-.44-1.52V9.25Z"/><path class="cls-1" d="M40.53,107v1.09H38V107c.24,0,.44-.7.44-1.57v-.09h1.64v.09C40.08,106.27,40.28,107,40.53,107Z"/><path class="cls-1" d="M40.53,9.25v1.23c-.24,0-.44.68-.45,1.52H38.44c0-.84-.2-1.52-.44-1.52V9.25Z"/><path class="cls-1" d="M38,107v1.09H34.23a3.9,3.9,0,0,0,.65-2.43,1.77,1.77,0,0,0-.05-.32h2.73a.28.28,0,0,0,0,.09C37.55,106.27,37.75,107,38,107Z"/><path class="cls-1" d="M38,9.25v1.23c-.24,0-.44.68-.45,1.52H34.84a2.89,2.89,0,0,0,0-.29,3.9,3.9,0,0,0-.68-2.46Z"/><path class="cls-1" d="M30,10.71a1.54,1.54,0,0,0,0-.48,2.57,2.57,0,0,0-.4-1l-.15-.19a2.94,2.94,0,0,0-1.38-1A2.4,2.4,0,0,0,27.48,8h-.43a.3.3,0,0,0-.22.13.39.39,0,0,0,.13.55,3.83,3.83,0,0,1,.93.61,4,4,0,0,1,.73.9,3.7,3.7,0,0,1,.46,1.21,1.11,1.11,0,0,1,.43-.54A.81.81,0,0,1,30,10.71Zm.76-3.42,0,1.23a4.3,4.3,0,0,1,.61.73,3.68,3.68,0,0,1,.4.76,3.1,3.1,0,0,1,.12,2v0a1.89,1.89,0,0,1-1.23,1.31,1.31,1.31,0,0,1-1.5-.74L29,12.48A1.66,1.66,0,0,1,29,11.9l-1.07-.08a.69.69,0,0,0-.46-.2,2.77,2.77,0,0,0-.78-2.25l-.14-.12A2.1,2.1,0,0,0,25.3,8.8a.78.78,0,0,0-.72.45l-.06.12-1.08-.25a1,1,0,0,1,0-.1,8.66,8.66,0,0,1,1-1.83,5.59,5.59,0,0,1,.45-.52,5.24,5.24,0,0,1,3.65-1.3c1.3,0,2.6.18,3.9.06a3.45,3.45,0,0,0,1.75-.56,2.08,2.08,0,0,0,.87-1.74v0a1.45,1.45,0,0,1-.9,1.21,1.33,1.33,0,0,1-1.49-.6,2.19,2.19,0,0,1-.21-1.84A2.26,2.26,0,0,1,33.65.55a2.43,2.43,0,0,1,3,1.14l.09.17a3.67,3.67,0,0,1,.37,1.26,4.3,4.3,0,0,1-.38,2.3,4.21,4.21,0,0,1-1,1.3h0A4.2,4.2,0,0,1,34,7.64a4.81,4.81,0,0,1-1.41.16A4.19,4.19,0,0,0,30.72,7.29Z"/><path class="cls-1" d="M29.08,106a3.7,3.7,0,0,1-.46,1.21,3.84,3.84,0,0,1-.69.86h0a3.92,3.92,0,0,1-1,.65.37.37,0,0,0-.15.51h0a.27.27,0,0,0,.24.15,2,2,0,0,0,.43,0,2.38,2.38,0,0,0,.64-.15,3,3,0,0,0,1.27-.93,2,2,0,0,0,.17-.23,2.28,2.28,0,0,0,.38-.94,1.55,1.55,0,0,0,0-.48.81.81,0,0,1-.45-.11A1.11,1.11,0,0,1,29.08,106Zm-.12-.54a1.63,1.63,0,0,1,.08-.58l.05-.09a1.31,1.31,0,0,1,1.5-.74,1.81,1.81,0,0,1,1.2,1.23l0,.1a3.1,3.1,0,0,1-.12,2,4.44,4.44,0,0,1-.37.72,4.76,4.76,0,0,1-.64.77l0,1.23a4.19,4.19,0,0,0,1.91-.51,4.81,4.81,0,0,1,1.41.16,4.24,4.24,0,0,1,1.66.88h0a4.15,4.15,0,0,1,1.4,3.6,3.69,3.69,0,0,1-.35,1.27l-.11.2a2.43,2.43,0,0,1-3,1.14,2.26,2.26,0,0,1-1.17-1.32,2.19,2.19,0,0,1,.21-1.84,1.33,1.33,0,0,1,1.49-.6,1.45,1.45,0,0,1,.9,1.21v0a2.07,2.07,0,0,0-.87-1.74,3.36,3.36,0,0,0-1.75-.56c-1.3-.11-2.6.09-3.9.06a5.24,5.24,0,0,1-3.65-1.3,5.59,5.59,0,0,1-.45-.52,9.09,9.09,0,0,1-1-1.82s0-.08,0-.11l1.07-.28a.54.54,0,0,0,0,.11.81.81,0,0,0,.74.49,2,2,0,0,0,1.26-.49l.09-.08a2.79,2.79,0,0,0,.78-2.25.66.66,0,0,0,.46-.21Z"/><path class="cls-1" d="M34.84,12A2.52,2.52,0,0,1,34,13.5l-.6-1.05a.88.88,0,0,0-.62-1,2,2,0,0,0,.08-.8,2.42,2.42,0,0,0-.71-1.38l-.17-.14a2.68,2.68,0,0,0-1.25-.59l0-1.23a4.19,4.19,0,0,1,1.91.51l.45.29h0A4.4,4.4,0,0,1,34,9a2.48,2.48,0,0,1,.19.26,3.9,3.9,0,0,1,.68,2.46A2.89,2.89,0,0,1,34.84,12Z"/><path class="cls-1" d="M34.88,105.63a3.9,3.9,0,0,1-.65,2.43l-.22.3a4.21,4.21,0,0,1-.88.86h0a5.39,5.39,0,0,1-.5.33,4.19,4.19,0,0,1-1.91.51l0-1.23a2.68,2.68,0,0,0,1.25-.59,1.62,1.62,0,0,0,.2-.18h0a2.37,2.37,0,0,0,.68-1.34,2,2,0,0,0-.08-.8.89.89,0,0,0,.62-1l.58-1a2.49,2.49,0,0,1,.89,1.47A1.77,1.77,0,0,1,34.88,105.63Z"/><path class="cls-1" d="M33.36,12.45,34,13.5a1.75,1.75,0,0,1-.68.31,1.33,1.33,0,0,1-1.16-.36,1.41,1.41,0,0,1-.35-1.29l.06-.16a.88.88,0,0,1,.89-.57h0A.88.88,0,0,1,33.36,12.45Z"/><path class="cls-1" d="M33.94,103.84l-.58,1a.89.89,0,0,1-.62,1h0a.91.91,0,0,1-.93-.65.19.19,0,0,0,0-.08,1.41,1.41,0,0,1,.35-1.29,1.33,1.33,0,0,1,1.16-.36A1.65,1.65,0,0,1,33.94,103.84Z"/><path class="cls-1" d="M32.74,105.92a2,2,0,0,1,.08.8,2.37,2.37,0,0,1-.68,1.34h-.81a4.44,4.44,0,0,0,.37-.72,3.1,3.1,0,0,0,.12-2l0-.1h0a.91.91,0,0,0,.93.65Z"/><path class="cls-1" d="M32.14,108.06a1.62,1.62,0,0,1-.2.18,2.68,2.68,0,0,1-1.25.59,4.76,4.76,0,0,0,.64-.77Z"/><path class="cls-1" d="M30.32,15.87a4.49,4.49,0,0,1-.19,1.26A5.91,5.91,0,0,1,29.18,19a3.93,3.93,0,0,1-.31.38c-1,1.12-2.26,1.56-3.1,1.18a2.26,2.26,0,0,1-1.23-1.65l1.16-.07a.79.79,0,0,0,1-.6v0A1.53,1.53,0,0,0,28,17.65a2,2,0,0,0,.4-1.53A1,1,0,0,0,28.6,15l.56-1.14a2.24,2.24,0,0,1,.94,1A2.44,2.44,0,0,1,30.32,15.87Z"/><path class="cls-1" d="M30.12,100.19a3.37,3.37,0,0,1,0,2.38,2.26,2.26,0,0,1-1,1l-.55-1.14a1,1,0,0,0-.2-1.16A2,2,0,0,0,28,99.7a1.5,1.5,0,0,0-1.25-.57,0,0,0,0,1,0,0,.79.79,0,0,0-1-.6l-1.16-.07a2.28,2.28,0,0,1,1.23-1.65,1.6,1.6,0,0,1,.67-.13A3.46,3.46,0,0,1,28.87,98c.11.12.21.25.31.38A5.84,5.84,0,0,1,30.12,100.19Z"/><path class="cls-1" d="M29.16,13.82,28.6,15a1,1,0,0,1-.2,1.16.83.83,0,0,1-.15.11.89.89,0,0,1-1.15-.41,1.27,1.27,0,0,1-.17-.58,1.56,1.56,0,0,1,.19-.85,1.54,1.54,0,0,1,.67-.62,1.46,1.46,0,0,1,.39-.12h0A1.65,1.65,0,0,1,29.16,13.82Z"/><path class="cls-1" d="M28.6,102.39l.55,1.14a1.62,1.62,0,0,1-.94.17h0a1.52,1.52,0,0,1-.4-.12h0a1.52,1.52,0,0,1-.86-1.47,1.27,1.27,0,0,1,.17-.58.89.89,0,0,1,1.15-.41.83.83,0,0,1,.15.11A1,1,0,0,1,28.6,102.39Z"/><path class="cls-1" d="M29,11.9a1.66,1.66,0,0,0,.08.58,1.8,1.8,0,0,1-.85,1.17h0a1.46,1.46,0,0,0-.39.12,1,1,0,0,1-1-.4,1.26,1.26,0,0,1-.26-.78,1.14,1.14,0,0,1,.12-.52l0-.07v0a.82.82,0,0,1,.7-.36.69.69,0,0,1,.46.2Z"/><path class="cls-1" d="M29,104.87a1.63,1.63,0,0,0-.08.58l-1.07.07a.66.66,0,0,1-.46.21.81.81,0,0,1-.7-.37s0,0,0,0a.05.05,0,0,1,0,0,1.1,1.1,0,0,1-.12-.51h0a1.27,1.27,0,0,1,.26-.79,1.08,1.08,0,0,1,1-.39h0a1.52,1.52,0,0,0,.4.12A1.8,1.8,0,0,1,29,104.87Z"/><path class="cls-1" d="M28.87,19.38V98a3.46,3.46,0,0,0-2.43-1.31,1.6,1.6,0,0,0-.67.13,2.28,2.28,0,0,0-1.23,1.65,3.16,3.16,0,0,0,0,.32,1.15,1.15,0,0,0,0,.19,2,2,0,0,0-.25-.48v-.88a1.83,1.83,0,0,0,.44-1.24,2.09,2.09,0,0,0-.44-1.19v-.23h0a1,1,0,0,0,.83-.27,1.76,1.76,0,0,0,.52-1.24,1.69,1.69,0,0,0,0-.23,2.35,2.35,0,0,0-1.34-1.9V26.07a2.35,2.35,0,0,0,1.35-2.13,1.76,1.76,0,0,0-.52-1.24,1.08,1.08,0,0,0-.83-.28v-.23A2.09,2.09,0,0,0,24.71,21a1.83,1.83,0,0,0-.44-1.24v-.88a1.74,1.74,0,0,0,.25-.49,1.34,1.34,0,0,0,0,.2,3.16,3.16,0,0,0,0,.32,2.26,2.26,0,0,0,1.23,1.65C26.61,20.94,27.87,20.5,28.87,19.38Z"/><path class="cls-1" d="M28,99.7a2,2,0,0,1,.4,1.53.83.83,0,0,0-.15-.11.89.89,0,0,0-1.15.41,1.27,1.27,0,0,0-.17.58,1.52,1.52,0,0,0,.86,1.47,1.08,1.08,0,0,0-1,.39,1.27,1.27,0,0,0-.26.79,1.93,1.93,0,0,0-1.35-1.17,1.68,1.68,0,0,0-.59,0,2,2,0,0,0-.35.11v-1.23a1.39,1.39,0,0,0,.06.19,1.33,1.33,0,0,0,.89.87,1.12,1.12,0,0,0,.76-.08,1.45,1.45,0,0,0,.78-1.33,1.62,1.62,0,0,0-.09-.57,1.31,1.31,0,0,0-1-.88,1.16,1.16,0,0,0-.65.1,1.41,1.41,0,0,0-.74,1v-1.31a1.52,1.52,0,0,0,.32-1,1.57,1.57,0,0,0,.4.7,1.19,1.19,0,0,0,.68.34.92.92,0,0,0,.54-.1,1.14,1.14,0,0,0,.54-1.22A1.5,1.5,0,0,1,28,99.7Z"/><path class="cls-1" d="M24.59,17.93a1.59,1.59,0,0,1,.4-.69,1.14,1.14,0,0,1,.68-.34.92.92,0,0,1,.54.1,1.12,1.12,0,0,1,.56,1,1.64,1.64,0,0,1,0,.23v0a.79.79,0,0,1-1,.6l-1.16.07a3.16,3.16,0,0,1,0-.32,1.34,1.34,0,0,1,0-.2A1.83,1.83,0,0,1,24.59,17.93Z"/><path class="cls-1" d="M26.75,99.13a1.14,1.14,0,0,1-.54,1.22.92.92,0,0,1-.54.1,1.19,1.19,0,0,1-.68-.34,1.57,1.57,0,0,1-.4-.7h0a1.77,1.77,0,0,1-.07-.46,1.15,1.15,0,0,1,0-.19,3.16,3.16,0,0,1,0-.32l1.16.07a.79.79,0,0,1,1,.6A0,0,0,0,0,26.75,99.13Z"/><path class="cls-1" d="M26.67,101.54a1.62,1.62,0,0,1,.09.57,1.45,1.45,0,0,1-.78,1.33,1.12,1.12,0,0,1-.76.08,1.33,1.33,0,0,1-.89-.87,1.39,1.39,0,0,1-.06-.19h0a1.7,1.7,0,0,1,0-.71,1.41,1.41,0,0,1,.74-1,1.16,1.16,0,0,1,.65-.1A1.31,1.31,0,0,1,26.67,101.54Z"/><path class="cls-1" d="M26.76,15.25a1.51,1.51,0,0,1-.09.55,1.31,1.31,0,0,1-1,.89,1.16,1.16,0,0,1-.65-.1,1.41,1.41,0,0,1-.74-1,1.7,1.7,0,0,1,0-.71h0c0-.06,0-.13.06-.2a1.33,1.33,0,0,1,.89-.86,1.12,1.12,0,0,1,.76.08A1.45,1.45,0,0,1,26.76,15.25Z"/><path class="cls-1" d="M24.63,10.34a.83.83,0,0,1,.29-.24,1.08,1.08,0,0,1,1,.12,2,2,0,0,1,.78,1.85,1.14,1.14,0,0,0-.12.52,1.9,1.9,0,0,1-1.35,1.17,1.68,1.68,0,0,1-.59,0,2,2,0,0,1-.35-.11A2.35,2.35,0,0,1,23,12a3.74,3.74,0,0,1,0-1.63,7.45,7.45,0,0,1,.42-1.26l1.08.25a1,1,0,0,0,.1,1Z"/><path class="cls-1" d="M24.27,103.69a2,2,0,0,1,.35-.11,1.68,1.68,0,0,1,.59,0,1.93,1.93,0,0,1,1.35,1.17h0a1.1,1.1,0,0,0,.12.51,2,2,0,0,1-.78,1.85,1,1,0,0,1-1,.12.71.71,0,0,1-.29-.23h0a1.07,1.07,0,0,0-.11.93l-1.07.28A7.45,7.45,0,0,1,23,107a3.74,3.74,0,0,1,0-1.63A2.35,2.35,0,0,1,24.27,103.69Z"/><path class="cls-1" d="M25.61,93.18a1.69,1.69,0,0,1,0,.23,1.76,1.76,0,0,1-.52,1.24,1,1,0,0,1-.83.27.85.85,0,0,1-.34-.11l0,0a1.13,1.13,0,0,1-.42-1.17v0a.75.75,0,0,1,1-.52Z"/><path class="cls-1" d="M21.92,23.76a1.59,1.59,0,0,0,.89.24,1.3,1.3,0,0,0,.67-.24,0,0,0,0,0,0,0,1.12,1.12,0,0,1,.42-1.17l0,0a1.06,1.06,0,0,1,.34-.12,1.08,1.08,0,0,1,.83.28,1.76,1.76,0,0,1,.52,1.24,2.35,2.35,0,0,1-1.35,2.13l-.15.06a2.68,2.68,0,0,1-2.2-.3,1.89,1.89,0,0,1-.3-.19,4.35,4.35,0,0,1-.76-.67h0a4.82,4.82,0,0,1-.51-.66h0a5.78,5.78,0,0,1-.81-2.2l1.07-.1a4.47,4.47,0,0,0,.25.6h0a3,3,0,0,0,.49.7A2.55,2.55,0,0,0,21.92,23.76Z"/><path class="cls-1" d="M25.61,93.18l-1.14-.11a.75.75,0,0,0-1,.52,1.22,1.22,0,0,0-.67-.24,1.52,1.52,0,0,0-.89.24,2.3,2.3,0,0,0-.57.47,2.85,2.85,0,0,0-.49.7,4.47,4.47,0,0,0-.25.6l-1.07-.1a5.88,5.88,0,0,1,.81-2.21,6.94,6.94,0,0,1,.51-.67.46.46,0,0,1,.07-.07,3.91,3.91,0,0,1,.69-.6l.3-.19a2.68,2.68,0,0,1,2.2-.3l.15.06A2.35,2.35,0,0,1,25.61,93.18Z"/><path class="cls-1" d="M16.77,89.44a1.41,1.41,0,0,1,.87,1.22,1.7,1.7,0,0,1-.78,1.58,1.53,1.53,0,0,1-1.62-.1,2.47,2.47,0,0,1-.92-1.56,3.15,3.15,0,0,1,1.15-2.94,3.87,3.87,0,0,1,.37-.24,2.88,2.88,0,0,1,.74-.23,3,3,0,0,1,2.47.82,4.17,4.17,0,0,1,.8,1.05h0a5.5,5.5,0,0,1,.62,2.38,8,8,0,0,1-.12,1.62,5.88,5.88,0,0,0-.81,2.21l1.07.1.25-.21a3.65,3.65,0,0,1,1.06-.61l.16,0a2.1,2.1,0,0,1,1.71.22l.09.06a2,2,0,0,1,.39.38,2.09,2.09,0,0,1,.44,1.19,1.83,1.83,0,0,1-.44,1.24,1.29,1.29,0,0,1-.47.33l-.09,0a.94.94,0,0,1-.44,0,1.05,1.05,0,0,1-.52-.25,1.26,1.26,0,0,1-.38-.59,1.3,1.3,0,0,1,0-.52,1.14,1.14,0,0,0-.41-.07h0a2,2,0,0,0-1.06.39l0,0a3.21,3.21,0,0,0-1,1.19,3.39,3.39,0,0,0-.29.77c0,.15-.06.32-.08.48a.32.32,0,0,0,.29.39l.58.62a2.89,2.89,0,0,0-.48,1.12,1,1,0,0,0,.3.93l-1,.64a5.68,5.68,0,0,1-.53-.57,4.4,4.4,0,0,1-.64-1,7.49,7.49,0,0,1-.45-4.36c.21-1.47.62-2.9.76-4.38a5,5,0,0,0-.16-2.08,1.83,1.83,0,0,0-1.34-1.29Z"/><path class="cls-1" d="M19.54,22.09a5.78,5.78,0,0,0,.81,2.2h0a7.93,7.93,0,0,1,.12,1.62,5.5,5.5,0,0,1-.62,2.38,4.22,4.22,0,0,1-.8,1.06,3,3,0,0,1-2.47.82,2.54,2.54,0,0,1-.74-.23,3.87,3.87,0,0,1-.37-.24,3.15,3.15,0,0,1-1.15-2.94,2.47,2.47,0,0,1,.92-1.56,1.51,1.51,0,0,1,1.62-.1,1.7,1.7,0,0,1,.78,1.58,1.44,1.44,0,0,1-.87,1.23h0a1.83,1.83,0,0,0,1.34-1.29,5,5,0,0,0,.16-2.08c-.14-1.48-.55-2.91-.76-4.38A7.48,7.48,0,0,1,18,15.8a4.4,4.4,0,0,1,.64-1h0a4.86,4.86,0,0,1,.53-.58l1,.65a1,1,0,0,0-.3.93A2.89,2.89,0,0,0,20.35,17l-.57.62a.32.32,0,0,0-.3.39c0,.16.05.33.08.48a3.39,3.39,0,0,0,.29.77,3.29,3.29,0,0,0,1,1.19l0,0a1.91,1.91,0,0,0,1.06.39h0a1.41,1.41,0,0,0,.41-.07,1.3,1.3,0,0,1,0-.52,1.11,1.11,0,0,1,1.1-.86,1,1,0,0,1,.24,0l.09,0a1.16,1.16,0,0,1,.47.32A1.83,1.83,0,0,1,24.71,21a2.09,2.09,0,0,1-.44,1.19,1.71,1.71,0,0,1-.39.37l-.09.07a2.1,2.1,0,0,1-1.71.22l-.16,0a3.65,3.65,0,0,1-1.06-.61L20.61,22Z"/><path class="cls-1" d="M24.59,99.41a1.52,1.52,0,0,1-.32,1,.9.9,0,0,1-.2.19.92.92,0,0,1-.52.17l-.2,0a.8.8,0,0,1-.42-.23h0l-.06-.07a1,1,0,0,1-.21-.64,2,2,0,0,1,0-.23.81.81,0,0,1,.26-.47L23.27,98a.94.94,0,0,0,.44,0,1.77,1.77,0,0,1,.56.53,2,2,0,0,1,.25.48,1.77,1.77,0,0,0,.07.46Z"/><path class="cls-1" d="M24.59,17.9v0a1.83,1.83,0,0,0-.07.46,1.74,1.74,0,0,1-.25.49,1.77,1.77,0,0,1-.56.53,1,1,0,0,0-.24,0,1.21,1.21,0,0,0-.38.06l-.15-1.22a.81.81,0,0,1-.26-.48,1.05,1.05,0,0,1,.19-.86l.06-.07h0a.8.8,0,0,1,.42-.23.92.92,0,0,1,.72.15,1.21,1.21,0,0,1,.2.19A1.58,1.58,0,0,1,24.59,17.9Z"/><path class="cls-1" d="M24.27,102.46v1.23A2.35,2.35,0,0,0,23,105.34,3.74,3.74,0,0,0,23,107a.85.85,0,0,0-.86-.07,1.16,1.16,0,0,0-.52,1.43.91.91,0,0,0,1.25.59,1,1,0,0,0,.55-.69s0,.07,0,.11a9.09,9.09,0,0,0,1,1.82,5,5,0,0,1-4.68-1.85,6.82,6.82,0,0,1-1.16-5.81,5.68,5.68,0,0,0,.53.57c.19.18.38.36.58.52a5.19,5.19,0,0,0,.46.36L20,104a1.16,1.16,0,0,0-.52,1.43.92.92,0,0,0,1.25.6,1.17,1.17,0,0,0,.52-1.43s0-.06,0-.08a2.33,2.33,0,0,0,1,.16A2.13,2.13,0,0,0,24,103.17a2.29,2.29,0,0,0-.65-2.4h0l.2,0a.92.92,0,0,0,.52-.17.9.9,0,0,0,.2-.19v1.31a1.7,1.7,0,0,0,0,.71Z"/><path class="cls-1" d="M24.27,89.61v1.67l-.15-.06a2.68,2.68,0,0,0-2.2.3V89.1h1C22.94,89.38,23.53,89.6,24.27,89.61Z"/><path class="cls-1" d="M24.27,86.71v1.88c-.74,0-1.33.23-1.33.51h-1V86.2h1C22.94,86.48,23.53,86.7,24.27,86.71Z"/><path class="cls-1" d="M24.27,83.82v1.87c-.74,0-1.33.24-1.33.51h-1V83.3h1C22.94,83.58,23.53,83.81,24.27,83.82Z"/><path class="cls-1" d="M24.27,80.91v1.88c-.74,0-1.33.24-1.33.51h-1V80.4h1C22.94,80.68,23.53,80.91,24.27,80.91Z"/><path class="cls-1" d="M24.27,78v1.88c-.74,0-1.33.24-1.33.51h-1V77.5h1C22.94,77.78,23.53,78,24.27,78Z"/><path class="cls-1" d="M24.27,75.12V77c-.74,0-1.33.24-1.33.51h-1V74.61h1C22.94,74.88,23.53,75.11,24.27,75.12Z"/><path class="cls-1" d="M24.27,72.21V74.1c-.74,0-1.33.23-1.33.51h-1V71.7h1C22.94,72,23.53,72.21,24.27,72.21Z"/><path class="cls-1" d="M24.27,69.31v1.88c-.74,0-1.33.24-1.33.51h-1V68.8h1C22.94,69.08,23.53,69.31,24.27,69.31Z"/><path class="cls-1" d="M24.27,66.42V68.3c-.74,0-1.33.23-1.33.5h-1V65.91h1C22.94,66.18,23.53,66.41,24.27,66.42Z"/><path class="cls-1" d="M24.27,63.52V65.4c-.74,0-1.33.23-1.33.51h-1V63h1C22.94,63.28,23.53,63.51,24.27,63.52Z"/><path class="cls-1" d="M24.27,60.62V62.5c-.74,0-1.33.23-1.33.51h-1v-2.9h1C22.94,60.38,23.53,60.61,24.27,60.62Z"/><path class="cls-1" d="M24.27,57.72V59.6c-.74,0-1.33.23-1.33.51h-1v-2.9h1C22.94,57.48,23.53,57.71,24.27,57.72Z"/><path class="cls-1" d="M24.27,54.82V56.7c-.74,0-1.33.23-1.33.51h-1v-2.9h1C22.94,54.59,23.53,54.81,24.27,54.82Z"/><path class="cls-1" d="M24.27,51.92V53.8c-.74,0-1.33.23-1.33.51h-1v-2.9h1C22.94,51.69,23.53,51.91,24.27,51.92Z"/><path class="cls-1" d="M24.27,49V50.9c-.74,0-1.33.23-1.33.51h-1v-2.9h1C22.94,48.78,23.53,49,24.27,49Z"/><path class="cls-1" d="M24.27,46.12V48c-.74,0-1.33.23-1.33.51h-1v-2.9h1C22.94,45.89,23.53,46.11,24.27,46.12Z"/><path class="cls-1" d="M24.27,43.22V45.1c-.74,0-1.33.23-1.33.51h-1v-2.9h1C22.94,43,23.53,43.22,24.27,43.22Z"/><path class="cls-1" d="M24.27,40.32V42.2c-.74,0-1.33.23-1.33.51h-1v-2.9h1C22.94,40.09,23.53,40.31,24.27,40.32Z"/><path class="cls-1" d="M24.27,37.42V39.3c-.74,0-1.33.24-1.33.51h-1v-2.9h1C22.94,37.19,23.53,37.42,24.27,37.42Z"/><path class="cls-1" d="M24.27,34.52V36.4c-.74,0-1.33.23-1.33.51h-1V34h1C22.94,34.29,23.53,34.51,24.27,34.52Z"/><path class="cls-1" d="M24.27,31.62V33.5c-.74,0-1.33.24-1.33.51h-1v-2.9h1C22.94,31.39,23.53,31.61,24.27,31.62Z"/><path class="cls-1" d="M24.27,28.72V30.6c-.74,0-1.33.24-1.33.51h-1v-2.9h1C22.94,28.49,23.53,28.72,24.27,28.72Z"/><path class="cls-1" d="M24.27,26.07v1.64c-.74,0-1.33.22-1.33.5h-1V25.83a2.68,2.68,0,0,0,2.2.3Z"/><path class="cls-1" d="M24.27,15.61v1.31a1.21,1.21,0,0,0-.2-.19.92.92,0,0,0-.72-.15,2.29,2.29,0,0,0,.65-2.4,2.13,2.13,0,0,0-1.79-1.53,2.33,2.33,0,0,0-1,.16s0-.05,0-.08a1.17,1.17,0,0,0-.52-1.43.92.92,0,0,0-1.25.59A1.16,1.16,0,0,0,20,13.33l.2.07a5.19,5.19,0,0,0-.46.36l-.58.51a4.86,4.86,0,0,0-.53.58A6.81,6.81,0,0,1,19.78,9a5,5,0,0,1,4.68-1.85,8.66,8.66,0,0,0-1,1.83,1,1,0,0,0,0,.1,1,1,0,0,0-.55-.69A.92.92,0,0,0,21.64,9a1.16,1.16,0,0,0,.52,1.43.85.85,0,0,0,.86-.07A3.74,3.74,0,0,0,23,12a2.35,2.35,0,0,0,1.29,1.65v1.23h0A1.7,1.7,0,0,0,24.27,15.61Z"/><path class="cls-1" d="M21.07,14.81h0a.56.56,0,0,0-.2-.08.71.71,0,0,0-.69.19l-1-.65.58-.51a5.19,5.19,0,0,1,.46-.36,4.51,4.51,0,0,1,1-.59,2.33,2.33,0,0,1,1-.16A2.13,2.13,0,0,1,24,14.18a2.29,2.29,0,0,1-.65,2.4.8.8,0,0,0-.42.23h0a1.52,1.52,0,0,1-1,0,1.56,1.56,0,0,1-.72-.53,1.47,1.47,0,0,1-.27-1.08A1,1,0,0,1,21.07,14.81Z"/><path class="cls-1" d="M21.07,102.54a1,1,0,0,1-.14-.38,1.47,1.47,0,0,1,.27-1.08,1.5,1.5,0,0,1,.72-.53,1.52,1.52,0,0,1,1,0h0a.8.8,0,0,0,.42.23h0a2.29,2.29,0,0,1,.65,2.4,2.13,2.13,0,0,1-1.79,1.53,2.33,2.33,0,0,1-1-.16,4.51,4.51,0,0,1-1-.59,5.19,5.19,0,0,1-.46-.36c-.2-.16-.39-.34-.58-.52l1-.64a.71.71,0,0,0,.69.19.56.56,0,0,0,.2-.08Z"/><path class="cls-1" d="M19.85,99.75a.32.32,0,0,0,.19-.16,4.29,4.29,0,0,1,.82-1,3.12,3.12,0,0,1,.78-.54l.28-.13a2.67,2.67,0,0,1,.83-.17,1.05,1.05,0,0,0,.52.25l-.33,1.18a.81.81,0,0,0-.26.47,2,2,0,0,0-1.82.27,1.73,1.73,0,0,0-.25.21,1.87,1.87,0,0,0-.26.3l-.58-.62Z"/><path class="cls-1" d="M23.44,9.12A7.45,7.45,0,0,0,23,10.38a.85.85,0,0,1-.86.07A1.16,1.16,0,0,1,21.64,9a.92.92,0,0,1,1.25-.59A1,1,0,0,1,23.44,9.12Z"/><path class="cls-1" d="M22.94,18.22l.15,1.22a1.2,1.2,0,0,0-.34.21,2.67,2.67,0,0,1-.83-.17l-.28-.13a3.12,3.12,0,0,1-.78-.54,4.29,4.29,0,0,1-.82-1,.29.29,0,0,0-.19-.16h-.07l.57-.62a1.87,1.87,0,0,0,.26.3,2.76,2.76,0,0,0,.25.21,2.07,2.07,0,0,0,1.06.36,1.8,1.8,0,0,0,.76-.1A.81.81,0,0,0,22.94,18.22Z"/><path class="cls-1" d="M21.92,100.54h0a1.5,1.5,0,0,0-.72.53,1.47,1.47,0,0,0-.27,1.08,1,1,0,0,0,.14.38h0a.56.56,0,0,1-.2.08V99.87a2.18,2.18,0,0,1,1.06-.37h0Z"/><path class="cls-1" d="M21.92,89.1v2.42l-.3.19a3.91,3.91,0,0,0-.69.6.46.46,0,0,0-.07.07V25a4.35,4.35,0,0,0,.76.67,1.89,1.89,0,0,0,.3.19V89.1Z"/><path class="cls-1" d="M20.86,96.91v1.63a4.29,4.29,0,0,0-.82,1,.32.32,0,0,1-.19.16V98.12a3.21,3.21,0,0,1,1-1.19Z"/><path class="cls-1" d="M20.86,25V92.38a6.94,6.94,0,0,0-.51.67,8,8,0,0,0,.12-1.62,5.5,5.5,0,0,0-.62-2.38h0V28.3a5.5,5.5,0,0,0,.62-2.38,7.93,7.93,0,0,0-.12-1.62,4.82,4.82,0,0,0,.51.66Z"/><path class="cls-1" d="M19.85,28.3V89a4.17,4.17,0,0,0-.8-1.05,3,3,0,0,0-2.47-.82v-57a3,3,0,0,0,2.47-.82A4.22,4.22,0,0,0,19.85,28.3Z"/><line class="cls-3" x1="97.73" y1="30.2" x2="97.73" y2="87.15"/><polyline class="cls-3" points="16.58 30.18 16.58 87.17 16.58 87.17"/><line class="cls-3" x1="37.11" y1="114.19" x2="77.33" y2="114.19"/><line class="cls-3" x1="37.11" y1="3.12" x2="77.33" y2="3.12"/><line class="cls-3" x1="36.74" y1="1.86" x2="36.74" y2="1.86"/><line class="cls-3" x1="19.85" y1="28.3" x2="19.85" y2="89.04"/><polyline class="cls-3" points="19.85 98.12 19.85 99.75 19.85 99.75"/><line class="cls-3" x1="19.85" y1="17.6" x2="19.85" y2="19.23"/><line class="cls-3" x1="94.46" y1="15.15" x2="94.46" y2="16.26"/><line class="cls-3" x1="94.46" y1="89.32" x2="94.46" y2="28.03"/><line class="cls-3" x1="94.46" y1="17.68" x2="94.46" y2="19.47"/><line class="cls-3" x1="94.46" y1="101.09" x2="94.46" y2="102.2"/><line class="cls-3" x1="94.46" y1="97.88" x2="94.46" y2="99.67"/><line class="cls-3" x1="78.69" y1="6.72" x2="35.75" y2="6.72"/><line class="cls-3" x1="35.71" y1="110.59" x2="78.73" y2="110.59"/><line class="cls-3" x1="20.86" y1="18.82" x2="20.86" y2="20.44"/><line class="cls-3" x1="26.83" y1="8.09" x2="28.01" y2="8.09"/><line class="cls-3" x1="20.86" y1="24.97" x2="20.86" y2="92.38"/><line class="cls-3" x1="20.86" y1="99.87" x2="20.86" y2="102.62"/><line class="cls-3" x1="86.32" y1="109.22" x2="87.63" y2="109.22"/><line class="cls-3" x1="81.31" y1="109.22" x2="33.13" y2="109.22"/><line class="cls-3" x1="93.45" y1="99.79" x2="93.45" y2="101.48"/><polyline class="cls-3" points="93.44 94.53 93.44 95.05 93.44 95.05"/><line class="cls-3" x1="33.08" y1="8.09" x2="81.36" y2="8.09"/><polyline class="cls-3" points="93.44 22.82 93.44 22.3 93.44 22.3"/><line class="cls-3" x1="93.45" y1="15.87" x2="93.45" y2="17.56"/><line class="cls-3" x1="93.45" y1="14.77" x2="93.45" y2="14.95"/><polyline class="cls-3" points="93.44 20.53 93.44 20.52 93.44 18.93"/><line class="cls-3" x1="93.45" y1="25.11" x2="93.45" y2="92.24"/><polyline class="cls-3" points="86.43 8.09 87.61 8.09 87.61 8.09"/><line class="cls-3" x1="93.45" y1="96.82" x2="93.45" y2="98.42"/><line class="cls-3" x1="93.45" y1="102.4" x2="93.45" y2="102.57"/><line class="cls-3" x1="28.12" y1="109.22" x2="26.81" y2="109.22"/><line class="cls-3" x1="20.86" y1="94.76" x2="20.86" y2="95.15"/><line class="cls-3" x1="20.86" y1="96.91" x2="20.86" y2="98.54"/><line class="cls-3" x1="20.86" y1="14.73" x2="20.86" y2="17.47"/><line class="cls-3" x1="20.86" y1="22.2" x2="20.86" y2="22.59"/><line class="cls-3" x1="21.92" y1="97.87" x2="21.92" y2="96.52"/><line class="cls-3" x1="21.92" y1="93.59" x2="21.92" y2="94.54"/><line class="cls-3" x1="31.33" y1="108.06" x2="32.14" y2="108.06"/><line class="cls-3" x1="26.56" y1="108.06" x2="24.56" y2="108.06"/><line class="cls-3" x1="29.56" y1="108.06" x2="27.93" y2="108.06"/><line class="cls-3" x1="82.3" y1="108.06" x2="83.11" y2="108.06"/><line class="cls-3" x1="87.88" y1="108.06" x2="89.88" y2="108.06"/><line class="cls-3" x1="82.33" y1="9.25" x2="83.14" y2="9.25"/><line class="cls-3" x1="87.93" y1="9.25" x2="89.86" y2="9.25"/><polyline class="cls-3" points="92.39 25.9 92.39 25.9 92.39 28.21 92.39 31.11 92.39 34.01 92.39 36.91 92.39 39.81 92.39 42.71 92.39 45.61 92.39 48.51 92.39 51.41 92.39 54.31 92.39 57.21 92.39 60.11 92.39 63.01 92.39 65.91 92.39 68.81 92.39 71.7 92.39 74.61 92.39 77.5 92.39 80.4 92.39 83.31 92.39 86.2 92.39 89.1 92.39 91.45"/><line class="cls-3" x1="92.39" y1="19.53" x2="92.39" y2="20.82"/><line class="cls-3" x1="92.39" y1="16.84" x2="92.39" y2="17.85"/><polyline class="cls-3" points="92.39 22.84 92.39 22.85 92.39 23.83"/><line class="cls-3" x1="84.91" y1="9.25" x2="86.55" y2="9.25"/><polyline class="cls-3" points="80.24 9.25 75.91 9.25 73.38 9.25 70.85 9.25 68.33 9.25 65.8 9.25 63.27 9.25 60.74 9.25 58.22 9.25 55.69 9.25 53.16 9.25 50.63 9.25 48.11 9.25 45.58 9.25 43.05 9.25 40.53 9.25 38 9.25 34.2 9.25"/><line class="cls-3" x1="92.39" y1="96.52" x2="92.39" y2="97.82"/><polyline class="cls-3" points="92.39 99.5 92.39 99.5 92.39 100.51"/><line class="cls-3" x1="92.39" y1="93.52" x2="92.39" y2="94.5"/><line class="cls-3" x1="86.51" y1="108.06" x2="84.88" y2="108.06"/><polyline class="cls-3" points="34.23 108.06 38 108.06 40.53 108.06 43.05 108.06 45.58 108.06 48.11 108.06 50.63 108.06 53.16 108.06 55.69 108.06 58.22 108.06 60.74 108.06 63.27 108.06 65.8 108.06 68.33 108.06 70.85 108.06 73.38 108.06 75.91 108.06 80.22 108.06"/><line class="cls-3" x1="21.92" y1="99.51" x2="21.92" y2="100.54"/><polyline class="cls-3" points="21.92 25.83 21.92 28.21 21.92 31.11 21.92 34.01 21.92 36.91 21.92 39.81 21.92 42.71 21.92 45.61 21.92 48.51 21.92 51.41 21.92 54.31 21.92 57.21 21.92 60.11 21.92 63.01 21.92 65.91 21.92 68.81 21.92 71.7 21.92 74.61 21.92 77.5 21.92 80.4 21.92 83.31 21.92 86.2 21.92 89.1 21.92 91.52"/><polyline class="cls-3" points="21.92 22.81 21.92 23.76 21.92 23.76"/><line class="cls-3" x1="21.92" y1="16.8" x2="21.92" y2="17.84"/><line class="cls-3" x1="27.89" y1="9.25" x2="29.53" y2="9.25"/><line class="cls-3" x1="31.3" y1="9.25" x2="32.11" y2="9.25"/><line class="cls-3" x1="24.58" y1="9.25" x2="26.51" y2="9.25"/><line class="cls-3" x1="21.92" y1="19.48" x2="21.92" y2="20.83"/><line class="cls-3" x1="24.27" y1="22.19" x2="24.27" y2="22.42"/><line class="cls-3" x1="31.82" y1="12" x2="31.83" y2="12"/><line class="cls-3" x1="24.27" y1="15.61" x2="24.27" y2="16.92"/><polyline class="cls-3" points="24.27 13.66 24.27 13.66 24.27 14.89"/><line class="cls-3" x1="24.27" y1="97.59" x2="24.27" y2="98.47"/><polyline class="cls-3" points="24.27 102.46 24.27 103.69 24.27 103.69"/><line class="cls-3" x1="24.27" y1="100.43" x2="24.27" y2="101.74"/><line class="cls-3" x1="24.27" y1="94.93" x2="24.27" y2="95.16"/><line class="cls-3" x1="90.04" y1="15.97" x2="90.04" y2="17.11"/><line class="cls-3" x1="90.04" y1="22" x2="90.04" y2="22.41"/><polyline class="cls-3" points="90.04 26 90.04 27.71 90.04 28.72 90.04 30.6 90.04 31.62 90.04 33.5 90.04 34.52 90.04 36.4 90.04 37.42 90.04 39.3 90.04 40.32 90.04 42.2 90.04 43.22 90.04 45.1 90.04 46.12 90.04 48 90.04 49.02 90.04 50.9 90.04 51.92 90.04 53.8 90.04 54.82 90.04 56.7 90.04 57.72 90.04 59.59 90.04 60.62 90.04 62.5 90.04 63.52 90.04 65.4 90.04 66.42 90.04 68.3 90.04 69.31 90.04 71.19 90.04 72.21 90.04 74.1 90.04 75.12 90.04 76.99 90.04 78.01 90.04 79.89 90.04 80.91 90.04 82.8 90.04 83.81 90.04 85.69 90.04 86.71 90.04 88.59 90.04 89.61 90.04 91.34 90.04 91.35"/><line class="cls-3" x1="90.04" y1="18.67" x2="90.04" y2="19.94"/><line class="cls-3" x1="90.04" y1="13.71" x2="90.04" y2="14.52"/><polyline class="cls-3" points="34.84 12 34.84 12 37.55 12 38.44 12 40.08 12 40.97 12 42.61 12 43.49 12 45.14 12 46.02 12 47.66 12 48.55 12 50.19 12 51.08 12 52.72 12 53.61 12 55.24 12 56.13 12 57.77 12 58.66 12 60.3 12 61.19 12 62.82 12 63.71 12 65.35 12 66.24 12 67.88 12 68.77 12 70.41 12 71.3 12 72.94 12 73.83 12 75.46 12 76.35 12 79.6 12"/><line class="cls-3" x1="90.04" y1="94.93" x2="90.04" y2="95.36"/><line class="cls-3" x1="90.04" y1="100.24" x2="90.04" y2="101.37"/><polyline class="cls-3" points="79.61 105.31 76.35 105.31 75.47 105.31 73.82 105.31 72.94 105.31 71.3 105.31 70.41 105.31 68.77 105.31 67.88 105.31 66.24 105.31 65.35 105.31 63.71 105.31 62.83 105.31 61.19 105.31 60.3 105.31 58.66 105.31 57.77 105.31 56.13 105.31 55.25 105.31 53.6 105.31 52.72 105.31 51.08 105.31 50.19 105.31 48.55 105.31 47.67 105.31 46.02 105.31 45.14 105.31 43.49 105.31 42.61 105.31 40.97 105.31 40.08 105.31 38.44 105.31 37.56 105.31 34.83 105.31"/><line class="cls-3" x1="90.04" y1="102.83" x2="90.04" y2="103.64"/><line class="cls-3" x1="90.04" y1="97.41" x2="90.04" y2="98.68"/><polyline class="cls-3" points="24.27 26.07 24.27 27.71 24.27 28.72 24.27 30.6 24.27 31.62 24.27 33.5 24.27 34.52 24.27 36.4 24.27 37.42 24.27 39.3 24.27 40.32 24.27 42.2 24.27 43.22 24.27 45.1 24.27 46.12 24.27 48 24.27 49.02 24.27 50.9 24.27 51.92 24.27 53.8 24.27 54.82 24.27 56.7 24.27 57.72 24.27 59.59 24.27 60.62 24.27 62.5 24.27 63.52 24.27 65.4 24.27 66.42 24.27 68.3 24.27 69.31 24.27 71.19 24.27 72.21 24.27 74.1 24.27 75.12 24.27 76.99 24.27 78.01 24.27 79.89 24.27 80.91 24.27 82.8 24.27 83.81 24.27 85.69 24.27 86.71 24.27 88.59 24.27 89.61 24.27 91.28"/><line class="cls-3" x1="24.27" y1="18.88" x2="24.27" y2="19.76"/><line class="cls-3" x1="28.87" y1="97.97" x2="28.87" y2="19.38"/><line class="cls-3" x1="85.43" y1="98.12" x2="85.43" y2="19.22"/><line class="cls-3" x1="84.31" y1="17.13" x2="30.13" y2="17.13"/><line class="cls-3" x1="30.12" y1="100.19" x2="84.32" y2="100.19"/><path class="cls-3" d="M25.14,105.76c-.32-.12-.69.19-.73.58a.86.86,0,0,0,.22.67.71.71,0,0,0,.29.23,1,1,0,0,0,1-.12,2,2,0,0,0,.78-1.85"/><path class="cls-3" d="M26.56,104.76a1.93,1.93,0,0,0-1.35-1.17,1.68,1.68,0,0,0-.59,0,2,2,0,0,0-.35.11A2.35,2.35,0,0,0,23,105.34,3.74,3.74,0,0,0,23,107a7.45,7.45,0,0,0,.42,1.26s0,.07,0,.11a9.09,9.09,0,0,0,1,1.82,5.59,5.59,0,0,0,.45.52,5.24,5.24,0,0,0,3.65,1.3c1.3,0,2.6-.17,3.9-.06a3.36,3.36,0,0,1,1.75.56,2.07,2.07,0,0,1,.87,1.74v0a1.12,1.12,0,0,1-.45.87.57.57,0,0,1-.82-.22c-.15-.32.09-.8.4-.75"/><path class="cls-3" d="M35.08,114.25a1.45,1.45,0,0,0-.9-1.21,1.33,1.33,0,0,0-1.49.6,2.19,2.19,0,0,0-.21,1.84,2.26,2.26,0,0,0,1.17,1.32,2.43,2.43,0,0,0,3-1.14l.11-.2a3.69,3.69,0,0,0,.35-1.27,4.15,4.15,0,0,0-1.4-3.6h0a4.24,4.24,0,0,0-1.66-.88,4.81,4.81,0,0,0-1.41-.16"/><path class="cls-3" d="M27.79,103.58a1.08,1.08,0,0,0-1,.39,1.27,1.27,0,0,0-.26.79h0a1.1,1.1,0,0,0,.12.51.05.05,0,0,0,0,0s0,0,0,0a.81.81,0,0,0,.7.37.66.66,0,0,0,.46-.21"/><path class="cls-3" d="M29,104.87a1.8,1.8,0,0,0-.85-1.17"/><path class="cls-3" d="M29.68,109.93a3.34,3.34,0,0,0,1,.13,4.19,4.19,0,0,0,1.91-.51,5.39,5.39,0,0,0,.5-.33h0a4.21,4.21,0,0,0,.88-.86l.22-.3a3.9,3.9,0,0,0,.65-2.43,1.77,1.77,0,0,0-.05-.32,2.49,2.49,0,0,0-.89-1.47,1.65,1.65,0,0,0-.66-.3,1.33,1.33,0,0,0-1.16.36,1.41,1.41,0,0,0-.35,1.29.19.19,0,0,1,0,.08.91.91,0,0,0,.93.65h0a.89.89,0,0,0,.62-1"/><path class="cls-3" d="M24.59,99.41a1.57,1.57,0,0,0,.4.7,1.19,1.19,0,0,0,.68.34.92.92,0,0,0,.54-.1,1.14,1.14,0,0,0,.54-1.22,0,0,0,0,1,0,0,.79.79,0,0,0-1-.6"/><path class="cls-3" d="M28.6,102.39a1,1,0,0,0-.2-1.16.83.83,0,0,0-.15-.11.89.89,0,0,0-1.15.41,1.27,1.27,0,0,0-.17.58,1.52,1.52,0,0,0,.86,1.47h0a1.52,1.52,0,0,0,.4.12h0a1.62,1.62,0,0,0,.94-.17,2.26,2.26,0,0,0,1-1,3.37,3.37,0,0,0,0-2.38,5.84,5.84,0,0,0-.94-1.84c-.1-.13-.2-.26-.31-.38a3.46,3.46,0,0,0-2.43-1.31,1.6,1.6,0,0,0-.67.13,2.28,2.28,0,0,0-1.23,1.65,3.16,3.16,0,0,0,0,.32,1.15,1.15,0,0,0,0,.19,1.77,1.77,0,0,0,.07.46"/><path class="cls-3" d="M28.4,101.23A2,2,0,0,0,28,99.7a1.5,1.5,0,0,0-1.25-.57"/><path class="cls-3" d="M24.63,107h0a1.07,1.07,0,0,0-.11.93.54.54,0,0,0,0,.11.81.81,0,0,0,.74.49,2,2,0,0,0,1.26-.49l.09-.08a2.79,2.79,0,0,0,.78-2.25"/><path class="cls-3" d="M29.08,106a3.7,3.7,0,0,1-.46,1.21,3.84,3.84,0,0,1-.69.86h0a3.92,3.92,0,0,1-1,.65.37.37,0,0,0-.15.51h0a.27.27,0,0,0,.24.15,2,2,0,0,0,.43,0,2.38,2.38,0,0,0,.64-.15,3,3,0,0,0,1.27-.93,2,2,0,0,0,.17-.23,2.28,2.28,0,0,0,.38-.94,1.55,1.55,0,0,0,0-.48"/><path class="cls-3" d="M32.74,105.92a2,2,0,0,1,.08.8,2.37,2.37,0,0,1-.68,1.34h0a1.62,1.62,0,0,1-.2.18,2.68,2.68,0,0,1-1.25.59,4.76,4.76,0,0,0,.64-.77,4.44,4.44,0,0,0,.37-.72,3.1,3.1,0,0,0,.12-2l0-.1a1.81,1.81,0,0,0-1.2-1.23,1.31,1.31,0,0,0-1.5.74l-.05.09a1.63,1.63,0,0,0-.08.58,1.58,1.58,0,0,0,.12.54,1.11,1.11,0,0,0,.43.54.81.81,0,0,0,.45.11.62.62,0,0,0,.36-.14.66.66,0,0,0,.09-.85"/><path class="cls-3" d="M22.93,100.54a1.52,1.52,0,0,0-1,0,1.5,1.5,0,0,0-.72.53,1.47,1.47,0,0,0-.27,1.08,1,1,0,0,0,.14.38.75.75,0,0,0,.54.37.66.66,0,0,0,.63-.72"/><path class="cls-3" d="M16.7,90.43a.44.44,0,0,1-.72.31.79.79,0,0,1,0-1,.88.88,0,0,1,.83-.33h0a1.83,1.83,0,0,1,1.34,1.29,5,5,0,0,1,.16,2.08c-.14,1.48-.55,2.91-.76,4.38a7.49,7.49,0,0,0,.45,4.36,4.4,4.4,0,0,0,.64,1,5.68,5.68,0,0,0,.53.57c.19.18.38.36.58.52a5.19,5.19,0,0,0,.46.36,4.51,4.51,0,0,0,1,.59,2.33,2.33,0,0,0,1,.16A2.13,2.13,0,0,0,24,103.17a2.29,2.29,0,0,0-.65-2.4"/><path class="cls-3" d="M20.35,93.05a8,8,0,0,0,.12-1.62,5.5,5.5,0,0,0-.62-2.38h0a4.17,4.17,0,0,0-.8-1.05,3,3,0,0,0-2.47-.82,2.88,2.88,0,0,0-.74.23,3.87,3.87,0,0,0-.37.24,3.15,3.15,0,0,0-1.15,2.94,2.47,2.47,0,0,0,.92,1.56,1.53,1.53,0,0,0,1.62.1,1.7,1.7,0,0,0,.78-1.58,1.41,1.41,0,0,0-.87-1.22"/><path class="cls-3" d="M24.52,99a2,2,0,0,0-.25-.48,1.77,1.77,0,0,0-.56-.53"/><path class="cls-3" d="M22.94,99.13a.81.81,0,0,0-.26.47,2,2,0,0,0,0,.23,1,1,0,0,0,.21.64l.06.07h0a.8.8,0,0,0,.42.23l.2,0a.92.92,0,0,0,.52-.17.9.9,0,0,0,.2-.19,1.52,1.52,0,0,0,.32-1h0"/><path class="cls-3" d="M24.47,93.07a.75.75,0,0,0-1,.52v0a1.13,1.13,0,0,0,.42,1.17l0,0a.85.85,0,0,0,.34.11,1,1,0,0,0,.83-.27,1.76,1.76,0,0,0,.52-1.24,1.69,1.69,0,0,0,0-.23,2.35,2.35,0,0,0-1.34-1.9l-.15-.06a2.68,2.68,0,0,0-2.2.3l-.3.19a3.91,3.91,0,0,0-.69.6.46.46,0,0,0-.07.07,6.94,6.94,0,0,0-.51.67,5.88,5.88,0,0,0-.81,2.21,5.28,5.28,0,0,0-.05,1"/><path class="cls-3" d="M22.68,99.6a2,2,0,0,0-1.82.27,1.73,1.73,0,0,0-.25.21,1.87,1.87,0,0,0-.26.3,2.89,2.89,0,0,0-.48,1.12,1,1,0,0,0,.3.93.71.71,0,0,0,.69.19.56.56,0,0,0,.2-.08h0"/><path class="cls-3" d="M22.35,96.59a1.14,1.14,0,0,0-.41-.07h0a2,2,0,0,0-1.06.39l0,0a3.21,3.21,0,0,0-1,1.19,3.39,3.39,0,0,0-.29.77c0,.15-.06.32-.08.48a.32.32,0,0,0,.29.39h.08a.32.32,0,0,0,.19-.16,4.29,4.29,0,0,1,.82-1,3.12,3.12,0,0,1,.78-.54l.28-.13a2.67,2.67,0,0,1,.83-.17"/><path class="cls-3" d="M23.29,96.27a.48.48,0,0,0-.75-.06,1,1,0,0,0-.19.38,1.3,1.3,0,0,0,0,.52,1.26,1.26,0,0,0,.38.59,1.05,1.05,0,0,0,.52.25.94.94,0,0,0,.44,0l.09,0a1.29,1.29,0,0,0,.47-.33,1.83,1.83,0,0,0,.44-1.24,2.09,2.09,0,0,0-.44-1.19,2,2,0,0,0-.39-.38l-.09-.06a2.1,2.1,0,0,0-1.71-.22l-.16,0a3.65,3.65,0,0,0-1.06.61l-.25.21a4.47,4.47,0,0,1,.25-.6,2.85,2.85,0,0,1,.49-.7,2.3,2.3,0,0,1,.57-.47,1.52,1.52,0,0,1,.89-.24,1.22,1.22,0,0,1,.67.24"/><path class="cls-3" d="M24.27,102.46a1.39,1.39,0,0,0,.06.19,1.33,1.33,0,0,0,.89.87,1.12,1.12,0,0,0,.76-.08,1.45,1.45,0,0,0,.78-1.33,1.62,1.62,0,0,0-.09-.57,1.31,1.31,0,0,0-1-.88,1.16,1.16,0,0,0-.65.1,1.41,1.41,0,0,0-.74,1,1.7,1.7,0,0,0,0,.71Z"/><path class="cls-3" d="M18.62,102.5a6.82,6.82,0,0,0,1.16,5.81,5,5,0,0,0,4.68,1.85"/><path class="cls-3" d="M20.19,104,20,104a1.16,1.16,0,0,0-.52,1.43.92.92,0,0,0,1.25.6,1.17,1.17,0,0,0,.52-1.43s0-.06,0-.08"/><path class="cls-3" d="M23,107a.85.85,0,0,0-.86-.07,1.16,1.16,0,0,0-.52,1.43.91.91,0,0,0,1.25.59,1,1,0,0,0,.55-.69"/><path class="cls-3" d="M26.68,12.07a2,2,0,0,0-.78-1.85,1.08,1.08,0,0,0-1-.12.83.83,0,0,0-.29.24.86.86,0,0,0-.22.67c0,.39.41.7.73.58"/><path class="cls-3" d="M34.21,3.2c-.31,0-.55-.43-.4-.75a.57.57,0,0,1,.82-.23,1.16,1.16,0,0,1,.45.88v0a2.08,2.08,0,0,1-.87,1.74,3.45,3.45,0,0,1-1.75.56c-1.3.12-2.6-.09-3.9-.06a5.24,5.24,0,0,0-3.65,1.3,5.59,5.59,0,0,0-.45.52,8.66,8.66,0,0,0-1,1.83,1,1,0,0,0,0,.1A7.45,7.45,0,0,0,23,10.38,3.74,3.74,0,0,0,23,12a2.35,2.35,0,0,0,1.29,1.65,2,2,0,0,0,.35.11,1.68,1.68,0,0,0,.59,0,1.9,1.9,0,0,0,1.35-1.17"/><path class="cls-3" d="M32.63,7.8A4.81,4.81,0,0,0,34,7.64a4.2,4.2,0,0,0,1.71-.92h0a4.21,4.21,0,0,0,1-1.3,4.3,4.3,0,0,0,.38-2.3,3.67,3.67,0,0,0-.37-1.26l-.09-.17a2.43,2.43,0,0,0-3-1.14,2.26,2.26,0,0,0-1.17,1.32,2.19,2.19,0,0,0,.21,1.84,1.33,1.33,0,0,0,1.49.6,1.45,1.45,0,0,0,.9-1.21"/><path class="cls-3" d="M28.19,13.65A1.8,1.8,0,0,0,29,12.48"/><path class="cls-3" d="M27.89,11.82a.69.69,0,0,0-.46-.2.82.82,0,0,0-.7.36v0l0,.07a1.14,1.14,0,0,0-.12.52,1.26,1.26,0,0,0,.26.78,1,1,0,0,0,1,.4"/><path class="cls-3" d="M33.36,12.45a.88.88,0,0,0-.62-1h0a.88.88,0,0,0-.89.57l-.06.16a1.41,1.41,0,0,0,.35,1.29,1.33,1.33,0,0,0,1.16.36A1.75,1.75,0,0,0,34,13.5a2.52,2.52,0,0,0,.88-1.5,2.89,2.89,0,0,0,0-.29,3.9,3.9,0,0,0-.68-2.46A2.48,2.48,0,0,0,34,9a4.4,4.4,0,0,0-.93-.9h0l-.45-.29a4.19,4.19,0,0,0-1.91-.51h-.06a3.56,3.56,0,0,0-1,.13"/><path class="cls-3" d="M25.7,18.84a.79.79,0,0,0,1-.6v0a1.64,1.64,0,0,0,0-.23,1.12,1.12,0,0,0-.56-1,.92.92,0,0,0-.54-.1,1.14,1.14,0,0,0-.68.34,1.59,1.59,0,0,0-.4.69,1.83,1.83,0,0,0-.07.46,1.34,1.34,0,0,0,0,.2,3.16,3.16,0,0,0,0,.32,2.26,2.26,0,0,0,1.23,1.65c.84.38,2.1-.06,3.1-1.18a3.93,3.93,0,0,0,.31-.38,5.91,5.91,0,0,0,.95-1.87,4.49,4.49,0,0,0,.19-1.26,2.44,2.44,0,0,0-.22-1.09,2.24,2.24,0,0,0-.94-1,1.65,1.65,0,0,0-.95-.17h0a1.46,1.46,0,0,0-.39.12,1.54,1.54,0,0,0-.67.62,1.56,1.56,0,0,0-.19.85,1.27,1.27,0,0,0,.17.58.89.89,0,0,0,1.15.41.83.83,0,0,0,.15-.11A1,1,0,0,0,28.6,15"/><path class="cls-3" d="M26.75,18.22A1.53,1.53,0,0,0,28,17.65a2,2,0,0,0,.4-1.53"/><path class="cls-3" d="M27.43,11.62a2.77,2.77,0,0,0-.78-2.25l-.14-.12A2.1,2.1,0,0,0,25.3,8.8a.78.78,0,0,0-.72.45l-.06.12a1,1,0,0,0,.1,1v0"/><path class="cls-3" d="M30,10.71a1.54,1.54,0,0,0,0-.48,2.57,2.57,0,0,0-.4-1l-.15-.19a2.94,2.94,0,0,0-1.38-1A2.4,2.4,0,0,0,27.48,8h-.43a.3.3,0,0,0-.22.13.39.39,0,0,0,.13.55,3.83,3.83,0,0,1,.93.61,4,4,0,0,1,.73.9,3.7,3.7,0,0,1,.46,1.21"/><path class="cls-3" d="M30.41,11.69a.64.64,0,0,0-.09-.84.56.56,0,0,0-.36-.14.81.81,0,0,0-.45.11,1.11,1.11,0,0,0-.43.54,1.58,1.58,0,0,0-.12.54,1.66,1.66,0,0,0,.08.58l.05.09a1.31,1.31,0,0,0,1.5.74A1.89,1.89,0,0,0,31.82,12v0a3.1,3.1,0,0,0-.12-2,3.68,3.68,0,0,0-.4-.76,4.3,4.3,0,0,0-.61-.73,2.68,2.68,0,0,1,1.25.59l.17.14a2.42,2.42,0,0,1,.71,1.38,2,2,0,0,1-.08.8"/><path class="cls-3" d="M22.24,15.16a.66.66,0,0,0-.63-.72.75.75,0,0,0-.54.37,1,1,0,0,0-.14.38,1.47,1.47,0,0,0,.27,1.08,1.56,1.56,0,0,0,.72.53,1.52,1.52,0,0,0,1,0"/><path class="cls-3" d="M18.62,14.85a4.4,4.4,0,0,0-.64,1,7.48,7.48,0,0,0-.45,4.36c.21,1.47.62,2.9.76,4.38a5,5,0,0,1-.16,2.08,1.83,1.83,0,0,1-1.34,1.29h-.14a.87.87,0,0,1-.71-.34.81.81,0,0,1,0-1,.45.45,0,0,1,.72.32"/><path class="cls-3" d="M23.35,16.58a2.29,2.29,0,0,0,.65-2.4,2.13,2.13,0,0,0-1.79-1.53,2.33,2.33,0,0,0-1,.16,4.51,4.51,0,0,0-1,.59,5.19,5.19,0,0,0-.46.36l-.58.51a4.86,4.86,0,0,0-.53.58"/><path class="cls-3" d="M16.77,27.92a1.44,1.44,0,0,0,.87-1.23,1.7,1.7,0,0,0-.78-1.58,1.51,1.51,0,0,0-1.62.1,2.47,2.47,0,0,0-.92,1.56,3.15,3.15,0,0,0,1.15,2.94,3.87,3.87,0,0,0,.37.24,2.54,2.54,0,0,0,.74.23,3,3,0,0,0,2.47-.82,4.22,4.22,0,0,0,.8-1.06,5.5,5.5,0,0,0,.62-2.38,7.93,7.93,0,0,0-.12-1.62"/><path class="cls-3" d="M24.59,18V17.9a1.58,1.58,0,0,0-.32-1,1.21,1.21,0,0,0-.2-.19.92.92,0,0,0-.72-.15.8.8,0,0,0-.42.23h0l-.06.07a1.05,1.05,0,0,0-.19.86.81.81,0,0,0,.26.48"/><path class="cls-3" d="M23.71,19.41a1.77,1.77,0,0,0,.56-.53,1.74,1.74,0,0,0,.25-.49"/><path class="cls-3" d="M19.49,21a5.28,5.28,0,0,0,.05,1.05,5.78,5.78,0,0,0,.81,2.2h0a4.82,4.82,0,0,0,.51.66h0a4.35,4.35,0,0,0,.76.67,1.89,1.89,0,0,0,.3.19,2.68,2.68,0,0,0,2.2.3l.15-.06a2.35,2.35,0,0,0,1.35-2.13,1.76,1.76,0,0,0-.52-1.24,1.08,1.08,0,0,0-.83-.28,1.06,1.06,0,0,0-.34.12l0,0a1.12,1.12,0,0,0-.42,1.17,0,0,0,0,1,0,0,.75.75,0,0,0,1,.52"/><path class="cls-3" d="M21.07,14.81h0a.56.56,0,0,0-.2-.08.71.71,0,0,0-.69.19,1,1,0,0,0-.3.93A2.89,2.89,0,0,0,20.35,17a1.87,1.87,0,0,0,.26.3,2.76,2.76,0,0,0,.25.21,2.07,2.07,0,0,0,1.06.36,1.8,1.8,0,0,0,.76-.1"/><path class="cls-3" d="M22.75,19.65a2.67,2.67,0,0,1-.83-.17l-.28-.13a3.12,3.12,0,0,1-.78-.54,4.29,4.29,0,0,1-.82-1,.29.29,0,0,0-.19-.16h-.07a.32.32,0,0,0-.3.39c0,.16.05.33.08.48a3.39,3.39,0,0,0,.29.77,3.29,3.29,0,0,0,1,1.19l0,0a1.91,1.91,0,0,0,1.06.39h0a1.41,1.41,0,0,0,.41-.07"/><path class="cls-3" d="M23.48,23.76a1.3,1.3,0,0,1-.67.24,1.59,1.59,0,0,1-.89-.24,2.55,2.55,0,0,1-.57-.47,3,3,0,0,1-.49-.7h0a4.47,4.47,0,0,1-.25-.6l.25.21a3.65,3.65,0,0,0,1.06.61l.16,0a2.1,2.1,0,0,0,1.71-.22l.09-.07a1.71,1.71,0,0,0,.39-.37A2.09,2.09,0,0,0,24.71,21a1.83,1.83,0,0,0-.44-1.24,1.16,1.16,0,0,0-.47-.32l-.09,0a1,1,0,0,0-.24,0,1.17,1.17,0,0,0-1.1.86,1.3,1.3,0,0,0,0,.52,1,1,0,0,0,.19.38.48.48,0,0,0,.75-.06"/><path class="cls-3" d="M24.27,15.61a1.41,1.41,0,0,0,.74,1,1.16,1.16,0,0,0,.65.1,1.31,1.31,0,0,0,1-.89,1.51,1.51,0,0,0,.09-.55A1.45,1.45,0,0,0,26,13.91a1.12,1.12,0,0,0-.76-.08,1.33,1.33,0,0,0-.89.86c0,.07,0,.14-.06.2h0A1.7,1.7,0,0,0,24.27,15.61Z"/><path class="cls-3" d="M24.46,7.19A5,5,0,0,0,19.78,9a6.81,6.81,0,0,0-1.16,5.81h0"/><path class="cls-3" d="M21.2,12.81h0s0-.05,0-.08a1.17,1.17,0,0,0-.52-1.43.92.92,0,0,0-1.25.59A1.16,1.16,0,0,0,20,13.33l.2.07"/><path class="cls-3" d="M23.44,9.12a1,1,0,0,0-.55-.69A.92.92,0,0,0,21.64,9a1.16,1.16,0,0,0,.52,1.43.85.85,0,0,0,.86-.07"/><path class="cls-3" d="M87.77,105.27a2,2,0,0,0,.77,1.85,1,1,0,0,0,1,.12.71.71,0,0,0,.29-.23.9.9,0,0,0,.22-.67c0-.39-.41-.7-.73-.58"/><path class="cls-3" d="M80.23,114.15c.31-.05.55.43.4.75a.57.57,0,0,1-.82.22,1.12,1.12,0,0,1-.45-.87v0a2.07,2.07,0,0,1,.87-1.74,3.33,3.33,0,0,1,1.75-.56c1.29-.11,2.6.09,3.89.06a5.25,5.25,0,0,0,3.66-1.3,5.59,5.59,0,0,0,.45-.52,9.09,9.09,0,0,0,1-1.82s0-.08,0-.11.09-.2.12-.3a7.65,7.65,0,0,0,.3-1,3.74,3.74,0,0,0,0-1.63,2.3,2.3,0,0,0-1.42-1.7l-.21-.06a1.83,1.83,0,0,0-2,1.18"/><path class="cls-3" d="M81.82,109.55a4.84,4.84,0,0,0-1.42.16,4.24,4.24,0,0,0-1.66.88h0a4.15,4.15,0,0,0-1.4,3.6,3.69,3.69,0,0,0,.35,1.27l.11.2a2.43,2.43,0,0,0,3,1.14A2.26,2.26,0,0,0,82,115.48a2.19,2.19,0,0,0-.21-1.84,1.34,1.34,0,0,0-1.49-.6,1.44,1.44,0,0,0-.9,1.21"/><path class="cls-3" d="M86.24,103.7a1.89,1.89,0,0,0-.85,1.17"/><path class="cls-3" d="M86.55,105.52a.66.66,0,0,0,.46.21.84.84,0,0,0,.71-.37.17.17,0,0,1,0,0,.05.05,0,0,0,0,0,1.1,1.1,0,0,0,.12-.51h0a1.21,1.21,0,0,0-.26-.79,1.08,1.08,0,0,0-1-.39"/><path class="cls-3" d="M81.08,104.89a.89.89,0,0,0,.62,1h0a.91.91,0,0,0,.93-.65.19.19,0,0,1,0-.08,1.41,1.41,0,0,0-.35-1.29,1.33,1.33,0,0,0-1.16-.36,1.88,1.88,0,0,0-1.26,1,2.49,2.49,0,0,0-.29.76,1.77,1.77,0,0,0,0,.32,3.84,3.84,0,0,0,.66,2.43c.06.1.14.2.21.3a4.21,4.21,0,0,0,.88.86h0a4.45,4.45,0,0,0,.51.33,4.11,4.11,0,0,0,1.89.51h.07a3.74,3.74,0,0,0,1-.13"/><path class="cls-3" d="M89.85,99.4a2.11,2.11,0,0,0,.08-.45v-.19a1.92,1.92,0,0,0-.07-.48,2.21,2.21,0,0,0-1.19-1.49c-.88-.4-2.21.1-3.24,1.33-.06.08-.12.15-.17.23a5.84,5.84,0,0,0-.94,1.84,3.37,3.37,0,0,0,0,2.38,1.94,1.94,0,0,0,1.89,1.13h0a1.42,1.42,0,0,0,.4-.12,1.52,1.52,0,0,0,.86-1.47,1.26,1.26,0,0,0-.16-.58.9.9,0,0,0-1.16-.41.83.83,0,0,0-.15.11h0a1,1,0,0,0-.19,1.16"/><path class="cls-3" d="M88.74,98.51a.79.79,0,0,0-1,.6v0a1.14,1.14,0,0,0,.54,1.22,1,1,0,0,0,1.22-.24,1.57,1.57,0,0,0,.4-.7"/><path class="cls-3" d="M87.69,99.13a1.51,1.51,0,0,0-1.25.57,2.09,2.09,0,0,0-.41,1.53"/><path class="cls-3" d="M87,105.73a2.82,2.82,0,0,0,.78,2.25l.09.08a2,2,0,0,0,1.26.49.81.81,0,0,0,.74-.49.63.63,0,0,0,.08-.23,1,1,0,0,0-.14-.81h0"/><path class="cls-3" d="M84.48,106.64a1.93,1.93,0,0,0,0,.48,2.28,2.28,0,0,0,.38.94,2,2,0,0,0,.17.23,3,3,0,0,0,1.27.93,2.38,2.38,0,0,0,.64.15,2.06,2.06,0,0,0,.43,0,.28.28,0,0,0,.24-.16.37.37,0,0,0-.16-.51,4.28,4.28,0,0,1-1-.65h0a3.84,3.84,0,0,1-.69-.86,3.7,3.7,0,0,1-.46-1.21"/><path class="cls-3" d="M84,105.65a.65.65,0,0,0,.1.85.57.57,0,0,0,.35.14.76.76,0,0,0,.44-.11,1.07,1.07,0,0,0,.44-.54,1.58,1.58,0,0,0,.12-.54,1.44,1.44,0,0,0-.09-.58l0-.09a1.33,1.33,0,0,0-1.51-.74,1.81,1.81,0,0,0-1.2,1.23l0,.1a3.1,3.1,0,0,0,.12,2,3.77,3.77,0,0,0,.37.72,4.29,4.29,0,0,0,.64.77,2.68,2.68,0,0,1-1.25-.59,1.12,1.12,0,0,1-.2-.18,2.37,2.37,0,0,1-.68-1.34,2,2,0,0,1,.08-.8"/><path class="cls-3" d="M92.2,102.19a.66.66,0,0,0,.63.72.73.73,0,0,0,.54-.37s0-.09.08-.14h0a2.17,2.17,0,0,0,.07-.24,1.57,1.57,0,0,0-.07-.68,1.69,1.69,0,0,0-.21-.4,1.51,1.51,0,0,0-.85-.57,1.47,1.47,0,0,0-.88,0"/><path class="cls-3" d="M91.09,100.77a2.12,2.12,0,0,0-.74,1.47,2.42,2.42,0,0,0,.08.93,2.15,2.15,0,0,0,1.8,1.53,2.33,2.33,0,0,0,1-.16,4.51,4.51,0,0,0,1-.59,5.19,5.19,0,0,0,.46-.36,8.23,8.23,0,0,0,1.12-1.09,4.75,4.75,0,0,0,.63-1,7.41,7.41,0,0,0,.45-4.36c-.21-1.47-.62-2.9-.76-4.38a5,5,0,0,1,.16-2.08,1.83,1.83,0,0,1,1.34-1.29h.13a.9.9,0,0,1,.73.34.78.78,0,0,1-.05,1,.43.43,0,0,1-.71-.31"/><path class="cls-3" d="M97.67,89.44a1.41,1.41,0,0,0-.87,1.22,1.7,1.7,0,0,0,.78,1.58,1.53,1.53,0,0,0,1.62-.1,2.43,2.43,0,0,0,.92-1.56,3.14,3.14,0,0,0-1.29-3l-.23-.14a2.48,2.48,0,0,0-.87-.25,3,3,0,0,0-2.34.84,4.08,4.08,0,0,0-.93,1.33A5.53,5.53,0,0,0,94,91.43a8,8,0,0,0,.12,1.62"/><path class="cls-3" d="M89.85,99.4h0a1.59,1.59,0,0,0,.19.83,1.1,1.1,0,0,0,.33.38.93.93,0,0,0,.72.15.8.8,0,0,0,.42-.23.46.46,0,0,1,.07-.07,1.1,1.1,0,0,0,.18-.87.81.81,0,0,0-.26-.47"/><path class="cls-3" d="M90.74,97.94a1.85,1.85,0,0,0-.7.74,1,1,0,0,0-.11.27"/><path class="cls-3" d="M95,96.31a5.22,5.22,0,0,0,0-1,5.87,5.87,0,0,0-.81-2.22,5.07,5.07,0,0,0-.64-.81,3.93,3.93,0,0,0-.63-.53,2.73,2.73,0,0,0-.43-.26,2.64,2.64,0,0,0-2.07-.23,1.69,1.69,0,0,0-.28.12A2.33,2.33,0,0,0,88.85,93a1.5,1.5,0,0,0,0,.37,1.8,1.8,0,0,0,.52,1.24,1.05,1.05,0,0,0,.7.28.81.81,0,0,0,.47-.12l0,0a1.09,1.09,0,0,0,.4-1.16v0a.75.75,0,0,0-1-.52"/><path class="cls-3" d="M93.37,102.54h0a.78.78,0,0,0,1.08-.34,1,1,0,0,0,.11-.7c0-.14-.07-.28-.11-.41a2.6,2.6,0,0,0-.62-1,1.8,1.8,0,0,0-.39-.29,2.14,2.14,0,0,0-1.06-.29,2.19,2.19,0,0,0-.63.1"/><path class="cls-3" d="M91.69,97.7a2.85,2.85,0,0,1,.7.12,2.13,2.13,0,0,1,.41.18,3,3,0,0,1,.65.42,4.21,4.21,0,0,1,1,1.17.12.12,0,0,0,.06.08c.2.2.54,0,.51-.3,0-.16,0-.33-.09-.48a3.6,3.6,0,0,0-.42-1,3.27,3.27,0,0,0-.86-.95l-.15-.11a1.86,1.86,0,0,0-1-.3h-.11a1.55,1.55,0,0,0-.31.07"/><path class="cls-3" d="M91,93.59a1.22,1.22,0,0,1,.67-.24,1.48,1.48,0,0,1,.76.17,2.27,2.27,0,0,1,.71.54,4.42,4.42,0,0,1,.35.47,3.3,3.3,0,0,1,.38.83l-.38-.31a3.36,3.36,0,0,0-1.06-.55h0a2.1,2.1,0,0,0-1.71.22l-.08.06a2,2,0,0,0-.53.58h0a2.1,2.1,0,0,0-.31,1A1.78,1.78,0,0,0,90,97.41a1.28,1.28,0,0,0,.6.51l.1,0a1.08,1.08,0,0,0,1-.24,1.19,1.19,0,0,0,.38-.59,1.14,1.14,0,0,0,0-.52.75.75,0,0,0-.18-.38.46.46,0,0,0-.74.06"/><path class="cls-3" d="M90,102.83h0a.67.67,0,0,0,.07-.17,1.43,1.43,0,0,0,.09-.41,1.55,1.55,0,0,0-.16-.86h0a1.29,1.29,0,0,0-.61-.61,1.22,1.22,0,0,0-1.66.78,1.63,1.63,0,0,0-.1.57,1.48,1.48,0,0,0,.79,1.33A1.19,1.19,0,0,0,90,102.83Z"/><path class="cls-3" d="M90,110.16a5,5,0,0,0,4.68-1.85,6.85,6.85,0,0,0,1.17-5.81"/><path class="cls-3" d="M93.24,104.54a.2.2,0,0,0,0,.08,1.17,1.17,0,0,0,.52,1.43.92.92,0,0,0,1.25-.6,1.16,1.16,0,0,0-.52-1.43l-.2-.07"/><path class="cls-3" d="M91,108.23a1.07,1.07,0,0,0,.55.69.91.91,0,0,0,1.25-.59,1.16,1.16,0,0,0-.52-1.43.85.85,0,0,0-.86.07"/><path class="cls-3" d="M89.3,11.59c.32.12.69-.19.73-.58a.9.9,0,0,0-.22-.67.83.83,0,0,0-.29-.24,1.08,1.08,0,0,0-1,.12,2,2,0,0,0-.77,1.85"/><path class="cls-3" d="M87.88,12.59a1.82,1.82,0,0,0,2,1.18l.21-.06A2.3,2.3,0,0,0,91.46,12a3.74,3.74,0,0,0,0-1.63,7.5,7.5,0,0,0-.3-1A2.85,2.85,0,0,0,91,9.12,1,1,0,0,0,91,9a8.66,8.66,0,0,0-1-1.83,5.59,5.59,0,0,0-.45-.52,5.25,5.25,0,0,0-3.66-1.3c-1.29,0-2.6.18-3.89.06a3.42,3.42,0,0,1-1.75-.56,2.08,2.08,0,0,1-.87-1.74v0a1.16,1.16,0,0,1,.45-.88.57.57,0,0,1,.82.23c.15.32-.09.8-.4.75"/><path class="cls-3" d="M79.36,3.1a1.44,1.44,0,0,0,.9,1.21,1.34,1.34,0,0,0,1.49-.6A2.19,2.19,0,0,0,82,1.87,2.26,2.26,0,0,0,80.79.55a2.43,2.43,0,0,0-3,1.14l-.09.17a3.67,3.67,0,0,0-.37,1.26,4.4,4.4,0,0,0,.38,2.3,4.37,4.37,0,0,0,1,1.3,4.2,4.2,0,0,0,1.71.92,4.84,4.84,0,0,0,1.42.16"/><path class="cls-3" d="M86.65,13.77a1.06,1.06,0,0,0,1-.4,1.2,1.2,0,0,0,.26-.78,1.14,1.14,0,0,0-.12-.52.25.25,0,0,0,0-.07v0a.85.85,0,0,0-.71-.36.69.69,0,0,0-.46.2"/><path class="cls-3" d="M85.39,12.48a1.82,1.82,0,0,0,.86,1.17"/><path class="cls-3" d="M84.77,7.42a3.46,3.46,0,0,0-1.06-.13,4.11,4.11,0,0,0-1.89.51c-.16.09-.31.19-.46.29h0a4.4,4.4,0,0,0-.93.9l-.19.26a3.9,3.9,0,0,0-.68,2.46,2.71,2.71,0,0,0,.32,1.07,1.92,1.92,0,0,0,1.28,1,1.33,1.33,0,0,0,1.16-.36,1.41,1.41,0,0,0,.35-1.29s0,0,0-.06a.92.92,0,0,0-.93-.67h0a.88.88,0,0,0-.62,1"/><path class="cls-3" d="M89.85,17.94a1.57,1.57,0,0,0-.4-.7A1,1,0,0,0,88.23,17a1.13,1.13,0,0,0-.54,1.22s0,0,0,0a.79.79,0,0,0,1,.6"/><path class="cls-3" d="M85.84,15A1,1,0,0,0,86,16.12h0a.83.83,0,0,0,.15.11.9.9,0,0,0,1.16-.41,1.26,1.26,0,0,0,.16-.58,1.56,1.56,0,0,0-.19-.85,1.54,1.54,0,0,0-.67-.62,1.42,1.42,0,0,0-.4-.12h0a1.91,1.91,0,0,0-1.89,1.13,3.39,3.39,0,0,0,0,2.35,6.13,6.13,0,0,0,1,1.87,1.84,1.84,0,0,0,.17.22A3.62,3.62,0,0,0,88,20.69a1.59,1.59,0,0,0,.66-.13,2.21,2.21,0,0,0,1.19-1.49,1.92,1.92,0,0,0,.07-.48V18.4a2.23,2.23,0,0,0-.08-.45"/><path class="cls-3" d="M86,16.12a2.1,2.1,0,0,0,.41,1.53,1.54,1.54,0,0,0,1.25.57"/><path class="cls-3" d="M89.81,10.34v0A1,1,0,0,0,90,9.49a.82.82,0,0,0-.1-.24.78.78,0,0,0-.72-.45,2.1,2.1,0,0,0-1.21.45l-.14.12A2.81,2.81,0,0,0,87,11.62"/><path class="cls-3" d="M85.36,11.36a3.7,3.7,0,0,1,.46-1.21,4,4,0,0,1,.73-.9,4.2,4.2,0,0,1,.92-.61.38.38,0,0,0,.14-.55A.3.3,0,0,0,87.39,8H87a2.4,2.4,0,0,0-.53.12h0a3,3,0,0,0-1.37,1l-.15.19a2.57,2.57,0,0,0-.4,1,1.91,1.91,0,0,0,0,.48"/><path class="cls-3" d="M81.7,11.43a2,2,0,0,1-.08-.8,2.42,2.42,0,0,1,.71-1.38l.17-.14a2.68,2.68,0,0,1,1.25-.59,4.3,4.3,0,0,0-.61.73,3.68,3.68,0,0,0-.4.76,3.1,3.1,0,0,0-.12,2l0,.12a1.86,1.86,0,0,0,1.2,1.21,1.33,1.33,0,0,0,1.51-.74l0-.09a1.31,1.31,0,0,0,.09-.51,1.54,1.54,0,0,0-.12-.61,1.07,1.07,0,0,0-.44-.54.76.76,0,0,0-.44-.11.52.52,0,0,0-.35.14.63.63,0,0,0-.1.84"/><path class="cls-3" d="M91.51,16.81a1.47,1.47,0,0,0,.88,0,1.51,1.51,0,0,0,.85-.57,1.9,1.9,0,0,0,.21-.4,1.51,1.51,0,0,0,.08-.48,1.27,1.27,0,0,0,0-.2,2.17,2.17,0,0,0-.07-.24h0s0-.1-.08-.14a.73.73,0,0,0-.54-.37.66.66,0,0,0-.63.72"/><path class="cls-3" d="M93.24,12.81a2.33,2.33,0,0,0-1-.16,2.15,2.15,0,0,0-1.8,1.53,2.4,2.4,0,0,0-.08.93,2.12,2.12,0,0,0,.74,1.47"/><path class="cls-3" d="M97.75,26.92a.44.44,0,0,1,.71-.32.79.79,0,0,1,.05,1,.94.94,0,0,1-.84.34h0a1.83,1.83,0,0,1-1.34-1.29,5,5,0,0,1-.16-2.08c.14-1.48.55-2.91.76-4.38a7.4,7.4,0,0,0-.45-4.36,4.75,4.75,0,0,0-.63-1,8.23,8.23,0,0,0-1.12-1.09,5.19,5.19,0,0,0-.46-.36,4.51,4.51,0,0,0-1-.59"/><path class="cls-3" d="M94.09,24.3A7.93,7.93,0,0,0,94,25.92,5.62,5.62,0,0,0,94.46,28h0a4.08,4.08,0,0,0,.93,1.33,3,3,0,0,0,2.34.84A2.71,2.71,0,0,0,98.6,30l.23-.14a3.14,3.14,0,0,0,1.29-3,2.43,2.43,0,0,0-.92-1.56,1.51,1.51,0,0,0-1.62-.1,1.7,1.7,0,0,0-.78,1.58,1.44,1.44,0,0,0,.87,1.23"/><path class="cls-3" d="M89.93,18.4a1,1,0,0,0,.11.27,1.85,1.85,0,0,0,.7.74"/><path class="cls-3" d="M91.5,18.22a.81.81,0,0,0,.26-.48,1.09,1.09,0,0,0-.18-.86.46.46,0,0,1-.07-.07.8.8,0,0,0-.42-.23l-.19,0a.9.9,0,0,0-.53.17,1.1,1.1,0,0,0-.33.38,1.59,1.59,0,0,0-.19.83h0"/><path class="cls-3" d="M90,24.28a.75.75,0,0,0,1-.52v0a1.08,1.08,0,0,0-.4-1.16l0,0a.9.9,0,0,0-.47-.13,1.12,1.12,0,0,0-.7.29,1.8,1.8,0,0,0-.52,1.24A2.32,2.32,0,0,0,90,26a1.75,1.75,0,0,0,.28.13,2.69,2.69,0,0,0,2.07-.23,2.73,2.73,0,0,0,.43-.26,3.93,3.93,0,0,0,.63-.53,5.07,5.07,0,0,0,.64-.81h0a5.82,5.82,0,0,0,.81-2.21,5.18,5.18,0,0,0,0-1"/><path class="cls-3" d="M91.76,17.74a1.9,1.9,0,0,0,.63.11,2.14,2.14,0,0,0,1.06-.29,2.19,2.19,0,0,0,.39-.29,2.6,2.6,0,0,0,.62-1c0-.13.08-.27.11-.41a1,1,0,0,0-.11-.7.77.77,0,0,0-1-.38l-.07,0h0"/><path class="cls-3" d="M92.08,20.76a1.55,1.55,0,0,0,.31.06h.11a1.79,1.79,0,0,0,1-.31l.15-.1a3.27,3.27,0,0,0,.86-1h0a3.6,3.6,0,0,0,.42-1c0-.15.06-.32.09-.48,0-.34-.31-.5-.51-.3a.12.12,0,0,0-.06.08,4.21,4.21,0,0,1-1,1.17,3.82,3.82,0,0,1-1.06.6,2.85,2.85,0,0,1-.7.12"/><path class="cls-3" d="M91.16,21.08a.46.46,0,0,0,.74.06.75.75,0,0,0,.18-.38,1.12,1.12,0,0,0-.39-1.11,1.08,1.08,0,0,0-1-.24l-.1,0a1.16,1.16,0,0,0-.6.5,1.75,1.75,0,0,0-.31,1V21A2.17,2.17,0,0,0,90,22a2.06,2.06,0,0,0,.53.57l.08.06a2.1,2.1,0,0,0,1.71.22h0a3.36,3.36,0,0,0,1.06-.55l.38-.31a3.47,3.47,0,0,1-.38.83,4.42,4.42,0,0,1-.35.47,2.43,2.43,0,0,1-.71.54,1.59,1.59,0,0,1-.76.17,1.3,1.3,0,0,1-.67-.24"/><path class="cls-3" d="M90,14.52a1.18,1.18,0,0,0-1.58-.61,1.47,1.47,0,0,0-.79,1.34,1.52,1.52,0,0,0,.1.55,1.21,1.21,0,0,0,1.66.79A1.27,1.27,0,0,0,90,16a1.55,1.55,0,0,0,.16-.86,1.58,1.58,0,0,0-.09-.42S90.07,14.58,90,14.52Z"/><path class="cls-3" d="M95.83,14.85A6.85,6.85,0,0,0,94.66,9,5,5,0,0,0,90,7.19"/><path class="cls-3" d="M94.25,13.4l.2-.07A1.16,1.16,0,0,0,95,11.89a.92.92,0,0,0-1.25-.59,1.17,1.17,0,0,0-.52,1.43.2.2,0,0,0,0,.08h0"/><path class="cls-3" d="M91.42,10.38a.85.85,0,0,0,.86.07A1.16,1.16,0,0,0,92.8,9a.92.92,0,0,0-1.25-.59,1.07,1.07,0,0,0-.55.69"/><path class="cls-3" d="M24.27,27.71c-.74,0-1.33.22-1.33.5s.59.51,1.33.51"/><path class="cls-3" d="M24.27,30.6c-.74,0-1.33.24-1.33.51s.59.5,1.33.51"/><path class="cls-3" d="M24.27,33.5c-.74,0-1.33.24-1.33.51s.59.5,1.33.51"/><path class="cls-3" d="M24.27,36.4c-.74,0-1.33.23-1.33.51s.59.51,1.33.51"/><path class="cls-3" d="M24.27,39.3c-.74,0-1.33.24-1.33.51s.59.5,1.33.51"/><path class="cls-3" d="M24.27,42.2c-.74,0-1.33.23-1.33.51s.59.51,1.33.51"/><path class="cls-3" d="M24.27,45.1c-.74,0-1.33.23-1.33.51s.59.5,1.33.51"/><path class="cls-3" d="M24.27,48c-.74,0-1.33.23-1.33.51s.59.5,1.33.51"/><path class="cls-3" d="M24.27,50.9c-.74,0-1.33.23-1.33.51s.59.5,1.33.51"/><path class="cls-3" d="M24.27,53.8c-.74,0-1.33.23-1.33.51s.59.5,1.33.51"/><path class="cls-3" d="M24.27,56.7c-.74,0-1.33.23-1.33.51s.59.5,1.33.51"/><path class="cls-3" d="M24.27,59.6c-.74,0-1.33.23-1.33.51s.59.5,1.33.51"/><path class="cls-3" d="M24.27,62.5c-.74,0-1.33.23-1.33.51s.59.5,1.33.51"/><path class="cls-3" d="M24.27,65.4c-.74,0-1.33.23-1.33.51s.59.5,1.33.51"/><path class="cls-3" d="M24.27,68.3c-.74,0-1.33.23-1.33.5s.59.51,1.33.51"/><path class="cls-3" d="M24.27,71.19c-.74,0-1.33.24-1.33.51s.59.51,1.33.51"/><path class="cls-3" d="M24.27,74.1c-.74,0-1.33.23-1.33.51s.59.5,1.33.51"/><path class="cls-3" d="M24.27,77c-.74,0-1.33.24-1.33.51s.59.5,1.33.51"/><path class="cls-3" d="M24.27,79.89c-.74,0-1.33.24-1.33.51s.59.51,1.33.51"/><path class="cls-3" d="M24.27,82.79c-.74,0-1.33.24-1.33.51s.59.51,1.33.52"/><path class="cls-3" d="M24.27,85.69c-.74,0-1.33.24-1.33.51s.59.5,1.33.51"/><path class="cls-3" d="M24.27,88.59c-.74,0-1.33.23-1.33.51s.59.5,1.33.51"/><path class="cls-3" d="M90,28.72c.73,0,1.3-.23,1.3-.51s-.57-.49-1.3-.5"/><path class="cls-3" d="M90,31.62c.73,0,1.3-.23,1.3-.51s-.57-.49-1.3-.51"/><path class="cls-3" d="M90,34.52c.73,0,1.3-.24,1.3-.51s-.57-.49-1.3-.51"/><path class="cls-3" d="M90,37.42c.73,0,1.3-.23,1.3-.51s-.57-.5-1.3-.51"/><path class="cls-3" d="M90,40.32c.73,0,1.3-.24,1.3-.51s-.57-.5-1.3-.51"/><path class="cls-3" d="M90,43.22c.73,0,1.3-.23,1.3-.51s-.57-.49-1.3-.51"/><path class="cls-3" d="M90,46.12c.73,0,1.3-.23,1.3-.51s-.57-.5-1.3-.51"/><path class="cls-3" d="M90,49c.73,0,1.3-.24,1.3-.51S90.77,48,90,48"/><path class="cls-3" d="M90,51.92c.73,0,1.3-.24,1.3-.51s-.57-.5-1.3-.51"/><path class="cls-3" d="M90,54.82c.73,0,1.3-.24,1.3-.51s-.57-.5-1.3-.51"/><path class="cls-3" d="M90,57.72c.73,0,1.3-.24,1.3-.51s-.57-.5-1.3-.51"/><path class="cls-3" d="M90,60.62c.73,0,1.3-.24,1.3-.51s-.57-.5-1.3-.51"/><path class="cls-3" d="M90,63.52c.73,0,1.3-.24,1.3-.51s-.57-.5-1.3-.51"/><path class="cls-3" d="M90,66.42c.73,0,1.3-.24,1.3-.51s-.57-.5-1.3-.51"/><path class="cls-3" d="M90,69.31c.73,0,1.3-.23,1.3-.51s-.57-.49-1.3-.5"/><path class="cls-3" d="M90,72.21c.73,0,1.3-.23,1.3-.51s-.57-.49-1.3-.51"/><path class="cls-3" d="M90,75.12c.73,0,1.3-.24,1.3-.51s-.57-.5-1.3-.51"/><path class="cls-3" d="M90,78c.73,0,1.3-.23,1.3-.51S90.77,77,90,77"/><path class="cls-3" d="M90,80.91c.73,0,1.3-.23,1.3-.51s-.57-.49-1.3-.51"/><path class="cls-3" d="M90,83.82c.73,0,1.3-.24,1.3-.52s-.57-.5-1.3-.51"/><path class="cls-3" d="M90,86.71c.73,0,1.3-.24,1.3-.51s-.57-.49-1.3-.51"/><path class="cls-3" d="M90,89.61c.73,0,1.3-.24,1.3-.51s-.57-.49-1.3-.51"/><path class="cls-3" d="M38.44,12c0-.84-.2-1.52-.44-1.52s-.44.68-.45,1.52"/><path class="cls-3" d="M41,12c0-.84-.2-1.52-.44-1.52s-.44.68-.45,1.52"/><path class="cls-3" d="M43.5,12c0-.84-.21-1.52-.45-1.52s-.44.68-.44,1.52"/><path class="cls-3" d="M46,12c0-.84-.21-1.52-.45-1.52s-.44.68-.44,1.52"/><path class="cls-3" d="M48.55,12c0-.84-.2-1.52-.44-1.52s-.44.68-.45,1.52"/><path class="cls-3" d="M51.08,12c0-.84-.21-1.52-.45-1.52s-.43.68-.44,1.52"/><path class="cls-3" d="M53.61,12c0-.84-.21-1.52-.45-1.52s-.44.68-.44,1.52"/><path class="cls-3" d="M56.13,12c0-.84-.2-1.52-.44-1.52s-.44.68-.44,1.52"/><path class="cls-3" d="M58.66,12c0-.84-.2-1.52-.44-1.52s-.44.68-.45,1.52"/><path class="cls-3" d="M61.19,12c0-.84-.21-1.52-.45-1.52s-.43.68-.44,1.52"/><path class="cls-3" d="M63.71,12c0-.84-.2-1.52-.44-1.52s-.44.68-.45,1.52"/><path class="cls-3" d="M66.24,12c0-.84-.2-1.52-.44-1.52s-.44.68-.45,1.52"/><path class="cls-3" d="M68.77,12c0-.84-.2-1.52-.45-1.52s-.43.68-.44,1.52"/><path class="cls-3" d="M71.3,12c0-.84-.2-1.52-.45-1.52s-.44.68-.44,1.52"/><path class="cls-3" d="M73.83,12c0-.84-.21-1.52-.45-1.52s-.44.68-.44,1.52"/><path class="cls-3" d="M76.35,12c0-.84-.2-1.52-.44-1.52s-.44.68-.45,1.52"/><path class="cls-3" d="M37.56,105.31a.28.28,0,0,0,0,.09c0,.87.2,1.57.45,1.57s.44-.7.44-1.57v-.09"/><path class="cls-3" d="M40.08,105.31v.09c0,.87.2,1.57.45,1.57s.44-.7.44-1.57v-.09"/><path class="cls-3" d="M42.61,105.31v.09c0,.87.2,1.57.44,1.57s.45-.7.45-1.57v-.09"/><path class="cls-3" d="M45.14,105.31v.09c0,.87.2,1.57.44,1.57s.45-.7.45-1.57a.28.28,0,0,0,0-.09"/><path class="cls-3" d="M47.67,105.31a.28.28,0,0,0,0,.09c0,.87.2,1.57.45,1.57s.44-.7.44-1.57v-.09"/><path class="cls-3" d="M50.19,105.31v.09c0,.87.2,1.57.44,1.57s.45-.7.45-1.57v-.09"/><path class="cls-3" d="M52.72,105.31v.09c0,.87.2,1.57.44,1.57s.45-.7.45-1.57a.28.28,0,0,0,0-.09"/><path class="cls-3" d="M55.25,105.31v.09c0,.87.19,1.57.44,1.57s.44-.7.44-1.57v-.09"/><path class="cls-3" d="M57.78,105.31a.28.28,0,0,0,0,.09c0,.87.2,1.57.45,1.57s.44-.7.44-1.57v-.09"/><path class="cls-3" d="M60.3,105.31v.09c0,.87.2,1.57.44,1.57s.45-.7.45-1.57v-.09"/><path class="cls-3" d="M62.83,105.31a.28.28,0,0,0,0,.09c0,.87.2,1.57.45,1.57s.44-.7.44-1.57v-.09"/><path class="cls-3" d="M65.35,105.31v.09c0,.87.2,1.57.45,1.57s.44-.7.44-1.57v-.09"/><path class="cls-3" d="M67.88,105.31v.09c0,.87.2,1.57.44,1.57s.45-.7.45-1.57v-.09"/><path class="cls-3" d="M70.41,105.31v.09c0,.87.2,1.57.44,1.57s.45-.7.45-1.57v-.09"/><path class="cls-3" d="M72.94,105.31v.09c0,.87.2,1.57.44,1.57s.45-.7.45-1.57a.28.28,0,0,0,0-.09"/><path class="cls-3" d="M75.47,105.31a.28.28,0,0,0,0,.09c0,.87.2,1.57.45,1.57s.44-.7.44-1.57v-.09"/><path d="M102,75.36a4.39,4.39,0,0,1-.81,2.52c-1.68,2.42-3.5,4.74-5.27,7.1-.62.82-1.26,1.63-1.91,2.44-.1.13-.28.34-.39.32-1.17-.2-1.75,1.3-3,1-.37-.08-1,.82-1.46,1.31a73.78,73.78,0,0,1-12.88,10.64,6.41,6.41,0,0,1-2.51.93c-2.91.43-5.84.73-8.75,1.13a19.39,19.39,0,0,0-2.24.58c-.82.22-1.5.47-1.36,1.59.11.78-.46,1.19-1.21,1.08-2.33-.36-4.17.86-5.94,2A16,16,0,0,0,51.4,111c-1.56,1.77-3.12,3.53-4.66,5.3a2.66,2.66,0,0,0-.56.9c-.86,2.77-1.63,5.57-2.56,8.32-.8,2.4-.32,4.78-.06,7.15.75,6.75,1.66,13.49,2.45,20.24.43,3.58,1,7.16.52,10.8-.15,1.16-.44,1.88-1.77,1.91-.25,0-.69.52-.73.83-.59,4.82-1.28,9.63-1.61,14.46a48.4,48.4,0,0,0,.5,7.86c.61,6.08,1.12,12.18,2,18.23.58,4.07,1.74,8.05,2.57,12.09.79,3.86,1.48,7.74,2.22,11.61a19.83,19.83,0,0,1,.44,2.4c.09,1.08,0,1.81,1.66,1.91,2,.12,3,2,2.8,4.31a37.5,37.5,0,0,1-1.48,8.26,17.66,17.66,0,0,0-.43,4.38c-.06,1.61-1.52,4-3.18,4.41a67.86,67.86,0,0,1-8,1.49,2.48,2.48,0,0,1-3.11-2.33c-.62-3.46-1-7-1.53-10.45a5.47,5.47,0,0,0-.27-1.6c-1.88-3.73-2.31-7.82-2.85-11.84-.85-6.44-2-12.8-3.33-19.15-.85-4-1.16-8.07-1.66-12.12-.6-4.8-1.1-9.62-1.75-14.42a56.85,56.85,0,0,0-1.68-7.9c-.33,1.6-.8,3.19-1,4.81-.68,6.39-1.37,12.78-1.5,19.23-.09,4.6-1.11,9.18-1.33,13.78a110.7,110.7,0,0,0,.29,12.35c.18,2.7.92,5.36,1.16,8.06a35.49,35.49,0,0,1-.24,5.24h0v.08c-.91,1.89-1.79,3.79-2.73,5.66-.47.95-.95,2.16-2.16,2.13a66,66,0,0,1-8-.58c-1.79-.25-2.22-.11-2.21,1.73,0,1.53.14,3,.13,4.58,0,.77.23,1,1,1,2.89-.06,5.79,0,8.68-.09a5.31,5.31,0,0,0,4.86-2.57c1.84-3,2.29-6.26,2.75-9.57.19-1.37-.06-1.59-1.49-1.55-.67,0-.86-.21-.89-.74l0,0v0a10.86,10.86,0,0,1,2-.2A1.34,1.34,0,0,1,26,242.79c-.06,3.94-.63,7.75-2.81,11.18-.71,1.13-1.25,2.38-1.92,3.55A4.44,4.44,0,0,1,20.23,259a9.46,9.46,0,0,1-7.4,1.85c-1.16-.22-2.33-.38-3.5-.5A2,2,0,0,1,7.52,259c-.93-2.16-.73-4.45-.91-6.7a21.45,21.45,0,0,1-.06-3.4c.08-1,.47-2,.61-3.07C8,239.91,7.74,234,7.53,228c-.1-3.07.1-6.16.18-9.24a80.36,80.36,0,0,0-1-13.67c-.52-3.64-.18-7.41-.2-11.12,0-4.58,0-9.16,0-13.73,0-.55-.08-1.09-.08-1.63q0-6.87,0-13.73A3.41,3.41,0,0,0,5,161.72a2.61,2.61,0,0,1-.73-2q.25-6.25.71-12.49c.38-5.19.89-10.38,1.3-15.57.17-2.08.32-4.16.32-6.24,0-4.31-.12-8.61-.22-12.91a3.39,3.39,0,0,0-1-2.69c-.44-.39-.44-1.25-.68-1.88-.57-1.51-1.17-3-1.73-4.53-.44-1.19-.83-2.39-1.24-3.59a8.33,8.33,0,0,0-.47-1.41C.77,97.56.47,96.8,1.33,96c.21-.21.12-.85,0-1.24C1,93.45.56,92.21.2,91a3.28,3.28,0,0,1,.44-3.12C2.38,85.7,4.2,83.62,6,81.49c1.35-1.63,2.72-3.27,4-5a3.94,3.94,0,0,0,.59-2.14c0-3-.08-6-.11-9a7.26,7.26,0,0,1,2.17-5.79c.9-.82,1.58-1.87,2.41-2.77.23-.25.66-.3,1-.44,0,0,0,0,0,.06a2.65,2.65,0,0,1-.27,1.08,20.63,20.63,0,0,1-2.37,2.8,6.47,6.47,0,0,0-1.93,5.19c.06,3.3.28,6.59.42,9.89a1.06,1.06,0,0,1-.11.65c-1.62,2-3.25,4.1-4.92,6.12s-3.53,4-5.14,6.13a3.4,3.4,0,0,0-.37,2.41,41.9,41.9,0,0,0,1.3,4.44,24,24,0,0,1,8.21-6.73c.84-.41,1.18-.82.84-1.88-.2-.63.25-1.53.55-2.25.82-2,1.7-4,2.6-5.93,1-2.13,2-4.26,3-6.36s2.22-4.25,3.3-6.39a5,5,0,0,0,.33-1.45,2.18,2.18,0,0,0-.12-.65c-.25.08-.57.08-.72.23-.76.78-1.8,1.26-2.09,2.56-.11.53-1.32,1.13-2,1.13h0l-.21,0h0l-.08,0a.67.67,0,0,1-.41-.32,2.61,2.61,0,0,1-.26-1.3v-.15c0-.27.31-.55.48-.83a4.64,4.64,0,0,1,.5.69h0c.06.42.11.74.14.89.34-.38.54-.63.77-.86a35.29,35.29,0,0,1,2.91-2.83c1.25-1,1.85-.68,2.26.72,1.23-1,2.48-2.12,3.76-3.15,3.61-2.9,7.81-3,12.05-2.21a10.59,10.59,0,0,1,6.37,3.63c.47.56.77.79,1.48.18a4.1,4.1,0,0,1,4.49-.61A4.18,4.18,0,0,1,52.76,65c.17,3.13-1.44,5.53-3.11,7.93a4.73,4.73,0,0,0-.72,1.1c-.89,2.8-1.64,5.66-2.64,8.42a12.26,12.26,0,0,1-4.12,5.75c-.55.41-.43,1.69-.62,2.58a6.6,6.6,0,0,0,.73.13c2,.09,3.95.23,5.92.23S52.07,91,54,90.89s4.07-.07,6.1-.09,4.08,0,6.12,0c1.81,0,3.63-.21,5.44-.11a10.55,10.55,0,0,0,6.58-1.76c2.8-1.84,5.78-3.47,8.38-5.57,1.19-1,1.87-2.74,2.41-4.28,1-2.82,1.65-5.75,2.57-8.6a6.29,6.29,0,0,1,1.48-2.36,2.15,2.15,0,0,1,1.8-.52c.42.12.81,1,.87,1.52a21.43,21.43,0,0,1-.11,3.13c.86-1.23,1.27-5.05.74-6.75a28.71,28.71,0,0,1-.81-3.29c-.2-1.11.59-1.73,1.53-1.14a4.29,4.29,0,0,1,1.65,1.86c.92,2.36,1.76,4.76,2.44,7.2A25.56,25.56,0,0,1,102,75.36Zm-3,4c1.55-1.88,2.5-3.89,1.52-6.37,0-.12,0-.27,0-.4-.94-3.21-1.88-6.41-2.85-9.61-.09-.28-.48-.48-.74-.71a2.75,2.75,0,0,0,0,.94,11.93,11.93,0,0,1,.52,7.06,37.85,37.85,0,0,1-1.32,4.11c-.18.41-.9.59-1.37.87a7.9,7.9,0,0,1-.53-1.5,4,4,0,0,1,.21-1.2,15.42,15.42,0,0,0,.47-2.4,4.71,4.71,0,0,0-.46-1.47c-.39.33-1,.58-1.14,1-.58,1.37-1,2.81-1.49,4.21-1.09,3.07-2.17,6.15-3.29,9.2a2.19,2.19,0,0,1-.81,1c-3.52,2.24-7,4.48-10.61,6.65a5.41,5.41,0,0,1-2.54.82c-3.4.1-6.8,0-10.2,0v.22c-.91,0-1.83-.06-2.73,0-.27,0-.74.44-.73.66.17,3.06.45,6.12.62,9.19,0,.87.38.8,1,.63a38.8,38.8,0,0,1,4.24-1c2.28-.34,4.59-.48,6.87-.81a5.68,5.68,0,0,0,2.24-.86A73.46,73.46,0,0,0,88.47,89.2c1.13-1.22,2.25-2.44,4.09-2.66a2.55,2.55,0,0,0,1.4-1C95.68,83.5,97.32,81.39,99,79.33ZM59.17,105c1,0,1.25-.38,1.19-1.27-.12-1.77-.18-3.53-.28-5.3s-.21-3.6-.28-5.41c0-1-.45-1.4-1.52-1.36s-.92.75-.91,1.4.08,1.53.15,2.29c.26,2.63.53,5.26.82,8.19v.13C58.39,104.2,58.09,104.91,59.17,105ZM55,106.27c1.89-.25,2.39-1.28,2.18-3.24-.36-3.52-.65-7-.89-10.56,0-.83-.38-.87-1-.77-2.9.47-5.79,1-8.73.25a5.46,5.46,0,0,0-1.75-.17,18.13,18.13,0,0,0-4.93.72,8.06,8.06,0,0,1-2.77.76c-.63,0-1.27,0-1.9.11a39.45,39.45,0,0,1-9.77-.2c-1.58-.22-1.75-.57-1.48-2,.05-.28,0-.81-.09-.84a10.51,10.51,0,0,0-3.08-.67c-.85,0-1.66.71-2.53.9a6.78,6.78,0,0,1-2.46,0c-.52-.1-1-.91-1.41-.83s-.76.83-1.15,1.27a7.87,7.87,0,0,1-.79.74C11,93,9.55,94.2,8.09,95.42c-1.62,1.36-3.27,2.68-4.89,4a.93.93,0,0,0-.26.78c.27.91.63,1.79,1,2.68.57,1.51,1.15,3,1.72,4.54.23.58.42,1.18.69,1.74s.75.9.8,1.38c.29,3.07.49,6.14.77,9.81-.41,5.8-.86,12.17-1.28,18.54-.46,6.92-.87,13.84-1.34,20.75a1.59,1.59,0,0,0,.88,1.67c1.39.8,2.8,1.56,4.14,2.42a11.31,11.31,0,0,0,6.29,1.9c3,0,6,0,9,0,1.28,0,2.55,0,3.82-.1,4.84-.32,9.68-.68,14.52-1,1.47-.1,1.72-.2,1.67-1.68-.14-3.53-.29-7.06-.66-10.57-.79-7.44-1.74-14.86-2.57-22.29a10.72,10.72,0,0,1,.13-3.75c.84-3.29,1.88-6.53,2.85-9.79a2.2,2.2,0,0,1,.44-.81c2.36-2.68,4.74-5.34,7.09-8A3.35,3.35,0,0,1,55,106.27ZM52.74,244.92c1.21-2.8.32-5.45-.47-8.11-.07-.21-.19-.49-.36-.56a2.06,2.06,0,0,0-1.13-.21c-.22.05-.43.45-.53.74-.27.81-.43,1.67-.74,2.47A21.8,21.8,0,0,1,48,242.42c-.23.38.39,1.09-.61,1.19-2.47.25-4.92.75-7.4.94-2,.16-2,0-2.25,2.17.34,1.53.66,3.06,1,4.59.15.62.52.81,1.21.7,1.3-.2,2.62-.21,3.92-.39a38.94,38.94,0,0,0,4.81-.81A4.25,4.25,0,0,0,52,247.53,14.44,14.44,0,0,1,52.74,244.92ZM51.3,67.71a7.49,7.49,0,0,0,.32-3.19,2.79,2.79,0,0,0-4.31-2.18,1.4,1.4,0,0,0-.56,2.23,11.61,11.61,0,0,1,1.94,6c0,.44.05.88.08,1.32l.42.15A41.15,41.15,0,0,0,51.3,67.71Zm-2.7,187.9c2-.55,2.78-1.89,2.71-4,0-.63-.11-.82-.75-.48A15.3,15.3,0,0,1,44,252.68c-1.44.09-2.88.27-4.32.45-.25,0-.64.26-.68.45a3,3,0,0,0,2.85,3.49C44.1,256.59,46.38,256.21,48.6,255.61Zm-1.12-14.22c.71-1.74,1.66-3.61,1.59-5.39a74.83,74.83,0,0,0-1.46-10.6c-.63-3.48-1.52-6.9-2.27-10.35a90.84,90.84,0,0,1-2.06-13.25c-.36-5.46-1.19-10.89-1.75-16.33a28.18,28.18,0,0,1-.22-5.42c.42-4.46,1-8.9,1.62-13.34.14-1-.23-1.12-1.06-1.05-2.44.2-4.88.37-7.32.53-.82.06-1.63.07-2.45.11-4.32.23-8.64.63-13,.64-3.53,0-7.08-.35-10.06-2.67a6.72,6.72,0,0,0-1.6-.66c0,.52.06,1,.08,1.56a2.81,2.81,0,0,1,0,.41q0,15.3-.09,30.6a67.55,67.55,0,0,0,1,13.52c.63,3.15.32,6.5.33,9.76s-.13,6.25-.15,9.37c0,4.4,0,8.79,0,13.18,0,1.45-.24,2.89-.35,4.34,0,.55-.06,1.13.7,1.24,2.38.35,4.74.77,7.12,1a2.68,2.68,0,0,0,2.84-1.92,11.71,11.71,0,0,1,1.55-3.21A8.87,8.87,0,0,0,22,236.35c-.38-2.13-.64-4.29-1-6.43a56.22,56.22,0,0,1-.37-14.77c.44-5.1,1.07-10.17,1.61-15.25l-.49-.06c.32-3.28.8-6.56.93-9.86a77.11,77.11,0,0,1,1.9-13.29c.1-.47.61-.86.94-1.28.3.4.78.76.88,1.2.57,2.7,1.17,5.4,1.54,8.12.73,5.34,1.31,10.7,2,16.05a112,112,0,0,0,1.56,11.3c1.77,7.56,2.66,15.26,4,22.89.44,2.61,1.37,5.14,2.07,7.7a1.08,1.08,0,0,0,1.32.84c2.08-.19,4.15-.39,6.23-.52A2.75,2.75,0,0,0,47.48,241.39Zm.34-169.08a14.79,14.79,0,0,0-3.58-9.61,9.09,9.09,0,0,0-2.18-2,13.51,13.51,0,0,0-7.43-2,12.46,12.46,0,0,0-9.52,3.84A13.34,13.34,0,0,0,21.58,75c.47,2.35.6,2.39,3,2.32A161.87,161.87,0,0,0,41.8,76.14c.74-.11,1-.25,1.22-.89a1.65,1.65,0,0,1,2.31-1.06A2.14,2.14,0,0,0,47.82,72.31Zm-.35,3.35a11.64,11.64,0,0,1-1.85-.31c-1.19-.41-1.83-.14-1.83,1.12a12.89,12.89,0,0,0,.69,2.92c.06.24.23.55.14.69a.76.76,0,0,1-.69.25c-1.37-.66-1,.35-1.13,1.06a17.82,17.82,0,0,1-.5,2.92,20.69,20.69,0,0,1-1.07,2.47c.07.09.14.17.2.26a6.8,6.8,0,0,0,1.33-.83C45.67,83.2,46.07,79.11,47.47,75.66ZM39.25,87.93a14,14,0,0,0,2.6-9.74c0-.21-.27-.57-.41-.57-2,0-4.09,0-6.13.14-3.07.2-6.14.5-9.21.76a.34.34,0,0,0,0-.1c-.68,0-1.36,0-2,0s-1.13.17-1,1c.22,1.7.13,3.52.72,5.08.52,1.39.41,3.45,2.56,3.85.13,0,.26.26.31.42.41,1.24,1.11,1.73,2.36,1a1,1,0,0,1,.53-.08c1.86.09,3.73.29,5.59.23A5.36,5.36,0,0,0,39.25,87.93Zm.29,2.27a1.19,1.19,0,0,0,1.06-1.57c0-.09-.45-.2-.51-.13-.56.62-1.07,1.27-1.53,1.84C38.75,90.31,39.14,90.24,39.54,90.2ZM38.75,92a.66.66,0,0,0,.25-.4c0-.06-.16-.21-.27-.23A19.17,19.17,0,0,0,36.14,91c-1.56-.07-3.13,0-4.69,0a10.08,10.08,0,0,0-2.64.11,2.4,2.4,0,0,1-2.67-.78c-.14-.16-.41-.2-.63-.29A8.47,8.47,0,0,0,25,91.62c0,.17.57.51.9.54,1.8.19,3.6.31,5.17.43l7-.45A1.85,1.85,0,0,0,38.75,92Zm-15-3a1.48,1.48,0,0,0,.61.13c-.68-2.08-1.4-4.15-2-6.25A6.78,6.78,0,0,1,22,80.76,7.48,7.48,0,0,0,21,77.16a10.9,10.9,0,0,1-.59-6.9L20,70.15a79.88,79.88,0,0,0-3.87,7.53c-1,2.56-1.71,5.23-3.3,7.55-.63.93-.28,1.65.75,2.31a10.4,10.4,0,0,1,2,1.54,1.86,1.86,0,0,0,2.54.32C20,88.53,21.78,87.79,23.72,89ZM20.21,257.41c.22-.46.14-.78-.54-.65a17.88,17.88,0,0,1-2.81.37c-2.62.06-5.23,0-7.85.06a1,1,0,0,0-.78.31c-.24.41.58,1.71,1.1,1.78,1.61.24,3.23.44,4.91.67a12.48,12.48,0,0,0,5.2-1.64A2.06,2.06,0,0,0,20.21,257.41Zm-7.12-168c.07-.13-.24-.67-.46-.75s-.56.23-.85.35c-3.51,1.54-5.92,4.41-8.53,7a5.88,5.88,0,0,0-.77,1.28c.1.4.11.85.23.88a1.53,1.53,0,0,0,.87-.16,2.45,2.45,0,0,0,.65-.47Q8.15,94.15,12,90.67A5.2,5.2,0,0,0,13.09,89.43Z"/><path class="cls-4" d="M100.55,73c1,2.48,0,4.49-1.52,6.37-1.71,2.06-3.35,4.17-5.07,6.23a2.55,2.55,0,0,1-1.4,1c-1.84.22-3,1.44-4.09,2.66A73.46,73.46,0,0,1,75.83,99.7a5.68,5.68,0,0,1-2.24.86c-2.28.33-4.59.47-6.87.81a38.8,38.8,0,0,0-4.24,1c-.64.17-1,.24-1-.63-.17-3.07-.45-6.13-.62-9.19,0-.22.46-.64.73-.66.9-.09,1.82,0,2.73,0v-.22c3.4,0,6.8.06,10.2,0A5.41,5.41,0,0,0,77,90.75c3.57-2.17,7.09-4.41,10.61-6.65a2.19,2.19,0,0,0,.81-1c1.12-3,2.2-6.13,3.29-9.2.49-1.4.91-2.84,1.49-4.21.17-.42.75-.67,1.14-1a4.71,4.71,0,0,1,.46,1.47,15.42,15.42,0,0,1-.47,2.4,4,4,0,0,0-.21,1.2,7.9,7.9,0,0,0,.53,1.5c.47-.28,1.19-.46,1.37-.87a37.85,37.85,0,0,0,1.32-4.11,11.93,11.93,0,0,0-.52-7.06,2.75,2.75,0,0,1,0-.94c.26.23.65.43.74.71,1,3.2,1.91,6.4,2.85,9.61C100.53,72.69,100.51,72.84,100.55,73Z"/><path class="cls-5" d="M58.34,103.49c-.29-2.93-.56-5.56-.82-8.19-.07-.76-.13-1.53-.15-2.29s-.21-1.36.91-1.4S59.76,92,59.8,93c.07,1.81.19,3.61.28,5.41s.16,3.53.28,5.3c.06.89-.19,1.31-1.19,1.27s-.78-.75-.83-1.33Z"/><path class="cls-5" d="M57.18,103c.21,2-.29,3-2.18,3.24a3.35,3.35,0,0,0-2.18,1.39c-2.35,2.68-4.73,5.34-7.09,8a2.2,2.2,0,0,0-.44.81c-1,3.26-2,6.5-2.85,9.79a10.72,10.72,0,0,0-.13,3.75c.83,7.43,1.78,14.85,2.57,22.29.37,3.51.52,7,.66,10.57.05,1.48-.2,1.58-1.67,1.68-4.84.33-9.68.69-14.52,1-1.27.09-2.54.09-3.82.1-3,0-6,0-9,0a11.31,11.31,0,0,1-6.29-1.9c-1.34-.86-2.75-1.62-4.14-2.42a1.59,1.59,0,0,1-.88-1.67c.47-6.91.88-13.83,1.34-20.75.42-6.37.87-12.74,1.28-18.54-.28-3.67-.48-6.74-.77-9.81,0-.48-.57-.9-.8-1.38s-.46-1.16-.69-1.74c-.57-1.52-1.15-3-1.72-4.54-.34-.89-.7-1.77-1-2.68a.93.93,0,0,1,.26-.78c1.62-1.37,3.27-2.69,4.89-4C9.55,94.2,11,93,12.44,91.71a7.87,7.87,0,0,0,.79-.74c.39-.44.7-1.17,1.15-1.27s.89.73,1.41.83a6.78,6.78,0,0,0,2.46,0c.87-.19,1.68-.87,2.53-.9a10.51,10.51,0,0,1,3.08.67c.11,0,.14.56.09.84-.27,1.48-.1,1.83,1.48,2a39.45,39.45,0,0,0,9.77.2c.63-.07,1.27-.08,1.9-.11a8.06,8.06,0,0,0,2.77-.76,18.13,18.13,0,0,1,4.93-.72,5.46,5.46,0,0,1,1.75.17c2.94.77,5.83.22,8.73-.25.63-.1,1-.06,1,.77C56.53,96,56.82,99.51,57.18,103Z"/><path d="M52.27,236.81c.79,2.66,1.68,5.31.47,8.11a14.44,14.44,0,0,0-.74,2.61,4.25,4.25,0,0,1-3.28,3.28,38.94,38.94,0,0,1-4.81.81c-1.3.18-2.62.19-3.92.39-.69.11-1.06-.08-1.21-.7-.36-1.53-.68-3.06-1-4.59.23-2.13.24-2,2.25-2.17,2.48-.19,4.93-.69,7.4-.94,1-.1.38-.81.61-1.19a21.8,21.8,0,0,0,1.49-3.17c.31-.8.47-1.66.74-2.47.1-.29.31-.69.53-.74a2.06,2.06,0,0,1,1.13.21C52.08,236.32,52.2,236.6,52.27,236.81Z"/><path class="cls-6" d="M51.62,64.52a7.49,7.49,0,0,1-.32,3.19A41.15,41.15,0,0,1,49.19,72l-.42-.15c0-.44-.07-.88-.08-1.32a11.61,11.61,0,0,0-1.94-6,1.4,1.4,0,0,1,.56-2.23A2.79,2.79,0,0,1,51.62,64.52Z"/><path class="cls-7" d="M51.31,251.62c.07,2.1-.7,3.44-2.71,4-2.22.6-4.5,1-6.75,1.46A3,3,0,0,1,39,253.58c0-.19.43-.42.68-.45,1.44-.18,2.88-.36,4.32-.45a15.3,15.3,0,0,0,6.56-1.54C51.2,250.8,51.29,251,51.31,251.62Z"/><path class="cls-8" d="M49.07,236c.07,1.78-.88,3.65-1.59,5.39A2.75,2.75,0,0,1,45,243c-2.08.13-4.15.33-6.23.52a1.08,1.08,0,0,1-1.32-.84c-.7-2.56-1.63-5.09-2.07-7.7-1.29-7.63-2.18-15.33-4-22.89a112,112,0,0,1-1.56-11.3c-.66-5.35-1.24-10.71-2-16.05-.37-2.72-1-5.42-1.54-8.12-.1-.44-.58-.8-.88-1.2-.33.42-.84.81-.94,1.28A77.11,77.11,0,0,0,22.61,190c-.13,3.3-.61,6.58-.93,9.86l.49.06c-.54,5.08-1.17,10.15-1.61,15.25a56.22,56.22,0,0,0,.37,14.77c.38,2.14.64,4.3,1,6.43a8.87,8.87,0,0,1-1.51,7.12,11.71,11.71,0,0,0-1.55,3.21,2.68,2.68,0,0,1-2.84,1.92c-2.38-.24-4.74-.66-7.12-1-.76-.11-.74-.69-.7-1.24.11-1.45.33-2.89.35-4.34.05-4.39,0-8.78,0-13.18,0-3.12.16-6.25.15-9.37s.3-6.61-.33-9.76a67.55,67.55,0,0,1-1-13.52q.06-15.3.09-30.6a2.81,2.81,0,0,0,0-.41c0-.52,0-1-.08-1.56a6.72,6.72,0,0,1,1.6.66c3,2.32,6.53,2.69,10.06,2.67,4.33,0,8.65-.41,13-.64.82,0,1.63-.05,2.45-.11,2.44-.16,4.88-.33,7.32-.53.83-.07,1.2,0,1.06,1.05-.61,4.44-1.2,8.88-1.62,13.34a28.18,28.18,0,0,0,.22,5.42c.56,5.44,1.39,10.87,1.75,16.33a90.84,90.84,0,0,0,2.06,13.25c.75,3.45,1.64,6.87,2.27,10.35A74.83,74.83,0,0,1,49.07,236Z"/><path class="cls-6" d="M44.24,62.7a14.79,14.79,0,0,1,3.58,9.61,2.14,2.14,0,0,1-2.49,1.88A1.65,1.65,0,0,0,43,75.25c-.24.64-.48.78-1.22.89a161.87,161.87,0,0,1-17.18,1.22c-2.44.07-2.57,0-3-2.32a13.34,13.34,0,0,1,3.53-12.52,12.46,12.46,0,0,1,9.52-3.84,13.51,13.51,0,0,1,7.43,2A9.09,9.09,0,0,1,44.24,62.7Z"/><path class="cls-4" d="M45.62,75.35a11.64,11.64,0,0,0,1.85.31c-1.4,3.45-1.8,7.54-4.71,10.55a6.8,6.8,0,0,1-1.33.83c-.06-.09-.13-.17-.2-.26a20.69,20.69,0,0,0,1.07-2.47,17.82,17.82,0,0,0,.5-2.92c.09-.71-.24-1.72,1.13-1.06a.76.76,0,0,0,.69-.25c.09-.14-.08-.45-.14-.69a12.89,12.89,0,0,1-.69-2.92C43.79,75.21,44.43,74.94,45.62,75.35Z"/><path d="M41.85,78.19a14,14,0,0,1-2.6,9.74,5.36,5.36,0,0,1-4.15,2c-1.86.06-3.73-.14-5.59-.23a1,1,0,0,0-.53.08c-1.25.7-1.95.21-2.36-1-.05-.16-.18-.39-.31-.42-2.15-.4-2-2.46-2.56-3.85-.59-1.56-.5-3.38-.72-5.08-.11-.82.29-1,1-1s1.36,0,2,0a.34.34,0,0,1,0,.1c3.07-.26,6.14-.56,9.21-.76,2-.13,4.08-.13,6.13-.14C41.58,77.62,41.84,78,41.85,78.19Z"/><path class="cls-4" d="M40.6,88.63a1.19,1.19,0,0,1-1.06,1.57c-.4,0-.79.11-1,.14.46-.57,1-1.22,1.53-1.84C40.15,88.43,40.57,88.54,40.6,88.63Z"/><path class="cls-5" d="M39,91.63a.66.66,0,0,1-.25.4,1.85,1.85,0,0,1-.67.11l-7,.45c-1.57-.12-3.37-.24-5.17-.43-.33,0-.9-.37-.9-.54A8.47,8.47,0,0,1,25.51,90c.22.09.49.13.63.29a2.4,2.4,0,0,0,2.67.78,10.08,10.08,0,0,1,2.64-.11c1.56,0,3.13,0,4.69,0a19.17,19.17,0,0,1,2.59.43C38.84,91.42,39,91.57,39,91.63Z"/><path d="M23.58,242.38c1.43,0,1.68.18,1.49,1.55-.46,3.31-.91,6.59-2.75,9.57a5.31,5.31,0,0,1-4.86,2.57c-2.89.09-5.79,0-8.68.09-.78,0-1-.23-1-1,0-1.53-.12-3-.13-4.58,0-1.84.42-2,2.21-1.73a66,66,0,0,0,8,.58c1.21,0,1.69-1.18,2.16-2.13.94-1.87,1.82-3.77,2.73-5.66C22.72,242.17,22.91,242.4,23.58,242.38Z"/><path class="cls-1" d="M24.33,89.16a1.48,1.48,0,0,1-.61-.13c-1.94-1.24-3.77-.5-5.53.37a1.86,1.86,0,0,1-2.54-.32,10.4,10.4,0,0,0-2-1.54c-1-.66-1.38-1.38-.75-2.31,1.59-2.32,2.3-5,3.3-7.55A79.88,79.88,0,0,1,20,70.15l.37.11a10.9,10.9,0,0,0,.59,6.9A7.48,7.48,0,0,1,22,80.76a6.78,6.78,0,0,0,.26,2.15C22.93,85,23.65,87.08,24.33,89.16Z"/><path d="M22.72,241.56v0l0,0Z"/><path class="cls-1" d="M22.72,241.59l0,0v-.08Z"/><path class="cls-4" d="M21.31,63.51a2.18,2.18,0,0,1,.12.65,5,5,0,0,1-.33,1.45C20,67.75,18.87,69.85,17.8,72s-2.05,4.23-3,6.36c-.9,2-1.78,3.94-2.6,5.93-.3.72-.75,1.62-.55,2.25.34,1.06,0,1.47-.84,1.88a24,24,0,0,0-8.21,6.73,41.9,41.9,0,0,1-1.3-4.44,3.4,3.4,0,0,1,.37-2.41c1.61-2.12,3.44-4.08,5.14-6.13s3.3-4.07,4.92-6.12a1.06,1.06,0,0,0,.11-.65c-.14-3.3-.36-6.59-.42-9.89a6.47,6.47,0,0,1,1.93-5.19,20.63,20.63,0,0,0,2.37-2.8A2.65,2.65,0,0,0,16,56.44c0,.12,0,.33-.07.58-.66,4.85-.22,3.5-.4,8.59v.15a2.18,2.18,0,0,0,.26,1.3.67.67,0,0,0,.41.32l.08,0h0l.21,0h0c.71,0,1.92-.6,2-1.13.29-1.3,1.33-1.78,2.09-2.56C20.74,63.59,21.06,63.59,21.31,63.51Z"/><path class="cls-7" d="M19.67,256.76c.68-.13.76.19.54.65a2.06,2.06,0,0,1-.77.9,12.48,12.48,0,0,1-5.2,1.64c-1.68-.23-3.3-.43-4.91-.67-.52-.07-1.34-1.37-1.1-1.78a1,1,0,0,1,.78-.31c2.62,0,5.23,0,7.85-.06A17.88,17.88,0,0,0,19.67,256.76Z"/><path d="M16.61,66.37c0-.15-.08-.47-.14-.89A4.19,4.19,0,0,1,16.61,66.37Z"/><path d="M16.25,67.41l.21,0Z"/><path d="M16.16,67.38l.08,0Z"/><path d="M16.08,56.34c.49.09-.33,4.16.39,9.13a4.64,4.64,0,0,0-.5-.69c-.17.28-.48.56-.48.83.18-5.09-.26-3.74.4-8.59,0-.25.06-.46.07-.58s0,0,0-.06A.18.18,0,0,1,16.08,56.34Z"/><path d="M15.49,65.76a2.61,2.61,0,0,0,.26,1.3A2.18,2.18,0,0,1,15.49,65.76Z"/><path class="cls-5" d="M12.63,88.68c.22.08.53.62.46.75A5.2,5.2,0,0,1,12,90.67Q8.15,94.15,4.23,97.6a2.45,2.45,0,0,1-.65.47,1.53,1.53,0,0,1-.87.16c-.12,0-.13-.48-.23-.88a5.88,5.88,0,0,1,.77-1.28c2.61-2.63,5-5.5,8.53-7C12.07,88.91,12.41,88.61,12.63,88.68Z"/><line class="cls-3" x1="16.73" y1="75.59" x2="16.7" y2="89.75"/><line class="cls-3" x1="19.5" y1="70.6" x2="19.85" y2="89.05"/><line class="cls-3" x1="21.01" y1="74.6" x2="21.29" y2="89.02"/></g></g></svg>