<svg xmlns="http://www.w3.org/2000/svg" viewBox="0 0 108.57 111.58"><defs><style>.cls-1{fill:#4b4b4b;}</style></defs><g id="Layer_2" data-name="Layer 2"><g id="_1" data-name="1"><path class="cls-1" d="M108.57,87.69a23.89,23.89,0,0,1-23.88,23.89c-11.54,0-21.45-11.38-23.49-20.28-.51-2.24-1.35-5.39-1.32-6,0-.2-3.19-21.07,1.41-38.77C67.87,21.17,88.76,5,95,0L99.2,4.52c-1.45,2.8-3.33,7-5,10.78-1,2.32-2.1,4.8-3.39,8-1.21,3-2.76,7.15-4.39,12.12q-.64,2.46-1.27,4.92a45.31,45.31,0,0,0-1.51,7.91c-.72,7-1.68,15.53,1,15.53A23.88,23.88,0,0,1,108.57,87.69Z"/><path class="cls-1" d="M49.76,87.69a23.89,23.89,0,0,1-23.88,23.89C14.34,111.58,4.44,100.2,2.4,91.3c-.52-2.24-1.35-5.39-1.33-6,0-.2-3.19-21.07,1.41-38.77C9.06,21.17,30,5,36.16,0L40.4,4.52c-1.45,2.8-3.33,7-4.95,10.78-1,2.32-2.11,4.8-3.39,8-1.21,3-2.77,7.15-4.4,12.12L26.4,40.37a46.13,46.13,0,0,0-1.52,7.91c-.72,7-1.67,15.53,1,15.53A23.88,23.88,0,0,1,49.76,87.69Z"/></g></g></svg>